{"glyphs":{"0":{"ha":496,"x_min":67,"x_max":453,"o":"m 453 331 q 438 230 453 272 q 402 158 424 188 q 353 109 381 128 q 301 80 326 90 q 256 65 276 69 q 228 61 236 61 q 167 76 196 61 q 115 115 138 90 q 80 174 93 140 q 67 247 67 208 q 75 313 67 281 q 92 374 83 346 q 110 425 101 403 q 118 461 118 447 q 117 468 118 464 q 117 476 117 472 q 122 489 117 485 q 140 501 133 497 q 154 506 146 506 q 182 501 164 506 q 207 496 200 496 q 223 496 214 496 q 242 497 232 496 q 264 500 253 499 q 314 494 282 500 q 377 469 346 488 q 431 418 408 451 q 453 331 453 385 m 235 126 q 301 142 272 126 q 351 186 331 158 q 381 251 371 214 q 390 328 390 288 q 379 381 390 358 q 351 417 368 403 q 311 437 333 431 q 268 443 289 443 q 219 439 240 443 q 175 435 199 435 q 164 401 171 422 q 150 358 157 381 q 138 313 143 335 q 133 275 133 292 q 137 228 133 254 q 151 179 140 201 q 183 142 163 157 q 235 126 203 126 z "},"1":{"ha":401,"x_min":58,"x_max":317,"o":"m 317 47 q 299 25 317 33 q 274 17 282 17 q 258 22 268 17 q 244 33 247 26 q 220 133 229 88 q 205 222 211 179 q 194 310 199 265 q 182 407 189 354 q 153 391 171 403 q 117 367 135 379 q 85 346 99 356 q 69 336 72 336 q 62 347 65 336 q 58 363 58 358 q 60 372 58 365 q 65 382 63 378 q 88 403 68 386 q 131 442 108 421 q 172 485 154 464 q 190 519 190 507 q 199 533 190 531 q 210 536 207 536 q 228 528 221 536 q 239 507 235 519 q 245 481 243 494 q 247 460 247 468 q 253 338 247 388 q 268 244 260 289 q 282 162 274 196 q 298 105 290 128 q 311 68 306 82 q 317 47 317 54 z "},"2":{"ha":510,"x_min":90,"x_max":432,"o":"m 432 94 q 419 71 432 79 q 397 63 406 63 q 378 67 385 63 q 365 76 372 71 q 345 86 357 82 q 311 90 333 90 q 262 76 283 90 q 222 47 240 63 q 185 17 203 31 q 147 3 167 3 q 117 19 124 3 q 110 63 110 36 q 128 103 110 68 q 170 182 146 139 q 217 265 194 225 q 247 319 239 304 q 271 363 256 335 q 302 419 286 390 q 329 469 318 447 q 340 494 340 490 q 336 507 340 504 q 328 510 332 510 q 285 499 318 510 q 216 475 253 488 q 147 451 179 463 q 106 440 114 440 q 97 447 104 440 q 92 456 94 451 q 90 464 90 460 q 123 488 90 469 q 201 524 156 506 q 295 558 247 543 q 374 572 343 572 q 406 561 392 572 q 419 531 419 550 q 404 474 419 510 q 365 394 389 438 q 315 306 342 351 q 264 222 288 260 q 224 156 240 183 q 206 122 207 129 q 231 133 215 128 q 262 142 246 138 q 292 149 278 146 q 315 151 307 151 q 346 149 326 151 q 385 140 365 146 q 418 122 404 133 q 432 94 432 111 z "},"3":{"ha":510,"x_min":82,"x_max":440,"o":"m 440 472 q 416 426 440 449 q 363 385 392 404 q 308 355 333 367 q 278 342 282 343 q 261 326 261 335 q 273 320 261 321 q 314 308 285 319 q 350 294 331 303 q 386 270 369 285 q 414 234 403 256 q 425 182 425 213 q 401 121 425 150 q 344 69 378 92 q 270 34 310 47 q 199 21 231 21 q 159 24 179 21 q 122 35 139 28 q 93 53 104 42 q 82 81 82 64 q 88 102 82 89 q 101 122 94 115 q 140 99 118 107 q 194 90 161 90 q 245 99 217 90 q 299 123 274 108 q 340 156 324 138 q 357 196 357 175 q 328 238 357 225 q 264 259 299 250 q 200 280 229 268 q 171 321 171 292 q 199 360 171 340 q 263 397 228 379 q 326 431 297 415 q 354 461 354 447 q 336 471 354 471 q 288 464 314 471 q 237 449 261 457 q 192 433 213 440 q 163 426 172 426 q 137 433 143 426 q 131 457 131 440 q 144 476 131 467 q 180 493 158 485 q 227 508 201 501 q 276 519 253 514 q 319 526 300 524 q 344 529 338 529 q 370 527 354 529 q 401 519 386 525 q 428 501 417 513 q 440 472 440 490 z "},"4":{"ha":550,"x_min":72,"x_max":485,"o":"m 485 269 q 477 253 485 263 q 461 240 469 243 q 422 232 443 232 q 383 230 401 232 q 353 220 365 228 q 342 190 342 213 q 344 158 342 183 q 351 98 347 132 q 357 25 354 64 q 360 -46 360 -14 q 358 -65 360 -54 q 353 -85 357 -75 q 342 -101 349 -94 q 322 -108 335 -108 q 305 -97 311 -108 q 295 -71 299 -85 q 291 -44 292 -57 q 290 -31 290 -32 q 290 -4 290 -29 q 288 56 289 21 q 287 131 288 92 q 285 201 286 171 q 278 215 285 215 q 258 213 274 215 q 226 211 242 211 q 195 213 219 211 q 143 222 171 214 q 94 244 115 229 q 72 286 72 258 q 88 328 72 306 q 126 374 103 350 q 176 420 150 397 q 226 464 203 443 q 265 501 250 485 q 281 529 281 518 l 281 578 q 287 588 281 585 q 297 590 293 590 q 317 580 310 590 q 329 555 325 569 q 335 526 333 540 q 336 506 336 513 q 337 444 336 468 q 339 399 338 419 q 341 358 340 379 q 342 303 342 336 q 353 289 342 289 q 370 292 357 289 q 399 299 383 296 q 429 306 415 303 q 449 310 443 310 q 474 299 464 310 q 485 269 485 288 m 283 358 q 283 403 283 381 q 276 436 282 425 q 213 371 240 400 q 169 322 189 346 q 149 290 149 297 q 190 282 167 283 q 232 281 214 281 q 258 281 243 281 q 283 285 272 282 l 283 358 z "},"5":{"ha":490,"x_min":63,"x_max":557,"o":"m 557 490 q 525 474 557 485 q 404 438 458 453 q 297 399 350 422 q 225 360 249 376 q 197 343 201 343 q 192 345 194 343 q 188 347 189 347 q 165 326 181 340 q 143 300 150 311 q 151 296 146 297 q 164 293 157 294 q 179 292 171 292 q 226 286 193 292 q 294 267 260 281 q 356 227 329 253 q 383 163 383 201 q 360 121 383 139 q 309 90 338 103 q 253 72 281 78 q 218 65 226 65 q 171 87 192 65 q 150 135 150 108 q 158 140 150 140 q 180 137 168 140 q 203 133 192 133 q 222 137 206 133 q 258 148 239 140 q 291 165 276 156 q 306 188 306 175 q 292 203 306 196 q 263 215 279 210 q 230 224 246 221 q 207 226 214 226 q 190 225 199 226 q 163 224 182 224 q 133 226 150 224 q 101 234 117 228 q 74 253 85 240 q 63 288 63 267 q 79 322 63 297 q 119 370 96 346 q 165 413 142 394 q 204 432 189 432 q 210 428 208 432 q 215 425 211 425 q 272 449 236 435 q 346 475 307 463 q 422 497 385 488 q 483 506 460 506 q 535 502 513 506 q 557 490 557 499 z "},"6":{"ha":422,"x_min":79,"x_max":339,"o":"m 339 196 q 326 137 339 168 q 293 78 313 106 q 251 32 274 50 q 211 14 229 14 q 168 28 192 14 q 133 63 144 42 q 128 69 131 69 q 117 63 122 69 q 107 57 113 57 q 99 66 104 57 q 90 87 94 75 q 83 110 86 99 q 79 126 79 121 q 83 144 79 131 q 86 161 86 157 l 86 231 q 98 349 86 283 q 131 474 110 415 q 182 572 153 532 q 247 611 211 611 q 282 601 271 611 q 293 582 293 590 q 286 569 293 574 q 272 560 279 565 q 220 500 243 536 q 181 422 197 464 q 156 337 165 381 q 147 254 147 293 q 166 270 154 261 q 192 288 178 279 q 221 302 206 296 q 249 308 236 308 q 294 298 276 308 q 322 272 311 288 q 335 235 332 256 q 339 196 339 215 m 281 204 q 253 243 281 243 q 220 231 238 243 q 188 203 203 219 q 163 171 172 188 q 153 146 153 154 q 158 128 153 139 q 171 108 164 118 q 186 91 178 99 q 201 83 194 83 q 229 97 215 83 q 255 130 243 111 q 274 169 267 149 q 281 204 281 190 z "},"7":{"ha":542,"x_min":25,"x_max":457,"o":"m 457 447 q 446 418 457 435 q 420 376 435 401 q 389 315 406 351 q 361 224 372 278 q 352 149 354 190 q 336 75 350 107 q 317 46 329 60 q 289 32 306 32 q 274 49 278 32 q 271 76 271 65 q 279 140 271 94 q 300 237 288 185 q 328 338 313 289 q 357 413 343 388 q 350 417 354 415 q 332 419 346 419 q 309 417 332 419 q 256 413 286 415 q 196 409 226 411 q 149 407 165 407 q 100 408 122 407 q 61 415 78 410 q 35 432 44 421 q 25 463 25 443 q 33 478 25 474 q 47 482 40 482 q 80 476 46 482 q 158 469 114 469 q 302 478 236 469 q 396 499 368 488 q 406 501 404 501 q 417 496 410 501 q 444 477 432 488 q 457 447 457 467 z "},"8":{"ha":578,"x_min":83,"x_max":574,"o":"m 574 506 q 553 464 574 488 q 502 416 533 440 q 434 368 471 392 q 365 324 397 344 q 308 291 332 304 q 279 274 285 278 q 299 238 289 261 q 319 189 310 215 q 334 138 328 163 q 340 94 340 113 q 331 53 340 72 q 307 22 322 35 q 273 1 292 8 q 236 -7 254 -7 q 179 0 207 -7 q 131 21 151 7 q 97 56 110 35 q 83 107 83 78 q 102 177 83 146 q 143 231 121 208 q 184 267 165 254 q 203 285 203 281 q 188 310 203 289 q 156 360 174 331 q 123 422 138 389 q 108 481 108 454 q 122 528 108 507 q 156 563 135 549 q 206 583 178 576 q 263 590 233 590 q 321 587 292 590 q 372 574 350 583 q 408 549 394 565 q 422 507 422 533 q 417 495 422 504 q 405 476 413 486 q 390 457 397 465 q 376 449 382 449 q 368 463 368 449 q 370 473 368 467 q 372 483 372 479 q 345 519 372 508 q 281 529 318 529 q 250 526 268 529 q 214 516 232 524 q 183 495 196 508 q 171 463 171 482 q 182 435 171 456 q 207 390 193 414 q 234 347 221 367 q 251 321 247 326 q 317 359 281 336 q 397 404 353 382 q 457 440 428 419 q 509 477 486 460 q 547 507 532 494 q 565 519 563 519 q 572 514 569 519 q 574 506 574 508 m 278 110 q 274 133 278 114 q 265 174 271 153 q 249 213 258 196 q 229 231 240 231 q 209 219 224 231 q 180 190 194 207 q 153 155 165 174 q 142 124 142 136 q 161 78 142 100 q 217 56 181 56 q 259 71 240 56 q 278 110 278 86 z "},"9":{"ha":556,"x_min":74,"x_max":481,"o":"m 481 471 q 469 426 481 456 q 441 347 457 396 q 408 226 425 297 q 383 57 392 154 q 381 28 382 39 q 380 8 381 17 q 379 -8 379 0 q 379 -25 379 -15 q 381 -40 379 -35 q 383 -51 383 -44 q 350 -83 383 -83 q 322 -68 335 -83 q 310 -35 308 -53 q 316 32 311 -17 q 328 139 321 81 q 346 254 336 197 q 367 346 356 311 q 332 329 351 338 q 290 315 313 321 q 247 304 268 308 q 210 300 226 300 q 113 340 151 300 q 74 442 74 381 q 90 506 74 478 q 130 552 106 533 q 182 581 154 571 q 233 590 210 590 q 326 571 290 590 q 385 485 361 551 q 387 477 386 482 q 388 471 388 472 q 385 460 388 465 q 383 450 383 456 q 386 440 383 449 q 412 471 401 449 q 438 511 422 493 q 447 507 440 511 q 462 497 454 503 q 475 483 469 490 q 481 471 481 476 m 351 414 q 347 445 351 426 q 330 481 342 464 q 299 510 318 499 q 250 522 279 522 q 208 515 229 522 q 171 497 188 508 q 144 470 154 486 q 133 436 133 454 q 158 383 133 396 q 219 369 183 369 q 260 374 238 369 q 303 384 283 378 q 338 398 324 390 q 351 414 351 406 z "},"!":{"ha":315,"x_min":72,"x_max":254,"o":"m 208 671 q 196 617 208 658 q 169 524 183 575 q 142 425 154 474 q 131 349 131 376 q 133 301 131 319 q 140 269 136 282 q 146 248 143 257 q 149 226 149 239 q 124 199 149 199 q 115 204 119 199 q 78 292 85 249 q 72 358 72 335 q 81 434 72 388 q 101 533 89 481 q 130 637 114 585 q 161 728 146 689 q 168 733 164 731 q 179 736 172 736 q 194 728 189 736 q 203 710 200 721 q 207 689 206 700 q 208 671 208 678 m 254 47 q 245 16 254 32 q 222 0 236 0 q 188 18 204 0 q 172 60 172 36 q 176 81 172 68 q 193 94 179 94 q 208 93 199 94 q 228 87 218 92 q 247 72 239 82 q 254 47 254 63 z "},"\"":{"ha":324,"x_min":68,"x_max":282,"o":"m 282 456 q 275 438 282 450 q 261 426 268 426 q 233 451 244 426 q 213 506 221 475 q 203 567 206 538 q 200 606 200 596 q 209 625 200 618 q 244 632 218 632 q 266 610 258 632 q 277 560 274 589 q 281 501 281 531 q 282 456 282 472 m 147 443 q 145 428 147 438 q 139 409 143 418 q 129 393 135 400 q 118 386 124 386 q 94 407 104 386 q 79 457 85 428 q 71 516 74 486 q 68 563 68 546 q 77 627 68 611 q 107 643 86 643 q 129 627 125 643 q 133 599 133 611 q 135 563 133 583 q 140 521 138 543 q 145 478 143 499 q 147 443 147 457 z "},"#":{"ha":882,"x_min":0,"x_max":824,"o":"m 824 767 q 817 743 824 763 q 800 701 810 724 q 782 657 790 678 q 771 628 774 636 q 794 624 782 628 q 806 611 806 619 q 803 602 806 606 q 790 596 801 599 q 775 592 782 593 q 763 587 768 590 q 753 577 757 583 q 746 558 750 571 q 717 466 735 518 q 682 358 700 414 q 713 369 697 363 q 747 376 728 376 q 760 374 753 376 q 768 360 768 371 q 759 343 768 349 q 737 333 750 338 q 708 326 724 329 q 679 314 693 322 q 670 305 674 311 q 664 292 667 299 q 651 237 658 274 q 633 163 644 200 q 607 99 622 126 q 569 71 592 71 q 554 78 557 71 q 551 93 551 86 q 556 124 551 101 q 567 175 561 146 q 581 235 574 204 q 594 290 589 265 q 560 286 579 290 q 522 276 542 282 q 485 265 503 271 q 453 253 467 258 q 426 161 436 208 q 388 72 415 114 q 374 67 383 67 q 359 76 365 67 q 353 107 353 86 q 357 138 353 119 q 366 173 361 156 q 375 203 371 190 q 379 217 379 215 q 371 224 379 224 q 319 210 356 224 q 238 179 283 196 q 146 149 193 163 q 61 135 99 135 q 48 136 58 135 q 27 141 38 138 q 8 149 17 144 q 0 160 0 153 q 7 178 0 171 q 25 186 14 186 q 104 195 57 186 q 201 218 151 204 q 298 249 251 232 q 376 282 344 265 q 392 296 388 289 q 401 317 397 303 l 463 517 q 396 492 443 514 q 294 442 349 471 q 190 386 240 414 q 113 342 139 358 q 97 360 101 350 q 93 381 93 371 q 110 403 93 389 q 153 433 126 417 q 213 465 179 449 q 277 497 246 482 q 335 524 308 513 q 378 540 363 535 q 426 551 397 547 q 478 567 454 556 q 493 581 488 571 q 503 604 499 592 q 515 618 506 613 q 531 624 524 624 q 553 608 553 624 q 576 592 553 592 q 629 599 604 592 q 664 608 654 606 q 689 618 681 613 q 704 635 697 624 q 724 681 715 654 q 744 731 733 707 q 766 771 754 754 q 794 788 778 788 q 815 781 806 788 q 824 767 824 775 m 682 569 q 608 552 646 561 q 535 533 569 543 q 494 423 513 479 q 465 308 476 367 l 610 342 q 628 392 618 364 q 647 451 638 421 q 666 513 657 482 q 682 569 675 543 z "},"$":{"ha":511,"x_min":69,"x_max":532,"o":"m 532 808 q 524 785 532 806 q 504 737 517 765 q 478 676 492 708 q 453 615 465 643 q 433 567 440 586 q 425 547 425 549 q 431 535 425 542 q 445 519 438 528 q 459 499 453 511 q 465 472 465 488 q 459 454 465 464 q 440 439 453 444 q 424 460 438 446 q 401 481 410 475 q 379 434 394 469 q 348 359 364 399 q 319 288 332 319 q 304 251 306 256 q 335 221 319 236 q 364 189 351 206 q 385 153 376 172 q 393 107 393 133 q 355 38 393 63 q 269 13 317 13 q 253 15 264 13 q 231 21 242 18 q 213 26 221 24 q 204 29 204 29 q 182 1 194 29 q 156 -60 169 -26 q 127 -122 142 -94 q 99 -150 113 -150 q 82 -135 88 -150 q 76 -119 76 -121 q 86 -74 76 -100 q 108 -24 96 -49 q 131 21 121 0 q 140 50 140 42 q 129 62 140 54 q 105 80 118 69 q 81 103 92 90 q 69 132 69 117 q 79 160 69 143 q 104 176 89 176 q 114 171 108 176 q 119 161 119 165 q 116 153 119 157 q 113 144 113 149 q 119 133 113 140 q 133 118 125 125 q 149 106 142 111 q 161 100 157 100 q 178 121 167 100 q 200 166 189 142 q 219 211 211 190 q 226 232 226 232 q 213 240 224 233 q 191 253 203 246 q 167 269 179 261 q 150 283 156 278 q 138 302 143 290 q 130 326 133 314 q 124 348 126 338 q 122 364 122 358 q 146 424 122 390 q 204 488 169 458 q 277 538 239 518 q 343 558 315 558 q 360 556 349 558 q 394 640 376 590 q 431 733 413 689 q 469 810 450 778 q 507 842 488 842 q 532 808 532 842 m 336 488 q 301 474 325 486 q 251 444 276 463 q 208 403 226 426 q 189 354 189 379 q 194 336 189 347 q 206 314 199 325 q 224 294 214 303 q 244 286 233 286 q 263 317 249 286 q 294 385 278 347 q 323 454 310 422 q 336 488 336 486 m 321 108 q 324 122 324 117 q 317 149 324 135 q 304 174 311 163 q 291 192 297 185 q 283 200 285 200 q 252 142 267 172 q 222 82 238 113 q 241 75 229 78 q 258 72 253 72 q 297 83 279 72 q 321 108 315 93 z "},"%":{"ha":869,"x_min":76,"x_max":797,"o":"m 797 278 q 788 219 797 257 q 762 145 779 182 q 717 81 744 108 q 654 54 690 54 q 619 58 638 54 q 584 69 600 61 q 558 92 568 78 q 549 129 549 107 q 556 160 549 142 q 574 194 563 178 q 599 221 585 210 q 629 232 614 232 q 649 224 638 232 q 660 208 660 217 q 653 189 660 199 q 640 169 647 179 q 627 150 633 160 q 621 129 621 140 q 626 118 621 122 q 633 114 631 114 q 672 131 654 114 q 705 169 690 147 q 728 215 719 192 q 736 250 736 238 q 728 257 736 257 q 713 251 724 257 q 693 246 703 246 q 674 257 681 246 q 667 272 667 268 q 672 286 667 278 q 686 303 678 294 q 703 317 694 311 q 718 322 711 322 q 740 321 726 322 q 767 315 754 319 q 788 301 779 310 q 797 278 797 292 m 790 876 q 693 728 746 804 q 597 572 640 651 q 569 521 590 560 q 523 431 549 482 q 469 325 497 381 q 416 222 440 269 q 376 141 392 174 q 361 104 361 108 l 325 29 q 301 -24 311 1 q 290 -50 290 -49 q 274 -93 281 -74 q 262 -126 267 -110 q 257 -150 257 -143 q 262 -167 257 -154 q 267 -185 267 -181 q 253 -213 267 -200 q 232 -226 239 -226 q 195 -207 206 -226 q 185 -168 185 -187 q 208 -78 185 -139 q 265 60 231 -17 q 342 219 300 136 q 422 376 383 301 q 489 506 460 450 q 528 585 518 563 q 511 581 528 586 q 472 570 494 576 q 424 558 449 564 q 386 553 400 553 q 343 558 363 553 q 306 569 324 563 q 269 580 288 575 q 233 586 251 585 q 223 576 231 586 q 204 555 215 567 q 178 533 193 543 q 144 524 163 524 q 92 540 108 524 q 76 576 76 557 q 88 624 76 599 q 119 672 100 650 q 160 707 138 693 q 207 721 183 721 q 238 710 219 721 q 257 688 257 699 q 251 676 257 686 q 236 664 244 667 q 253 656 238 664 q 292 640 269 649 q 340 623 315 631 q 383 615 364 615 q 490 638 444 615 q 571 694 536 660 q 631 767 606 728 q 675 841 656 807 q 710 897 694 875 q 743 919 726 919 q 774 908 758 919 q 790 876 790 897 m 192 651 q 159 636 176 651 q 142 597 142 621 q 147 592 142 592 q 159 601 151 592 q 174 621 167 610 q 187 642 182 632 q 192 651 192 651 z "},"&":{"ha":454,"x_min":68,"x_max":393,"o":"m 385 832 q 378 801 385 826 q 361 742 371 775 q 340 673 351 708 q 319 614 328 638 q 314 599 317 607 q 300 590 311 590 q 286 597 292 590 q 278 612 281 603 q 274 630 275 621 q 274 644 274 639 q 282 688 274 654 q 303 757 290 721 q 331 822 315 793 q 361 850 346 850 q 378 844 371 850 q 385 832 385 839 m 393 250 q 369 218 393 225 q 326 202 353 214 q 272 178 300 190 q 217 158 243 167 q 172 149 190 149 q 122 158 142 149 q 103 186 103 168 q 111 226 103 210 q 129 254 119 242 q 119 258 129 256 q 99 267 110 261 q 78 279 88 272 q 68 296 68 286 q 95 353 68 321 q 156 414 122 385 q 222 464 190 443 q 260 488 253 485 q 288 499 271 493 q 311 506 304 506 q 329 486 329 506 q 326 463 329 475 q 313 451 324 451 q 300 453 304 451 q 293 456 296 456 q 272 449 285 456 q 249 436 258 443 q 219 412 236 426 q 186 382 203 397 q 156 351 169 367 q 133 321 142 335 q 144 317 136 319 q 156 315 151 315 q 169 321 161 315 q 187 333 178 326 q 206 344 196 339 q 225 350 217 350 q 247 341 240 350 q 254 328 254 332 q 233 283 254 304 q 193 251 213 263 q 189 236 189 240 q 203 224 189 224 q 233 233 213 224 q 277 252 253 242 q 324 272 301 263 q 364 281 347 281 q 385 269 378 281 q 393 250 393 258 m 213 -99 q 206 -164 213 -124 q 192 -242 199 -204 q 172 -333 183 -286 q 159 -347 169 -340 q 135 -353 149 -353 q 122 -347 126 -353 q 116 -334 118 -342 q 114 -319 114 -326 q 114 -310 114 -312 q 119 -260 114 -287 q 131 -203 124 -233 q 144 -143 138 -174 q 156 -82 151 -112 q 163 -46 157 -67 q 188 -25 169 -25 q 209 -47 206 -25 q 213 -99 213 -68 z "},"'":{"ha":254,"x_min":74,"x_max":183,"o":"m 183 769 q 176 728 183 751 q 158 678 168 706 q 141 622 149 651 q 133 558 133 592 q 128 497 133 511 q 117 482 122 482 q 93 492 101 482 q 81 515 85 501 q 75 544 76 529 q 74 568 74 558 q 77 588 74 571 q 86 631 81 606 q 100 684 92 656 q 118 737 108 713 q 140 777 128 761 q 165 793 151 793 q 178 783 174 793 q 183 769 183 772 z "},"(":{"ha":331,"x_min":74,"x_max":283,"o":"m 246 665 q 267 663 250 665 q 283 653 283 660 q 276 643 283 650 q 267 633 269 636 q 213 560 239 606 q 168 466 188 515 q 137 369 149 417 q 125 286 125 321 q 133 213 125 250 q 153 144 140 175 q 184 94 167 114 q 221 75 201 75 q 231 80 225 75 q 242 86 236 85 q 252 76 249 86 q 256 57 256 67 q 247 44 256 50 q 228 35 239 39 q 208 28 218 31 q 194 26 197 26 q 154 42 175 26 q 115 90 133 58 q 85 167 97 121 q 74 275 74 214 q 92 417 74 347 q 138 542 111 488 q 194 631 165 597 q 246 665 224 665 z "},")":{"ha":397,"x_min":58,"x_max":329,"o":"m 329 319 q 303 192 329 249 q 241 95 278 135 q 163 35 204 56 q 89 14 121 14 q 68 17 78 14 q 58 33 58 19 q 60 45 58 38 q 67 58 63 53 q 81 56 71 56 q 131 76 100 56 q 190 134 161 96 q 239 229 218 172 q 260 360 260 286 q 253 420 260 388 q 236 483 246 453 q 216 538 226 514 q 197 571 206 561 q 193 581 193 575 q 203 598 193 588 q 224 608 213 608 q 251 591 233 608 q 287 538 269 574 q 317 449 304 503 q 329 319 329 394 z "},"*":{"ha":474,"x_min":46,"x_max":456,"o":"m 456 617 q 439 594 456 610 q 401 560 422 578 q 362 526 381 542 q 339 504 343 510 q 360 502 347 503 q 384 499 372 501 q 403 492 396 497 q 411 478 411 488 q 398 466 411 471 q 381 461 385 461 q 347 460 361 461 q 321 458 333 460 q 296 452 308 456 q 268 444 283 449 l 268 432 q 284 406 268 419 q 320 380 300 393 q 356 353 340 367 q 372 328 372 340 q 368 318 372 324 q 358 313 364 313 q 328 322 349 313 q 285 346 307 332 q 244 374 263 360 q 219 396 225 388 q 176 351 193 381 q 139 294 158 321 q 112 300 122 294 q 101 321 101 306 q 125 376 101 349 q 168 429 149 404 q 132 432 154 429 q 99 436 110 435 q 65 451 83 438 q 46 482 46 465 q 55 493 46 489 q 74 497 64 497 q 105 492 85 497 q 157 486 125 486 q 169 490 167 486 q 158 522 164 500 q 151 572 151 543 q 165 595 151 589 q 183 601 178 601 q 203 588 196 601 q 217 558 211 575 q 228 523 222 540 q 243 497 235 506 q 271 523 246 500 q 327 572 296 546 q 386 620 358 599 q 421 642 414 642 q 443 631 431 642 q 456 617 456 621 z "},"+":{"ha":447,"x_min":79,"x_max":419,"o":"m 419 351 q 412 341 419 347 q 393 329 404 335 q 369 319 382 324 q 344 313 356 314 q 296 306 321 307 q 249 300 271 304 q 260 196 260 247 q 247 113 260 143 q 214 82 233 82 q 199 92 206 82 q 193 119 193 103 q 197 137 193 124 q 200 163 200 150 q 199 181 200 165 q 195 217 197 197 q 191 258 193 238 q 188 288 189 278 q 153 285 174 288 q 128 283 132 283 q 94 289 108 283 q 79 317 79 294 q 90 333 79 329 q 100 329 94 329 q 113 331 101 329 q 138 336 125 333 q 162 342 151 339 q 172 349 172 346 q 167 376 172 351 q 156 431 163 401 q 145 490 150 461 q 140 531 140 519 q 141 539 140 532 q 144 553 142 546 q 150 565 146 560 q 163 571 154 571 q 193 554 189 571 q 210 469 204 507 q 222 403 217 431 q 231 362 226 376 q 247 347 236 347 q 310 356 281 351 q 357 361 333 358 q 388 364 381 364 q 405 361 390 364 q 419 351 419 358 z "},",":{"ha":247,"x_min":31,"x_max":183,"o":"m 183 44 q 172 0 183 29 q 142 -58 160 -29 q 101 -109 124 -87 q 57 -131 78 -131 q 38 -122 46 -131 q 31 -108 31 -112 q 44 -91 31 -107 q 74 -53 57 -75 q 103 -4 90 -31 q 117 47 117 22 q 110 87 117 74 q 97 109 104 100 q 84 126 90 118 q 78 149 78 133 q 100 169 78 169 q 138 155 122 169 q 163 120 153 140 q 178 79 174 100 q 183 44 183 58 z "},"-":{"ha":356,"x_min":67,"x_max":293,"o":"m 293 311 q 270 284 293 297 q 218 261 247 271 q 163 245 189 251 q 129 239 136 239 q 95 242 104 239 q 79 260 86 244 q 71 273 75 265 q 67 285 67 281 q 69 292 67 290 q 79 293 71 293 q 124 300 94 293 q 184 315 154 307 q 239 331 214 324 q 269 338 264 338 q 285 327 276 338 q 293 311 293 317 z "},".":{"ha":193,"x_min":53,"x_max":144,"o":"m 144 89 q 136 73 144 81 q 117 59 128 65 q 97 49 107 53 q 86 46 88 46 q 67 52 74 46 q 58 66 61 58 q 53 81 54 74 q 53 90 53 88 q 56 105 53 96 q 64 122 58 114 q 77 137 69 131 q 94 143 85 143 q 128 128 113 143 q 144 89 144 113 z "},"/":{"ha":426,"x_min":39,"x_max":356,"o":"m 347 671 q 356 654 356 668 q 355 649 356 651 q 354 646 354 647 l 354 643 q 294 467 322 564 q 232 271 265 369 q 159 79 199 172 q 67 -83 119 -14 q 53 -99 56 -99 q 44 -84 49 -99 q 39 -67 39 -69 q 78 35 39 -64 q 117 140 96 81 q 162 265 139 200 q 206 395 185 331 q 247 515 228 460 q 271 578 258 549 q 294 631 283 608 q 315 665 306 653 q 329 678 324 678 q 337 676 332 678 q 347 671 342 674 z "},":":{"ha":271,"x_min":83,"x_max":196,"o":"m 156 215 q 170 207 163 215 q 183 188 178 199 q 192 163 189 176 q 196 142 196 150 q 181 115 196 126 q 131 104 167 104 q 108 111 119 104 q 96 132 96 118 q 102 149 96 136 q 117 177 108 163 q 137 203 126 192 q 156 215 147 215 m 175 388 q 167 372 175 379 q 148 358 158 364 q 128 348 138 351 q 117 344 118 344 q 98 351 104 344 q 88 365 92 357 q 84 379 85 372 q 83 389 83 386 q 86 403 83 394 q 94 421 89 413 q 108 435 100 429 q 125 442 115 442 q 159 426 143 442 q 175 388 175 411 z "},";":{"ha":274,"x_min":6,"x_max":194,"o":"m 194 89 q 186 24 194 58 q 160 -41 178 -11 q 113 -91 142 -71 q 40 -111 83 -111 q 16 -103 26 -111 q 6 -79 6 -96 q 16 -58 6 -64 q 38 -51 26 -51 q 42 -53 43 -51 q 46 -56 42 -56 q 97 -26 83 -56 q 118 40 111 4 q 132 106 125 76 q 163 136 139 136 q 188 117 182 136 q 194 89 194 99 m 164 363 q 156 347 164 354 q 137 333 147 339 q 117 323 126 326 q 106 319 107 319 q 87 326 93 319 q 77 340 81 332 q 73 354 74 347 q 72 364 72 361 q 75 378 72 369 q 83 396 78 388 q 97 410 89 404 q 114 417 104 417 q 148 401 132 417 q 164 363 164 386 z "},"<":{"ha":649,"x_min":72,"x_max":636,"o":"m 636 114 q 627 98 636 107 q 604 89 618 89 q 591 88 600 89 q 578 86 582 86 q 448 99 517 86 q 300 111 379 111 q 293 111 297 111 q 281 110 289 111 q 258 110 272 110 q 219 110 243 110 q 187 113 211 110 q 138 124 163 117 q 92 144 113 132 q 72 175 72 157 q 83 203 72 188 q 113 238 94 218 q 155 281 132 258 q 203 332 178 304 q 235 372 213 342 q 285 434 258 403 q 336 490 311 465 q 376 515 361 515 q 390 509 383 515 q 396 496 396 503 q 390 481 396 486 q 342 404 371 444 q 281 324 313 364 q 216 249 249 285 q 157 188 183 214 q 169 183 158 186 q 194 178 181 181 q 219 174 207 176 q 236 172 232 172 q 334 164 247 172 q 576 144 421 156 q 590 148 581 144 q 604 151 600 151 q 628 137 619 151 q 636 114 636 122 z "},"=":{"ha":539,"x_min":68,"x_max":479,"o":"m 479 392 q 467 375 479 381 q 447 369 454 369 q 411 367 439 369 q 346 359 383 364 q 268 349 308 354 q 193 338 228 343 q 135 331 158 333 q 111 328 113 328 q 98 335 104 328 q 92 350 92 342 q 96 362 92 357 q 103 369 100 367 q 163 388 113 375 q 325 410 213 401 q 367 412 351 411 q 397 413 383 413 q 423 414 410 414 q 457 417 436 414 q 472 407 464 417 q 479 392 479 397 m 443 257 q 419 240 443 250 q 359 218 396 229 q 280 195 322 207 q 200 174 238 183 q 136 158 163 164 q 106 153 110 153 q 75 162 82 153 q 68 192 68 171 q 72 212 68 207 q 82 217 76 217 q 94 213 89 217 q 104 208 99 208 q 130 213 108 208 q 181 225 151 218 q 246 241 211 232 q 312 257 281 250 q 367 269 343 264 q 399 274 390 274 q 428 271 414 274 q 443 257 443 268 z "},">":{"ha":642,"x_min":76,"x_max":583,"o":"m 565 210 q 550 179 583 193 q 432 150 517 165 q 333 128 383 142 q 238 103 283 115 q 157 81 193 90 q 103 72 121 72 q 82 82 88 72 q 76 99 76 92 q 100 120 76 108 q 160 143 124 132 q 241 165 196 154 q 329 185 286 176 q 408 201 372 194 q 463 211 443 208 q 299 367 376 282 q 143 522 221 451 q 133 540 138 526 q 129 560 129 554 q 135 575 129 568 q 153 585 142 582 q 178 567 158 585 q 224 525 199 550 q 275 474 249 500 q 321 429 301 447 l 565 210 z "},"?":{"ha":544,"x_min":89,"x_max":489,"o":"m 489 600 q 468 548 489 575 q 417 492 447 521 q 350 435 386 464 q 283 377 314 406 q 232 322 253 349 q 211 274 211 296 q 215 241 211 258 q 225 213 218 224 q 211 193 218 200 q 193 186 204 186 q 176 194 183 186 q 163 215 168 203 q 153 242 157 228 q 150 267 150 256 q 158 320 150 299 q 184 360 167 342 q 226 399 201 379 q 285 443 251 418 q 335 485 310 463 q 381 528 361 507 q 415 570 401 550 q 428 607 428 590 q 416 635 428 621 q 385 659 404 649 q 339 676 365 669 q 283 682 313 682 q 181 672 218 682 q 122 663 144 663 q 100 669 111 663 q 89 688 89 675 q 114 715 89 704 q 172 732 139 726 q 234 740 204 738 q 274 742 264 742 q 356 729 317 742 q 424 697 394 717 q 472 652 454 678 q 489 600 489 626 m 307 8 q 290 -17 307 -8 q 260 -26 274 -26 q 231 -13 247 -26 q 214 13 214 0 q 215 24 214 17 q 219 40 215 32 q 228 55 222 49 q 243 61 233 61 q 258 55 247 61 q 279 40 268 49 q 299 23 290 32 q 307 8 307 14 z "},"@":{"ha":739,"x_min":61,"x_max":692,"o":"m 692 346 q 670 292 692 322 q 619 235 649 263 q 558 190 590 208 q 506 171 526 171 q 481 176 496 171 q 452 190 467 182 q 423 209 438 199 q 399 228 408 219 q 384 208 393 219 q 365 187 375 197 q 343 169 354 176 q 322 163 332 163 q 285 186 299 163 q 272 229 272 210 q 288 295 272 257 q 324 369 303 333 q 367 429 344 404 q 406 454 390 454 q 426 447 417 454 q 436 429 436 439 q 428 419 436 425 q 417 408 421 413 q 389 374 404 396 q 360 329 374 353 q 338 283 347 306 q 328 249 328 261 q 328 239 328 244 q 332 231 329 233 q 351 253 343 235 q 365 293 358 272 q 380 331 372 314 q 397 347 388 347 q 421 339 411 347 q 436 319 431 331 q 444 296 442 307 q 446 279 446 285 q 452 264 446 272 q 467 247 458 256 q 484 233 475 239 q 499 228 493 228 q 549 240 524 228 q 597 270 574 251 q 640 313 619 289 q 678 361 661 338 q 686 356 681 360 q 692 346 692 351 m 672 610 q 669 604 672 604 q 664 607 667 604 q 617 631 649 618 q 536 644 585 644 q 458 626 503 644 q 366 576 414 608 q 272 499 318 543 q 190 403 226 456 q 131 294 153 351 q 108 176 108 236 q 117 106 108 144 q 144 35 125 68 q 198 -21 164 1 q 285 -43 232 -43 q 349 -35 319 -43 q 399 -19 378 -28 q 435 -3 421 -11 q 454 4 449 4 q 464 -7 464 4 q 446 -42 464 -26 q 401 -68 428 -57 q 342 -85 374 -79 q 286 -92 311 -92 q 206 -77 246 -92 q 133 -30 165 -62 q 81 53 101 3 q 61 176 61 104 q 85 317 61 250 q 150 442 110 385 q 241 547 190 500 q 344 626 292 593 q 445 676 396 658 q 531 694 494 694 q 581 690 556 694 q 627 678 607 686 q 660 659 647 669 q 672 636 672 649 l 672 610 z "},"A":{"ha":564,"x_min":76,"x_max":493,"o":"m 492 -61 q 493 -72 493 -67 q 493 -79 493 -76 q 487 -99 493 -93 q 463 -104 481 -104 q 440 -99 446 -104 q 418 -56 432 -90 q 389 26 404 -21 q 359 128 374 74 q 333 231 344 182 q 292 216 318 224 q 238 201 265 208 q 171 186 206 194 q 152 84 158 126 q 141 15 146 42 q 128 -26 136 -12 q 104 -39 121 -39 q 85 -26 93 -39 q 76 11 76 -14 q 83 69 76 24 q 99 172 90 115 q 115 283 107 228 q 126 371 124 339 q 135 425 128 388 q 151 502 143 463 q 168 574 160 542 q 179 610 176 606 q 208 715 201 661 q 217 815 214 769 q 229 888 221 860 q 264 917 238 917 q 278 906 271 917 q 293 879 286 894 q 304 849 300 864 q 310 826 308 835 q 313 793 311 818 q 317 738 315 768 q 322 680 319 708 q 325 636 324 651 q 338 533 329 590 q 357 426 347 476 q 375 342 367 376 q 388 308 383 308 q 402 311 393 308 q 419 314 411 314 q 431 303 431 314 q 425 285 431 292 q 413 272 419 278 q 402 263 407 267 q 397 253 397 258 q 410 196 397 242 l 432 114 q 444 76 435 103 q 465 22 454 50 q 483 -31 475 -7 q 492 -61 492 -56 m 183 257 q 214 262 192 257 q 260 274 236 267 q 301 288 283 281 q 319 299 319 294 q 315 320 319 303 q 303 365 310 338 q 290 426 297 392 q 278 500 283 461 q 271 568 275 525 q 263 653 267 611 q 256 726 258 696 q 253 757 253 757 q 249 737 253 757 q 240 692 244 717 q 231 647 235 668 q 228 622 228 625 l 228 583 q 224 559 228 581 q 215 505 221 538 q 203 434 210 472 q 192 361 197 396 q 183 299 186 326 q 179 263 179 272 q 183 257 179 257 z "},"B":{"ha":785,"x_min":-29,"x_max":717,"o":"m 717 418 q 700 347 717 382 q 658 282 683 313 q 604 226 633 251 q 551 182 575 200 q 493 140 526 163 q 428 99 460 118 q 374 63 397 79 q 344 42 350 47 l 304 10 q 288 3 297 4 q 274 1 279 1 q 258 12 264 1 q 253 33 253 22 q 269 63 253 42 q 306 100 285 85 q 357 131 326 115 q 440 179 388 146 q 504 223 467 196 q 575 281 542 250 q 632 347 608 313 q 656 413 656 381 q 626 438 656 425 q 542 451 596 451 q 425 435 486 451 q 312 399 364 418 q 222 363 260 379 q 176 346 185 346 q 187 267 181 314 q 200 178 193 221 q 215 74 207 128 l 221 74 q 232 33 224 60 q 240 -8 240 7 q 224 -31 240 -31 q 205 -15 215 -31 q 184 21 194 0 q 166 62 174 42 q 156 90 158 82 q 131 196 143 136 q 110 316 119 256 q 97 430 101 376 q 92 518 92 483 q 97 535 92 528 q 101 549 101 542 q 98 559 101 556 q 94 571 94 563 q 97 580 94 575 q 108 585 99 585 q 127 582 118 582 q 143 578 136 582 q 154 567 150 575 q 158 540 158 558 l 158 532 q 158 526 158 529 q 157 519 157 522 q 158 482 157 496 q 163 468 160 468 q 192 488 167 468 q 254 539 218 508 q 333 607 290 569 q 414 679 375 644 q 456 719 429 693 q 508 774 482 744 q 552 828 533 803 q 571 868 571 854 q 563 882 571 882 q 515 872 551 882 q 433 847 479 863 q 339 810 388 831 q 253 767 290 789 q 175 708 214 740 q 105 648 136 676 q 53 599 74 619 q 32 576 33 579 q 29 571 29 574 q 31 563 29 568 q 33 556 33 558 q 28 549 33 551 q 15 546 22 546 q -12 551 4 546 q -29 578 -29 556 q -7 626 -29 597 q 51 689 15 656 q 129 755 86 722 q 214 815 172 788 q 305 866 256 842 q 402 908 354 890 q 493 937 450 926 q 564 947 536 947 q 589 944 575 947 q 615 936 603 942 q 636 922 628 931 q 644 900 644 913 q 622 823 644 863 q 564 743 600 783 q 483 662 528 703 q 392 583 438 621 q 306 509 347 544 q 236 444 264 474 q 286 463 251 450 q 362 490 321 476 q 444 513 403 503 q 518 522 486 522 q 560 521 528 522 q 626 510 592 519 q 689 478 661 500 q 717 418 717 457 z "},"C":{"ha":725,"x_min":65,"x_max":663,"o":"m 663 318 q 652 278 663 299 q 626 236 642 257 q 593 197 611 215 q 560 164 575 178 q 483 101 522 131 q 401 47 443 71 q 313 10 358 24 q 217 -4 267 -4 q 65 151 65 -4 q 78 211 65 167 q 110 313 90 256 q 156 432 129 369 q 210 547 182 494 q 265 632 238 599 q 315 665 292 665 q 338 656 331 665 q 346 635 346 646 q 326 599 344 626 q 289 544 308 572 q 279 531 286 540 q 265 511 272 521 q 249 488 257 500 q 224 438 243 478 q 185 347 206 399 q 147 238 164 294 q 131 140 131 182 q 141 103 131 117 q 166 82 151 89 q 197 73 181 75 q 225 71 213 71 q 334 94 276 71 q 444 154 392 117 q 542 241 497 192 q 611 343 586 290 q 623 356 617 353 q 635 358 629 358 q 654 343 646 358 q 663 318 663 328 z "},"D":{"ha":622,"x_min":-197,"x_max":561,"o":"m 561 417 q 544 326 561 369 q 497 243 528 283 q 426 165 467 203 q 336 90 385 126 q 217 15 285 51 q 80 -49 149 -21 q -50 -94 11 -78 q -149 -111 -111 -111 q -185 -105 -174 -111 q -197 -76 -197 -99 q -186 -40 -197 -61 q -164 -19 -175 -19 q -148 -26 -153 -19 q -143 -42 -143 -33 q -144 -49 -143 -46 q -144 -53 -144 -51 l -144 -56 q -3 -23 -92 -50 q 207 71 85 4 q 311 140 260 100 q 403 224 363 179 q 469 319 444 269 q 494 415 494 368 q 460 484 494 449 q 374 551 426 519 q 261 605 322 582 q 147 636 200 628 q 151 602 149 629 q 160 539 154 575 q 173 462 165 503 q 190 386 181 421 q 205 328 201 347 q 210 297 208 310 q 215 262 211 283 q 220 217 218 240 q 224 174 222 194 q 226 143 226 154 q 222 117 226 131 q 210 103 217 103 q 187 115 193 103 q 176 155 181 126 q 164 229 171 183 q 138 342 157 275 q 99 517 110 435 q 85 649 88 600 q 78 649 85 649 q 62 650 72 650 q 38 651 51 650 q 14 651 25 651 q -29 642 -10 651 q -62 622 -49 633 q -84 602 -75 611 q -96 593 -93 593 q -123 598 -106 593 q -140 617 -140 603 q -123 653 -140 635 q -81 687 -106 672 q -26 710 -56 701 q 28 719 3 719 q 125 708 69 719 q 240 678 181 697 q 356 631 299 658 q 460 569 414 603 q 533 497 506 536 q 561 417 561 458 z "},"E":{"ha":513,"x_min":39,"x_max":465,"o":"m 460 490 q 463 487 461 488 q 464 483 464 486 q 429 452 464 475 q 343 401 394 429 q 235 344 292 372 q 133 297 178 315 q 131 279 133 294 q 128 260 128 264 l 128 233 q 138 170 128 201 q 167 114 147 139 q 217 74 188 89 q 285 58 246 58 q 326 65 301 58 q 373 83 350 71 q 414 111 396 94 q 436 149 432 128 q 456 139 453 147 q 460 128 460 131 q 442 66 460 92 q 399 24 425 40 q 345 1 374 8 q 294 -7 317 -7 q 121 60 175 -7 q 67 235 67 126 q 69 260 67 240 q 72 286 72 279 q 67 290 72 288 q 55 294 61 292 q 44 303 49 297 q 39 321 39 310 q 47 339 39 332 q 67 351 56 346 l 81 360 q 110 462 93 413 q 154 561 128 511 q 131 564 143 561 q 118 583 118 567 q 141 626 118 603 q 194 671 164 650 q 253 706 224 692 q 294 721 282 721 q 302 719 300 721 q 310 717 304 717 q 338 721 321 717 q 375 731 356 725 q 412 740 394 736 q 440 744 429 744 q 459 736 453 744 q 465 718 465 728 q 451 702 465 707 q 426 694 438 697 q 345 670 388 688 q 267 632 303 653 q 233 588 253 617 q 196 524 214 560 q 163 449 178 488 q 144 375 149 410 l 168 386 q 342 467 275 438 q 447 496 410 496 q 460 490 454 496 z "},"F":{"ha":467,"x_min":57,"x_max":494,"o":"m 494 746 q 490 738 494 740 q 482 732 486 735 q 469 728 476 729 q 450 729 458 728 q 431 731 442 731 q 370 713 415 731 q 276 669 325 696 q 190 614 228 643 q 150 563 151 585 l 167 468 q 178 403 174 432 q 185 374 183 374 q 203 385 188 375 q 243 409 219 396 q 295 438 267 422 q 350 465 324 453 q 399 486 376 478 q 433 494 421 494 q 451 490 443 494 q 458 475 458 486 q 439 451 458 467 q 390 418 419 436 q 327 380 361 400 q 264 342 293 360 q 215 310 235 325 q 196 289 196 296 q 201 245 196 282 q 215 164 206 208 q 235 78 224 119 q 261 19 247 36 q 264 11 264 17 q 253 -8 264 3 q 233 -18 242 -18 q 210 3 222 -18 q 189 56 199 24 q 170 124 179 88 q 155 192 161 160 q 144 244 149 224 q 139 265 140 265 q 119 260 135 265 q 88 256 104 256 q 66 266 75 256 q 57 288 57 276 q 64 307 57 299 q 81 322 71 315 q 101 335 90 329 q 121 346 113 340 l 82 611 q 86 634 82 622 q 104 646 90 646 q 113 640 107 646 q 121 633 118 633 q 157 662 125 636 q 235 717 189 688 q 335 772 282 747 q 435 796 389 796 q 474 781 453 796 q 494 746 494 765 z "},"G":{"ha":653,"x_min":64,"x_max":610,"o":"m 610 325 q 606 272 610 297 q 591 222 603 247 q 558 167 579 196 q 504 100 538 138 q 410 21 464 56 q 289 -14 356 -14 q 206 0 247 -14 q 134 42 165 14 q 83 111 103 69 q 64 208 64 153 q 97 395 64 297 q 190 606 131 493 q 263 735 229 679 q 328 830 296 792 q 392 888 360 868 q 460 907 424 907 q 508 897 488 907 q 528 856 528 886 q 524 838 528 846 q 511 831 519 831 q 495 837 500 831 q 468 843 490 843 q 394 808 431 843 q 327 728 358 774 q 273 639 296 683 q 240 574 250 594 q 203 492 224 539 q 165 394 183 444 q 135 298 147 344 q 122 221 122 251 q 135 152 122 182 q 171 101 149 122 q 223 70 193 81 q 286 60 253 60 q 380 82 332 60 q 466 140 428 104 q 528 224 504 176 q 553 319 553 271 q 528 400 553 368 q 472 432 503 432 q 445 426 453 432 q 431 410 438 419 q 413 385 421 394 q 383 368 404 375 q 331 352 350 357 q 304 344 313 347 l 293 342 q 270 353 285 342 q 256 372 256 365 q 285 420 256 397 q 353 462 315 443 q 425 492 390 481 q 468 503 460 503 q 537 486 510 503 q 580 443 564 469 q 603 385 596 417 q 610 325 610 354 z "},"H":{"ha":531,"x_min":82,"x_max":463,"o":"m 463 396 q 456 385 463 389 q 442 378 450 381 q 426 372 435 375 q 414 364 418 368 l 424 299 q 438 193 432 244 q 444 96 444 142 q 437 31 444 60 q 410 3 429 3 q 392 27 400 3 q 380 83 385 51 q 373 145 375 114 q 371 190 371 176 q 369 222 371 200 q 365 267 368 243 q 360 313 363 292 q 356 346 357 335 q 292 340 332 344 q 193 319 251 335 l 193 303 q 196 235 193 272 q 202 160 199 199 q 208 84 206 122 q 211 11 211 46 q 208 -12 211 -3 q 196 -21 206 -21 q 170 -4 179 -21 q 157 35 161 13 q 151 83 153 58 q 147 125 149 108 q 138 209 142 161 q 132 307 135 257 q 118 310 126 307 q 101 319 110 314 q 88 329 93 324 q 82 342 82 335 q 97 369 82 358 q 131 386 113 379 q 129 413 129 399 q 129 464 129 428 q 129 509 129 479 q 129 577 129 539 q 130 661 129 615 q 131 754 131 707 q 138 781 132 765 q 156 797 143 797 q 172 790 165 797 q 183 771 179 782 q 190 748 188 760 q 192 728 192 736 l 192 396 q 225 397 204 396 q 268 401 246 399 q 312 406 290 403 q 347 411 333 408 l 315 703 q 313 724 314 713 q 313 742 313 735 q 320 787 313 769 q 343 804 328 804 q 367 786 363 804 q 372 733 371 768 q 375 690 374 711 q 379 647 376 668 l 411 413 q 445 410 428 413 q 463 396 463 408 z "},"I":{"ha":721,"x_min":7,"x_max":711,"o":"m 711 199 q 679 160 711 172 q 605 134 647 147 q 524 110 563 121 q 455 91 485 100 q 418 78 425 82 q 418 71 418 75 q 419 63 418 67 l 424 29 q 420 10 424 17 q 406 3 417 3 q 388 10 393 3 q 380 28 383 18 q 374 50 376 39 q 367 67 372 61 q 344 61 364 67 q 295 47 325 56 q 228 28 265 39 q 157 10 192 18 q 92 -4 122 1 q 44 -10 61 -10 q 7 14 7 -10 q 17 40 7 32 q 42 53 28 49 q 69 60 44 54 q 128 73 93 65 q 202 90 163 81 q 276 108 242 100 q 331 124 310 117 q 353 133 353 131 q 347 164 353 142 q 335 206 340 186 l 326 233 q 296 413 307 322 q 278 590 285 503 q 271 593 275 593 q 235 579 264 593 q 172 549 206 565 q 110 519 139 533 q 76 506 82 506 q 58 514 67 506 q 49 531 49 522 q 67 556 49 542 q 112 587 85 571 q 172 617 139 603 q 234 644 204 632 q 285 663 264 656 q 314 669 307 669 q 343 674 325 669 q 382 683 361 678 q 424 693 403 689 q 463 697 446 697 q 481 685 481 697 q 475 674 481 678 l 435 663 q 402 653 419 658 q 370 642 385 649 q 347 628 356 636 q 338 613 338 621 q 345 522 338 578 q 363 401 353 465 q 386 269 374 336 q 407 144 399 203 l 656 208 q 672 213 664 210 q 686 217 679 215 q 699 218 693 218 q 711 199 711 218 z "},"J":{"ha":508,"x_min":-99,"x_max":442,"o":"m 442 99 q 407 -1 442 24 q 290 -25 372 -25 q 224 -17 263 -25 q 151 6 186 -10 q 91 43 115 21 q 67 94 67 65 q 69 109 67 96 q 75 137 71 122 q 85 163 79 151 q 99 175 92 175 q 115 167 113 175 q 117 142 117 160 q 134 97 117 117 q 176 64 151 78 q 230 43 201 50 q 281 36 258 36 q 317 38 299 36 q 351 47 336 40 q 376 67 367 54 q 385 100 385 79 q 381 137 385 118 q 367 186 378 156 q 338 265 357 217 q 288 389 318 313 q 203 630 222 550 q 182 715 183 710 q 157 708 171 714 q 128 697 143 703 q 100 685 114 690 q 76 675 86 679 q 24 649 47 664 q -18 622 0 635 q -49 599 -36 608 q -69 590 -61 590 q -94 610 -90 590 q -99 643 -99 629 q -64 678 -99 658 q 24 719 -29 699 q 138 760 76 740 q 254 796 200 781 q 346 821 308 811 q 388 831 383 831 q 399 825 397 831 q 401 815 401 819 q 381 796 401 807 q 334 772 361 785 q 278 749 307 760 q 231 731 249 738 l 215 725 q 228 704 222 714 q 240 679 233 694 q 255 640 246 664 q 281 576 264 615 q 340 426 311 501 q 392 287 369 351 q 428 173 415 222 q 442 99 442 124 z "},"K":{"ha":650,"x_min":56,"x_max":632,"o":"m 632 188 q 613 165 632 174 q 564 156 594 156 q 481 161 538 156 q 363 179 425 167 q 244 210 300 192 q 161 256 188 229 q 171 226 164 244 q 186 185 178 207 q 215 106 201 146 q 228 43 228 67 q 222 -24 228 -1 q 194 -47 215 -47 q 171 -33 178 -47 q 164 0 164 -19 q 164 7 164 1 q 165 39 164 13 q 164 61 165 50 q 160 81 163 72 q 119 190 138 135 q 83 311 100 244 q 74 347 79 325 q 65 403 69 368 q 58 491 61 439 q 56 618 56 543 q 65 708 56 676 q 89 739 75 739 q 110 720 101 739 q 118 685 118 701 q 117 614 118 639 q 117 578 117 589 q 121 492 117 535 q 131 414 125 450 q 144 335 136 372 q 181 409 161 369 q 224 488 201 449 q 268 567 246 528 q 311 640 290 606 q 342 681 325 664 q 375 697 360 697 q 400 688 386 697 q 414 664 414 679 q 413 655 414 660 q 410 647 411 650 q 394 625 403 636 q 378 603 385 614 q 328 531 356 571 q 276 451 300 490 q 235 376 251 411 q 218 321 218 342 q 244 282 218 299 q 310 253 271 265 q 395 234 349 242 q 482 222 442 226 q 551 215 522 217 q 582 213 579 213 q 623 208 614 213 q 632 188 632 203 z "},"L":{"ha":533,"x_min":51,"x_max":514,"o":"m 514 106 q 506 90 514 96 q 463 67 493 82 q 395 35 432 51 q 318 0 358 18 q 244 -32 278 -18 q 188 -55 211 -46 q 164 -64 165 -64 q 140 -39 153 -64 q 114 28 126 -14 q 90 127 101 71 q 70 246 79 183 q 56 373 61 308 q 51 497 51 438 q 60 636 51 586 q 81 711 69 686 q 103 742 93 736 q 114 749 113 749 q 132 739 125 749 q 139 719 139 729 q 133 700 139 714 q 122 661 128 686 q 110 597 115 636 q 106 503 106 558 q 110 399 106 453 q 124 292 115 344 q 142 192 132 239 q 164 108 153 144 q 185 51 175 72 q 203 29 194 29 q 221 36 204 29 q 263 53 238 43 q 317 74 288 64 q 378 93 347 85 q 410 102 392 97 q 446 111 429 107 q 476 118 463 115 q 492 121 489 121 q 514 106 514 121 z "},"M":{"ha":713,"x_min":82,"x_max":733,"o":"m 721 -75 q 726 -90 724 -83 q 731 -106 729 -97 q 733 -121 733 -114 q 726 -137 733 -131 q 710 -147 719 -143 q 693 -153 701 -151 q 683 -154 685 -154 q 653 -103 675 -154 q 605 39 631 -53 q 553 257 579 131 q 510 535 526 383 q 499 460 507 503 q 476 381 492 418 q 437 317 461 343 q 375 292 413 292 q 315 319 349 292 q 251 385 282 347 q 194 463 219 424 q 156 528 168 503 q 174 381 161 467 q 215 199 188 294 q 222 184 218 189 q 228 174 225 179 q 234 162 232 168 q 236 143 236 156 q 222 117 236 125 q 196 108 208 108 q 178 130 189 108 q 154 186 167 151 q 129 263 142 221 q 106 347 117 306 q 89 426 96 389 q 82 485 82 463 q 85 535 82 521 q 96 556 89 549 l 96 640 q 106 670 96 660 q 133 681 117 681 q 165 657 147 681 q 205 597 183 633 q 250 519 226 561 q 297 442 274 478 q 341 382 319 406 q 382 358 363 358 q 417 392 400 358 q 448 482 433 426 q 474 608 463 538 q 492 753 485 679 q 490 772 492 761 q 489 794 489 782 q 497 831 489 811 q 526 850 504 850 q 547 843 539 850 q 557 826 554 836 q 560 805 560 815 q 561 788 561 794 q 559 751 561 776 q 557 672 557 725 q 564 566 557 626 q 583 438 571 506 q 610 299 594 371 q 645 160 626 228 q 683 31 664 92 q 721 -75 701 -29 z "},"N":{"ha":657,"x_min":-1,"x_max":657,"o":"m 657 54 q 644 29 657 40 q 617 18 632 18 q 608 22 614 18 q 600 28 603 25 q 476 138 542 83 q 344 249 411 192 q 213 368 278 306 q 92 504 149 431 q 140 345 110 429 q 199 188 171 261 q 249 60 228 114 q 269 -7 269 7 q 256 -34 269 -24 q 229 -44 243 -44 q 211 -27 221 -44 q 190 18 201 -10 q 166 80 178 46 q 143 148 154 114 q 122 212 132 182 q 107 261 113 242 l 69 374 q 44 448 57 410 q 22 519 32 486 q 5 578 11 553 q -1 611 -1 603 q 3 642 -1 626 q 18 658 7 658 q 28 655 25 658 q 33 651 31 651 l 50 658 q 74 641 57 658 q 115 596 92 624 q 164 533 138 568 q 217 465 190 499 q 269 403 244 432 q 313 357 293 374 q 374 304 343 329 q 435 253 404 279 q 501 199 467 228 q 578 132 536 169 q 585 131 579 131 q 588 138 588 131 q 588 154 588 144 q 576 224 588 174 q 545 342 565 275 q 499 487 525 410 q 442 635 472 564 q 380 765 413 707 q 317 856 347 824 q 305 881 308 864 q 301 908 301 897 q 315 930 301 918 q 339 942 328 942 q 376 908 356 942 q 421 822 397 875 q 469 701 444 768 q 517 567 493 635 q 569 408 544 486 q 612 261 593 329 q 642 139 631 193 q 657 54 654 85 z "},"O":{"ha":560,"x_min":69,"x_max":504,"o":"m 500 358 q 503 329 503 340 q 504 307 504 318 q 495 225 504 272 q 465 135 486 178 q 408 63 443 93 q 318 33 372 33 q 224 62 268 33 q 144 135 179 90 q 90 237 110 181 q 69 349 69 293 q 80 487 69 429 q 110 588 90 544 q 105 596 110 592 q 100 607 100 600 q 113 625 100 614 q 145 647 126 636 q 183 665 164 657 q 211 672 201 672 q 230 667 217 672 q 264 661 243 661 q 278 663 271 661 q 293 664 285 664 q 356 637 322 664 q 420 567 390 610 q 472 469 450 524 q 500 358 493 414 m 444 304 q 433 380 444 331 q 400 477 422 429 q 347 561 378 525 q 276 597 315 597 q 266 598 274 597 q 249 599 258 599 q 231 601 239 600 q 221 601 222 601 q 183 581 199 601 q 156 526 167 560 q 140 450 146 493 q 135 364 135 407 q 143 305 135 349 q 173 215 151 261 q 231 132 194 168 q 322 96 267 96 q 383 119 360 96 q 420 175 407 142 q 439 244 433 208 q 444 304 444 279 z "},"P":{"ha":494,"x_min":-22,"x_max":435,"o":"m 435 658 q 413 500 435 568 q 365 380 392 432 q 312 287 338 328 q 278 208 286 246 q 247 183 271 183 q 243 184 244 183 q 239 185 242 185 q 268 131 249 161 q 307 71 288 101 q 341 11 326 40 q 356 -39 356 -18 q 341 -60 356 -50 q 315 -71 326 -71 q 307 -64 310 -71 q 256 43 293 -14 q 178 171 218 100 q 108 331 139 242 q 78 532 78 419 q 83 612 78 579 q 111 644 88 644 q 131 636 125 644 q 136 618 136 628 q 160 396 136 492 q 213 247 183 300 l 236 283 q 299 381 272 339 q 342 465 325 424 q 366 549 358 506 q 374 649 374 592 q 370 682 374 664 q 359 715 367 700 q 340 739 351 729 q 313 749 329 749 q 245 736 290 749 q 153 703 200 724 q 67 656 106 682 q 19 604 28 631 q 15 597 18 601 q 10 593 13 593 q -11 608 0 593 q -22 635 -22 624 q 0 683 -22 660 q 56 726 22 707 q 132 762 90 746 q 213 788 174 778 q 283 805 251 799 q 328 811 314 811 q 370 799 350 811 q 404 765 390 786 q 426 717 418 744 q 435 658 435 689 z "},"Q":{"ha":678,"x_min":68,"x_max":661,"o":"m 661 133 q 648 89 661 111 q 613 49 635 67 q 564 19 592 31 q 507 8 536 8 q 480 12 494 8 q 453 19 465 15 q 431 28 440 24 q 418 35 421 32 q 376 6 400 18 q 325 -6 353 -6 q 225 29 272 -6 q 143 122 178 64 q 88 257 108 181 q 68 417 68 333 q 77 546 68 476 q 101 674 86 615 q 139 772 117 733 q 188 811 161 811 q 210 806 193 811 q 226 792 226 801 q 222 784 226 788 q 214 778 218 781 l 200 764 q 238 772 217 768 q 282 776 258 776 q 357 742 315 776 q 434 653 399 707 q 494 531 469 599 q 518 397 518 464 q 503 218 518 290 q 460 88 489 146 q 484 76 464 81 q 514 72 504 72 q 553 81 536 72 q 581 101 569 89 q 601 127 593 114 q 613 150 608 140 q 625 167 619 167 q 649 158 638 167 q 661 133 661 149 m 332 288 q 340 232 332 261 q 360 178 349 203 q 386 135 372 153 q 413 117 400 118 q 434 165 424 133 q 452 233 444 196 q 464 311 460 271 q 468 388 468 351 q 448 506 468 446 q 399 615 428 567 q 335 695 369 664 q 272 726 301 726 q 219 721 242 726 q 168 703 196 715 q 148 633 156 665 q 135 568 140 601 q 127 498 129 535 q 125 415 125 461 q 143 279 125 344 q 190 164 161 214 q 255 85 219 114 q 325 56 290 56 q 371 69 353 56 q 340 105 358 82 q 306 155 322 128 q 277 210 289 182 q 265 265 265 239 q 266 288 265 274 q 270 317 267 303 q 280 341 274 331 q 297 351 286 351 q 313 343 307 351 q 324 324 319 335 q 330 303 328 314 q 332 288 332 292 z "},"R":{"ha":711,"x_min":46,"x_max":822,"o":"m 822 -64 q 815 -85 822 -74 q 796 -96 808 -96 q 781 -92 789 -96 q 664 -53 731 -68 q 527 -28 597 -39 q 390 -3 457 -17 q 274 31 324 10 q 290 1 282 13 q 305 -18 299 -10 q 315 -34 311 -26 q 319 -54 319 -42 q 311 -71 319 -65 q 294 -76 303 -76 q 259 -56 278 -76 q 221 -3 240 -35 q 183 69 201 29 q 149 146 164 108 q 122 215 133 183 q 107 263 111 246 l 46 507 q 48 518 46 511 q 58 532 50 525 q 53 556 53 543 q 97 627 53 594 q 205 683 142 660 q 338 718 268 706 q 456 731 407 731 q 497 728 469 731 q 552 718 525 726 q 599 692 579 710 q 619 644 619 675 q 590 578 619 615 q 515 499 560 540 q 419 413 471 457 q 324 326 368 369 q 249 241 279 282 q 219 165 219 200 q 242 119 219 139 q 300 83 265 99 q 376 57 335 68 q 453 39 417 46 q 517 28 490 32 q 550 25 544 25 q 613 21 568 25 q 703 6 657 17 q 786 -21 750 -4 q 822 -64 822 -37 m 554 643 q 544 660 554 653 q 519 673 535 668 q 484 680 503 678 q 447 682 465 682 q 381 674 419 682 q 302 653 342 665 q 229 628 263 640 q 181 607 196 615 q 124 570 151 590 q 96 531 96 550 q 100 525 96 528 q 104 515 104 522 q 113 473 104 507 q 132 397 121 439 q 156 313 143 354 q 181 246 169 271 q 303 387 238 326 q 425 494 369 447 q 517 576 481 540 q 554 643 554 611 z "},"S":{"ha":633,"x_min":64,"x_max":613,"o":"m 613 201 q 590 103 613 139 q 525 38 568 68 q 494 21 514 31 q 451 3 475 11 q 401 -11 428 -6 q 353 -17 375 -17 q 258 -3 290 -17 q 226 28 226 10 q 238 60 226 47 q 257 74 249 72 l 272 63 q 292 48 279 56 q 332 40 304 40 q 396 49 358 40 q 467 77 433 58 q 526 124 501 96 q 550 188 550 151 q 502 247 550 219 q 351 283 454 274 q 247 297 299 288 q 155 322 196 306 q 89 362 114 338 q 64 422 64 386 q 83 489 64 457 q 131 548 103 521 q 190 596 160 575 q 242 631 221 617 q 288 656 258 640 q 352 687 318 672 q 420 712 386 701 q 478 722 454 722 q 515 707 506 722 q 525 664 525 692 q 519 614 525 640 q 507 563 514 588 q 494 519 500 538 q 485 494 488 500 q 472 478 479 482 q 463 474 465 474 q 457 481 457 474 q 459 497 457 485 q 465 525 461 508 q 470 561 468 542 q 472 600 472 581 q 469 644 472 631 q 447 658 467 658 q 394 648 428 658 q 326 622 361 638 q 253 579 289 606 q 190 525 218 553 q 145 472 163 497 q 128 431 128 446 q 151 399 128 414 q 209 374 174 385 q 288 354 244 363 q 372 342 331 346 q 449 331 407 338 q 526 308 490 324 q 588 267 563 293 q 613 201 613 242 z "},"T":{"ha":593,"x_min":-82,"x_max":822,"o":"m 822 763 q 815 747 822 753 q 800 740 807 740 q 760 738 788 740 q 702 731 733 735 q 641 724 671 728 q 593 718 611 721 q 570 717 588 718 q 531 713 553 715 q 488 708 510 711 q 454 704 467 706 q 410 694 439 701 q 357 681 381 688 q 342 676 349 678 q 331 674 335 675 q 321 671 325 672 l 396 406 q 410 365 400 393 q 433 304 419 338 q 460 235 446 271 q 486 168 475 199 q 501 124 493 150 q 517 70 510 97 q 528 21 524 43 q 533 -10 533 -1 q 522 -51 533 -29 q 493 -72 511 -72 q 476 -49 476 -72 l 476 -39 q 477 -29 476 -35 q 478 -17 478 -24 q 469 22 478 -6 q 449 83 461 49 q 422 155 436 117 q 394 227 407 193 q 371 285 381 261 q 358 318 361 310 q 348 350 354 329 q 333 397 342 371 q 316 453 325 424 q 299 513 307 483 q 253 661 278 581 q 208 655 246 660 q 122 644 169 650 q 32 634 75 639 q -26 629 -11 629 q -71 640 -61 629 q -82 668 -81 651 q -76 691 -82 679 q -61 703 -71 703 q -44 699 -50 703 q -28 696 -37 696 q 1 699 -25 696 q 62 706 26 701 q 135 714 97 710 q 203 721 174 718 q 217 722 210 721 q 232 724 225 722 q 246 725 239 725 q 251 744 246 729 q 261 758 256 758 q 284 748 275 758 q 300 733 293 738 q 330 740 310 735 q 373 749 350 744 q 417 756 396 753 q 454 761 439 760 l 617 771 q 665 774 638 772 q 718 779 692 776 q 764 784 744 782 q 790 786 783 786 q 813 778 803 785 q 822 763 822 771 z "},"U":{"ha":554,"x_min":67,"x_max":611,"o":"m 611 -64 q 603 -85 611 -81 q 583 -90 594 -90 q 561 -87 575 -90 q 541 -74 554 -86 q 513 -47 528 -62 q 476 -10 496 -31 l 407 69 q 394 52 404 65 q 370 24 385 39 q 336 -1 356 10 q 294 -12 317 -12 q 258 -3 279 -12 q 214 22 236 6 q 170 63 192 39 q 133 115 149 86 q 101 194 114 153 q 80 276 88 235 q 69 359 72 318 q 67 436 67 400 q 72 510 67 488 q 104 532 76 532 q 122 524 115 532 q 128 508 128 517 q 139 351 128 431 q 171 205 150 271 q 223 97 192 139 q 296 56 254 56 q 328 69 314 56 q 351 100 342 82 q 364 135 360 118 q 369 160 368 151 q 352 212 361 179 q 336 283 343 244 q 325 364 329 322 q 321 444 321 406 q 322 542 321 504 q 326 602 322 581 q 339 631 331 624 q 363 639 347 639 q 378 634 371 639 q 391 624 386 629 q 399 613 396 618 q 401 606 401 607 q 399 597 401 600 q 396 588 396 593 q 399 556 396 576 q 407 513 403 535 q 423 411 415 468 q 431 279 431 354 l 431 221 q 442 176 431 210 q 496 76 454 142 q 548 6 524 32 q 588 -36 572 -21 q 604 -52 597 -44 q 611 -64 611 -60 m 399 400 q 394 421 397 408 q 388 446 392 433 q 383 467 385 458 q 381 475 381 475 q 381 438 381 460 q 384 395 382 417 q 389 353 386 374 q 396 319 392 333 q 397 339 396 329 q 398 358 397 347 q 399 379 399 368 l 399 400 z "},"V":{"ha":464,"x_min":28,"x_max":410,"o":"m 410 165 q 404 116 410 147 q 390 54 399 85 q 371 1 382 24 q 350 -21 360 -21 q 306 6 335 -21 q 243 71 276 33 q 178 149 210 108 q 129 217 147 189 q 87 290 106 253 q 55 363 68 328 q 35 427 42 397 q 28 478 28 457 q 38 508 28 496 q 57 521 49 521 q 75 512 69 521 q 85 487 81 503 q 94 449 89 471 q 113 399 100 426 q 152 322 126 365 q 208 233 178 278 q 270 150 239 189 q 328 90 301 111 q 340 153 336 114 q 344 231 344 192 q 340 315 344 267 q 328 413 336 363 q 311 513 321 464 q 292 603 301 563 l 249 763 q 263 785 249 776 q 289 794 276 794 q 314 787 307 794 q 323 764 321 779 q 326 726 325 749 q 333 674 326 703 q 360 534 347 608 q 385 390 374 460 q 403 260 396 319 q 410 165 410 200 z "},"W":{"ha":776,"x_min":1,"x_max":721,"o":"m 721 156 q 695 75 721 108 q 607 42 669 42 q 520 57 564 42 q 435 97 476 72 q 355 156 393 122 q 286 225 317 189 q 278 189 283 213 q 264 142 272 165 q 245 101 256 118 q 224 83 235 83 q 184 101 206 83 q 141 149 163 119 q 99 218 119 179 q 64 299 79 257 q 13 480 24 414 q 1 551 1 546 q 4 567 1 560 q 17 574 7 574 q 40 565 32 574 q 50 542 47 556 q 69 474 57 513 q 95 396 81 436 q 126 317 110 356 q 157 249 142 279 q 186 199 172 218 q 210 181 200 181 q 224 197 219 181 q 232 233 229 213 q 235 274 235 254 q 236 300 236 293 q 226 329 229 313 q 222 357 222 346 q 231 388 222 375 q 249 400 240 400 q 256 399 254 400 q 263 396 258 397 q 269 397 267 396 q 276 397 272 397 q 283 395 279 397 q 290 383 286 393 q 342 286 308 336 q 417 196 375 236 q 507 129 458 156 q 606 103 556 103 q 639 115 624 103 q 654 146 654 126 q 642 265 654 204 q 610 390 631 326 q 564 520 590 454 q 510 656 538 586 q 465 748 486 714 q 427 802 443 782 q 401 835 411 822 q 392 868 392 849 q 409 903 392 892 q 446 914 426 914 q 471 892 457 914 q 500 837 485 871 q 531 761 515 803 q 561 678 546 719 q 611 547 583 617 q 663 406 639 476 q 704 271 688 336 q 721 156 721 206 z "},"X":{"ha":572,"x_min":-61,"x_max":565,"o":"m 565 65 q 556 47 565 50 q 540 44 547 44 q 503 75 538 44 q 423 147 469 106 q 329 231 376 189 q 253 294 282 272 q 257 248 254 275 q 263 195 260 221 q 267 149 265 169 q 269 121 269 129 q 260 85 269 100 q 232 69 251 69 q 215 73 218 69 q 208 92 211 76 q 200 148 204 113 q 193 223 196 183 q 188 300 190 263 q 185 361 186 338 q 157 394 178 369 q 109 454 136 419 q 52 529 82 489 q -3 607 22 569 q -44 675 -28 644 q -61 721 -61 706 q -50 748 -61 732 q -26 764 -39 764 q 6 728 -15 764 q 57 643 28 692 q 119 544 86 594 q 186 463 153 493 q 188 513 189 489 q 189 558 188 536 q 190 599 189 569 q 194 665 192 628 q 202 740 197 701 q 216 812 207 779 q 237 865 225 844 q 267 886 249 886 q 281 869 278 886 q 283 847 283 853 q 277 749 283 796 q 264 652 271 701 q 251 547 257 603 q 244 424 244 492 q 244 415 244 419 q 247 404 244 411 q 279 367 253 392 q 341 310 306 342 q 416 244 376 279 q 489 176 456 210 q 544 113 522 142 q 565 65 565 85 z "},"Y":{"ha":436,"x_min":-12,"x_max":440,"o":"m 440 465 q 431 438 440 446 q 411 429 422 429 q 387 433 399 429 q 357 444 375 438 l 336 453 q 333 435 333 446 q 332 418 332 425 q 336 313 332 369 q 346 199 340 256 q 359 88 351 142 q 372 -10 367 33 q 382 -84 378 -54 q 386 -122 386 -114 l 386 -157 q 383 -185 386 -172 q 368 -197 379 -197 q 333 -163 347 -197 q 309 -85 318 -129 q 296 -1 300 -42 q 292 54 292 40 q 288 101 292 64 q 281 185 285 139 q 273 280 276 232 q 269 361 269 328 q 269 392 269 375 q 268 425 268 410 l 268 468 q 237 514 268 490 q 161 566 206 538 q 69 631 117 594 q -8 719 22 668 q -12 732 -12 721 q -4 767 -12 751 q 18 782 4 782 q 31 772 22 782 q 51 746 39 761 q 81 712 64 731 q 118 676 97 693 q 157 645 132 664 q 206 608 182 626 q 249 577 231 590 q 268 564 267 564 q 275 575 274 564 q 276 589 276 586 l 283 672 q 301 801 290 743 q 311 901 311 858 q 308 918 311 906 q 306 935 306 931 q 311 948 306 943 q 324 956 317 953 q 343 961 332 960 q 371 947 363 961 q 379 919 379 932 q 373 822 379 869 q 359 728 367 775 q 345 631 351 681 q 339 528 339 582 q 349 510 339 519 q 373 494 358 501 q 406 478 388 486 q 440 465 424 471 z "},"Z":{"ha":782,"x_min":15,"x_max":781,"o":"m 781 110 q 764 86 781 94 q 726 78 747 78 q 714 78 722 78 q 696 81 706 79 q 679 83 686 82 q 672 85 672 85 q 560 69 625 85 q 426 34 494 53 q 290 -1 357 15 q 172 -17 224 -17 q 79 -1 108 -17 q 50 67 50 15 q 74 149 50 101 q 132 247 97 196 q 208 352 167 299 q 285 453 250 406 q 343 538 319 500 q 367 599 367 576 q 340 626 367 617 q 282 636 313 636 q 255 634 265 636 q 226 630 244 632 q 172 626 207 628 q 71 625 138 625 q 33 635 50 625 q 15 660 15 646 q 28 684 15 669 q 49 700 40 699 q 71 694 53 700 q 101 689 89 689 q 200 688 161 689 q 268 683 239 686 q 311 683 282 682 q 370 678 340 683 q 422 658 400 672 q 444 613 444 643 q 428 553 444 588 q 387 479 413 518 q 330 399 361 440 q 268 318 299 357 q 210 244 236 276 q 167 184 185 213 q 140 131 150 156 q 131 79 131 106 q 136 70 131 74 q 150 65 142 67 q 167 63 158 64 q 181 63 175 63 q 267 75 203 63 q 413 103 331 88 q 584 132 496 119 q 743 144 672 144 q 769 138 758 144 q 781 110 781 132 z "},"_":{"ha":443,"x_min":-26,"x_max":471,"o":"m 471 -62 q 465 -79 471 -69 q 450 -90 458 -89 q 403 -96 446 -92 q 296 -100 361 -100 q 256 -99 286 -100 q 189 -95 225 -97 q 117 -91 153 -93 q 64 -89 82 -89 q 34 -90 57 -89 q 0 -92 11 -92 q -26 -71 -26 -92 q -19 -52 -26 -58 q 0 -43 -11 -46 q 23 -40 11 -40 q 44 -39 35 -39 q 103 -40 67 -39 q 176 -44 140 -42 q 242 -47 213 -46 q 282 -49 272 -49 q 324 -47 301 -49 q 368 -44 346 -46 q 410 -40 390 -42 q 443 -37 429 -37 q 465 -47 458 -37 q 471 -62 471 -56 z "},"a":{"ha":676,"x_min":76,"x_max":715,"o":"m 715 289 q 692 227 715 264 q 631 156 669 190 q 540 97 592 121 q 433 72 489 72 q 381 81 408 72 q 326 105 353 89 q 279 144 300 121 q 249 196 258 167 q 228 168 240 188 q 203 128 217 149 q 172 94 189 108 q 138 79 156 79 q 108 98 119 79 q 89 140 96 117 q 79 183 82 163 q 76 207 76 204 q 86 270 76 224 q 115 367 96 317 q 165 456 135 417 q 235 494 194 494 q 255 481 250 494 q 260 456 260 468 l 260 414 q 274 406 267 408 q 288 401 282 404 q 298 390 294 397 q 301 368 301 383 q 300 351 301 358 q 299 336 299 343 q 304 265 299 300 q 326 203 310 231 q 372 159 343 176 q 450 142 401 142 q 553 167 511 142 q 624 224 596 193 q 669 281 653 256 q 697 307 686 307 q 715 289 715 307 m 228 350 q 225 360 228 356 q 222 369 222 365 q 225 379 222 375 q 228 390 228 383 q 225 397 228 394 q 222 401 222 399 q 197 378 210 399 q 172 329 183 357 q 153 273 160 301 q 146 226 146 244 q 151 194 146 217 q 164 165 157 172 q 208 260 188 214 q 228 350 228 306 z "},"b":{"ha":460,"x_min":-76,"x_max":386,"o":"m 386 276 q 372 167 386 214 q 336 88 357 119 q 294 42 315 57 q 258 26 272 26 q 221 44 239 26 q 203 76 203 61 q 221 99 203 99 q 235 94 228 99 q 247 86 242 89 q 292 150 271 106 q 314 276 314 194 q 307 336 314 310 q 291 381 300 363 q 272 408 282 399 q 258 418 263 418 q 231 390 244 418 q 208 327 218 363 q 192 258 199 292 q 186 211 186 224 q 189 196 188 203 q 192 182 190 189 q 193 168 193 175 q 175 121 193 142 q 140 100 157 100 q 127 112 132 100 q 119 142 122 124 q 115 179 117 160 q 110 214 113 199 q 81 293 99 239 q 42 409 63 347 q 5 529 22 471 q -21 622 -12 588 q -51 753 -40 697 q -67 852 -61 810 q -75 925 -74 894 q -76 976 -76 956 q -66 996 -76 989 q -47 1003 -56 1003 q -29 998 -35 1003 q -22 978 -24 993 q -17 933 -19 963 q -10 856 -15 904 q 1 790 -7 832 q 21 697 8 749 q 48 590 33 646 q 78 482 63 533 q 110 388 94 431 q 140 319 126 344 q 171 410 153 369 q 208 472 186 443 q 263 500 231 500 q 296 489 275 500 q 337 451 317 478 q 372 382 357 425 q 386 276 386 339 z "},"c":{"ha":511,"x_min":63,"x_max":456,"o":"m 456 253 q 451 224 456 239 q 443 200 447 210 q 417 172 440 196 q 360 121 394 147 q 284 73 326 94 q 203 51 242 51 q 155 60 179 51 q 110 87 131 68 q 76 133 89 106 q 63 201 63 161 q 85 322 63 268 q 129 408 107 376 q 155 440 139 424 q 186 469 171 456 q 215 490 201 482 q 233 499 228 499 q 256 492 246 499 q 267 478 267 485 q 260 459 267 467 q 243 442 254 451 q 217 419 232 433 q 185 381 201 404 q 135 287 151 335 q 119 203 119 239 q 147 145 119 167 q 203 124 174 124 q 297 147 256 124 q 367 200 338 171 q 414 253 396 229 q 440 276 432 276 q 456 253 456 276 z "},"d":{"ha":500,"x_min":58,"x_max":449,"o":"m 449 224 q 442 210 449 217 q 435 197 436 204 q 441 168 435 182 q 447 135 447 154 q 436 117 447 117 q 416 113 422 117 q 394 107 410 110 q 376 122 386 107 q 367 139 371 129 q 359 133 367 140 q 334 117 351 126 q 287 101 317 108 q 211 93 257 93 q 143 110 172 93 q 95 156 114 128 q 67 219 76 183 q 58 290 58 254 q 66 353 58 324 q 88 406 74 383 q 122 443 101 429 q 171 457 143 457 q 224 440 197 457 q 271 404 250 424 q 305 369 292 385 q 318 353 318 353 q 283 549 299 461 q 270 623 276 586 q 258 689 264 660 q 249 738 253 718 q 246 763 246 758 q 243 792 244 771 q 240 838 242 814 q 238 881 239 861 q 235 906 236 900 q 224 940 231 919 q 218 964 218 961 q 225 981 218 971 q 243 992 232 992 q 258 990 251 992 q 271 982 265 989 q 281 960 276 975 q 290 919 286 946 q 299 867 292 906 q 313 782 306 828 q 326 694 319 736 q 336 633 333 653 q 355 519 343 581 q 379 400 367 457 q 404 299 392 343 q 426 240 417 256 q 438 233 429 235 q 449 224 446 231 m 346 196 q 328 231 344 200 q 288 299 313 263 q 234 365 264 336 q 176 394 204 394 q 138 358 153 394 q 124 275 124 322 q 155 190 124 222 q 225 158 186 158 q 294 169 258 158 q 346 196 331 181 z "},"e":{"ha":485,"x_min":67,"x_max":443,"o":"m 442 146 q 443 138 443 143 q 431 113 443 129 q 413 94 426 107 q 375 69 399 82 q 317 47 351 57 q 238 38 283 38 q 175 52 206 38 q 121 95 144 67 q 82 166 97 124 q 67 265 67 208 q 81 367 67 319 q 116 450 94 414 q 164 507 138 486 q 215 528 190 528 q 260 519 238 528 q 302 496 283 510 q 332 465 321 482 q 343 429 343 447 q 324 386 343 408 q 279 345 306 364 q 226 315 253 326 q 185 303 200 303 q 170 310 176 303 q 164 329 164 318 q 181 360 164 349 q 219 380 199 371 q 258 401 240 389 q 275 436 275 414 q 268 450 275 439 q 231 461 261 461 q 199 445 217 461 q 164 402 181 429 q 136 338 147 375 q 125 258 125 301 q 138 193 125 222 q 172 144 151 164 q 221 113 193 124 q 278 101 249 101 q 323 110 299 101 q 369 130 347 119 q 406 149 390 140 q 426 158 422 158 q 435 154 431 158 q 442 146 440 150 z "},"f":{"ha":543,"x_min":32,"x_max":511,"o":"m 510 996 q 511 986 511 993 q 511 971 511 979 q 504 961 511 961 q 497 963 501 961 q 490 965 493 964 q 430 994 465 976 q 350 1011 394 1011 q 269 974 300 1011 q 223 887 239 936 q 202 790 207 838 q 197 722 197 743 q 202 674 197 707 q 215 607 207 642 q 235 544 224 572 q 257 508 246 515 q 287 510 265 508 q 322 511 308 511 q 367 507 346 511 q 410 503 388 503 q 426 503 415 503 q 449 501 438 503 q 469 497 461 500 q 478 488 478 493 q 468 475 478 481 q 446 466 458 469 q 421 461 433 463 q 401 460 408 460 q 383 460 394 460 q 359 463 372 461 q 334 465 346 464 q 314 465 322 465 q 287 460 292 465 q 282 442 282 456 q 301 385 282 421 q 342 310 319 350 q 383 226 364 269 q 401 147 401 183 q 398 122 401 140 q 388 83 394 103 q 371 49 382 64 q 346 33 360 33 q 326 40 335 33 q 317 61 317 46 q 328 103 317 83 q 340 144 340 122 q 330 182 340 156 q 304 241 319 208 q 271 310 289 274 q 237 376 253 346 q 210 425 221 406 q 197 446 199 444 q 140 426 169 436 q 88 397 111 417 q 69 388 78 388 q 44 399 56 388 q 32 424 32 410 q 41 448 32 439 q 58 461 50 457 q 97 476 71 468 q 150 490 124 485 q 168 495 160 493 q 176 504 176 497 q 165 541 172 518 q 149 596 157 564 q 136 667 142 628 q 131 753 131 707 q 142 858 131 803 q 180 960 154 914 q 244 1037 206 1007 q 338 1067 283 1067 q 393 1062 363 1067 q 449 1048 424 1057 q 492 1026 475 1039 q 510 996 510 1013 z "},"g":{"ha":460,"x_min":47,"x_max":436,"o":"m 400 122 q 389 101 400 107 q 378 86 378 96 q 383 71 376 88 q 396 36 390 54 q 413 -29 406 -1 q 426 -81 421 -57 q 433 -128 431 -104 q 436 -181 436 -151 q 426 -240 436 -210 q 399 -294 417 -271 q 354 -333 381 -318 q 294 -349 328 -349 q 213 -328 243 -349 q 168 -281 183 -307 q 149 -228 153 -254 q 144 -194 144 -203 q 171 -92 144 -143 q 229 1 197 -40 q 288 71 261 43 q 314 103 314 99 l 299 149 q 274 112 285 132 q 252 74 264 92 q 224 45 240 57 q 185 33 208 33 q 135 49 160 33 q 90 94 110 64 q 59 168 71 125 q 47 268 47 211 q 57 348 47 300 q 88 440 67 396 q 140 516 108 485 q 213 547 171 547 q 256 539 236 547 q 276 518 276 531 q 272 500 276 507 q 261 486 268 493 q 252 492 257 489 q 239 494 247 494 q 184 467 208 494 q 143 401 160 440 q 117 318 126 361 q 108 243 108 275 q 132 135 108 172 q 182 99 156 99 q 209 117 194 99 q 237 159 224 136 q 260 203 250 182 q 271 228 269 224 q 274 260 274 242 q 273 294 274 275 q 272 332 272 313 q 278 392 272 368 q 306 417 283 417 q 338 403 328 417 q 347 372 347 390 q 347 342 347 360 q 346 309 346 325 q 345 281 346 293 q 344 267 344 269 q 347 242 344 258 q 351 210 349 226 q 355 181 353 194 q 358 164 357 168 q 363 151 360 160 q 368 139 365 143 q 374 145 369 142 q 381 151 378 149 q 394 135 388 147 q 400 122 400 124 m 353 -54 q 340 -10 347 -32 q 326 36 333 13 q 281 -20 303 7 q 242 -74 260 -47 q 215 -128 225 -100 q 204 -189 204 -157 q 228 -260 204 -232 q 282 -287 253 -287 q 342 -264 314 -287 q 371 -196 371 -240 q 369 -147 371 -167 q 366 -113 368 -128 q 360 -85 364 -99 q 353 -54 357 -72 z "},"h":{"ha":533,"x_min":65,"x_max":507,"o":"m 500 257 q 507 249 507 250 q 499 232 507 246 q 479 203 492 218 q 452 176 467 188 q 424 164 438 164 q 376 176 394 164 q 347 206 358 188 q 328 245 335 224 q 318 286 322 267 q 313 296 315 296 q 296 266 308 296 q 269 201 283 236 q 241 135 254 165 q 224 106 228 106 q 181 127 199 106 q 153 177 164 149 q 138 235 143 206 q 131 282 132 265 q 113 407 126 319 q 89 619 99 494 q 83 667 86 646 q 75 715 79 689 q 68 775 71 742 q 65 857 65 808 q 67 875 65 860 q 71 908 68 890 q 80 940 74 926 q 94 954 86 954 q 113 942 104 954 q 127 915 121 931 q 136 886 133 900 q 139 867 139 872 q 136 828 139 846 q 133 794 133 810 q 137 742 133 774 q 146 676 140 710 q 156 612 151 643 q 163 561 160 581 q 165 542 163 560 q 172 497 168 524 q 178 438 175 469 q 186 377 182 407 q 194 324 190 347 q 199 292 197 301 q 201 280 199 288 q 205 263 203 272 q 210 244 207 253 q 217 232 213 236 q 238 283 225 249 q 266 354 251 318 q 294 417 281 390 q 317 444 307 444 q 335 440 328 444 q 353 433 342 436 q 367 419 367 428 q 369 397 367 410 q 378 353 372 381 q 393 301 385 326 q 413 257 401 275 q 435 239 424 239 q 450 253 440 239 q 476 269 460 268 q 486 266 479 269 q 500 257 493 263 z "},"i":{"ha":215,"x_min":0,"x_max":183,"o":"m 138 639 q 128 628 138 636 q 105 610 118 619 q 78 594 92 601 q 56 588 64 588 q 41 588 50 588 q 23 593 32 589 q 7 605 14 597 q 0 625 0 613 q 14 662 0 644 q 50 679 28 679 q 69 676 54 679 q 99 667 83 672 q 126 654 114 661 q 138 639 138 647 m 183 119 q 169 103 183 110 q 147 96 154 96 q 122 114 133 96 q 103 156 111 132 q 89 201 94 179 q 81 231 83 222 q 69 264 76 244 q 56 301 63 283 q 46 333 50 319 q 42 349 42 347 q 49 385 42 368 q 68 401 57 401 q 94 382 81 401 q 122 333 108 363 q 146 267 135 303 q 165 201 157 232 q 178 147 174 169 q 183 119 183 124 z "},"j":{"ha":215,"x_min":-119,"x_max":228,"o":"m 124 633 q 116 622 124 631 q 98 605 108 614 q 77 589 88 596 q 61 582 67 582 q 19 592 39 582 q -1 618 -1 601 q 1 635 -1 625 q 8 653 3 644 q 21 669 13 663 q 42 675 29 675 q 64 672 50 675 q 91 662 78 668 q 114 648 104 656 q 124 633 124 640 m 228 -131 q 217 -166 228 -150 q 190 -193 206 -182 q 158 -210 175 -204 q 131 -217 142 -217 q 53 -206 97 -217 q -28 -173 10 -196 q -93 -115 -67 -150 q -119 -28 -119 -79 q -117 -17 -119 -22 q -107 -12 -114 -12 q -83 -34 -97 -12 q -43 -82 -68 -56 q 21 -130 -18 -108 q 121 -151 60 -151 q 148 -147 140 -151 q 156 -119 156 -143 q 149 -71 156 -97 q 135 -19 143 -44 q 119 31 126 7 q 107 71 111 54 q 98 106 106 75 q 82 178 90 138 q 67 258 74 219 q 60 315 60 297 q 63 342 60 325 q 81 358 65 358 q 96 341 88 358 q 113 298 104 324 q 130 242 122 272 q 144 184 138 211 q 154 138 150 157 q 160 114 158 118 q 174 74 163 103 q 197 8 185 44 q 218 -67 208 -29 q 228 -131 228 -104 z "},"k":{"ha":553,"x_min":3,"x_max":549,"o":"m 549 149 q 546 133 549 138 q 532 125 543 128 q 501 116 519 121 q 460 106 482 111 q 415 98 438 101 q 372 94 392 94 q 320 97 349 94 q 265 106 292 100 q 217 120 239 113 q 186 139 196 128 q 199 81 193 110 q 207 22 204 51 q 203 10 207 15 q 185 6 200 6 q 172 9 178 6 q 161 24 165 13 q 140 76 149 51 q 126 125 132 100 q 113 178 119 150 q 96 239 106 206 q 64 355 81 293 q 33 473 47 417 q 11 573 19 529 q 3 635 3 617 q 3 657 3 643 q 8 684 4 671 q 17 706 11 697 q 35 715 24 715 q 49 694 42 715 q 63 647 57 672 q 74 598 69 621 q 79 574 79 575 q 92 506 85 543 q 108 432 100 469 q 126 360 117 394 q 147 303 136 326 q 157 343 149 317 q 179 400 165 369 q 210 463 193 431 q 247 522 228 496 q 284 565 265 549 q 319 582 303 582 q 356 575 346 582 q 367 558 367 568 q 343 526 367 550 q 290 462 319 501 q 238 369 261 422 q 214 250 214 315 q 227 209 214 226 q 262 181 240 192 q 310 163 283 169 q 364 157 338 157 q 415 158 388 157 q 467 162 443 160 q 509 165 492 164 q 531 167 526 167 q 543 163 538 167 q 549 149 549 158 z "},"l":{"ha":293,"x_min":47,"x_max":240,"o":"m 240 40 q 232 24 240 29 q 213 18 224 18 q 187 42 200 18 q 161 101 174 65 q 138 180 149 138 q 118 259 126 222 q 105 321 110 296 q 100 349 100 346 q 95 378 100 354 q 83 451 90 401 q 66 581 75 501 q 47 779 57 661 q 51 811 47 792 q 71 831 56 831 q 101 804 90 831 q 117 739 111 778 q 126 658 124 700 q 133 583 129 615 q 144 503 139 539 q 153 431 149 467 q 166 357 158 396 q 185 271 174 318 l 240 40 l 240 40 z "},"m":{"ha":728,"x_min":49,"x_max":672,"o":"m 672 131 q 665 111 672 119 q 649 98 658 103 q 628 90 639 93 q 611 88 618 88 q 561 119 582 88 q 526 188 540 150 q 506 260 513 226 q 500 296 500 293 q 483 244 492 281 q 461 172 474 208 q 430 106 449 135 q 382 78 411 78 q 356 94 368 78 q 332 138 343 111 q 310 197 321 164 q 290 263 300 231 q 269 323 279 294 q 250 368 260 351 q 235 311 242 347 q 225 235 229 275 q 218 157 221 196 q 215 89 215 118 q 205 61 215 69 q 183 53 194 53 q 153 73 168 53 q 122 125 138 93 q 94 197 107 157 q 70 278 81 238 q 54 355 60 318 q 49 417 49 392 q 50 450 49 435 q 52 474 51 463 q 53 486 53 485 q 51 492 53 490 q 49 499 49 493 q 59 512 49 503 q 81 521 69 521 q 106 513 100 521 q 113 493 113 504 q 112 481 113 489 q 111 443 111 472 q 118 385 111 424 q 135 306 125 346 q 155 231 144 265 q 172 189 165 197 q 176 202 175 194 q 178 214 176 210 l 193 328 q 216 419 199 371 q 253 493 233 467 q 268 504 260 504 q 283 492 276 504 q 319 415 307 453 q 340 340 331 376 q 360 266 349 303 q 397 192 372 229 q 425 251 408 210 q 459 333 442 292 q 492 406 476 375 q 515 438 507 438 q 529 436 519 438 q 543 435 539 435 q 564 406 556 435 q 578 340 572 378 q 591 263 585 301 q 606 206 597 225 q 622 179 611 192 q 644 156 633 167 q 672 131 658 143 z "},"n":{"ha":489,"x_min":65,"x_max":472,"o":"m 472 171 q 467 154 472 163 q 453 139 461 146 q 437 127 446 132 q 421 122 428 122 q 360 133 397 122 q 301 165 324 143 q 260 222 278 189 q 219 318 242 254 q 184 197 204 257 q 119 88 164 138 q 111 85 117 85 q 90 94 101 85 q 79 114 79 104 q 77 159 79 124 q 72 238 75 194 q 67 327 69 282 q 65 401 65 372 q 67 438 65 415 q 75 478 68 461 q 85 489 76 481 q 106 497 94 497 q 117 485 115 497 q 118 457 118 472 l 118 238 q 120 218 118 231 q 126 200 122 206 q 155 278 142 233 q 181 365 168 324 q 206 434 193 406 q 231 463 218 463 q 253 457 244 463 q 267 435 261 451 q 278 363 274 394 q 288 307 282 332 q 306 260 294 282 q 339 221 318 239 q 383 194 358 203 q 425 186 407 186 q 443 190 433 186 q 457 193 453 193 q 467 183 463 193 q 472 171 472 174 z "},"o":{"ha":389,"x_min":86,"x_max":304,"o":"m 304 300 q 296 242 304 269 q 274 193 288 214 q 241 160 260 172 q 200 149 222 149 q 139 171 161 149 q 105 222 117 193 q 90 281 93 251 q 86 326 86 311 q 94 383 86 351 q 115 440 101 414 q 144 485 128 467 q 179 503 161 503 q 192 500 183 503 q 211 492 201 497 q 228 478 221 486 q 239 458 236 469 q 269 447 254 457 q 286 432 285 438 q 301 360 297 396 q 304 300 304 324 m 242 325 q 238 369 242 346 q 221 415 233 392 q 214 414 218 414 q 205 415 208 414 q 199 417 201 417 q 172 408 182 417 q 158 384 163 399 q 151 353 153 369 q 150 321 150 336 q 151 287 150 306 q 158 251 153 268 q 171 223 163 235 q 193 211 179 211 q 217 226 207 211 q 232 260 226 240 q 240 298 238 279 q 242 325 242 317 z "},"p":{"ha":524,"x_min":-44,"x_max":501,"o":"m 501 401 q 481 332 501 365 q 432 270 461 299 q 368 217 403 242 q 304 175 333 193 q 258 143 276 156 q 240 124 240 131 q 244 73 240 106 q 255 2 249 40 q 267 -76 261 -36 q 276 -150 274 -117 q 278 -162 276 -151 q 284 -187 281 -174 q 290 -213 288 -201 q 292 -228 292 -225 q 291 -249 292 -237 q 287 -272 290 -261 q 276 -289 283 -282 q 258 -296 269 -296 q 236 -283 243 -296 q 229 -257 229 -269 q 230 -251 229 -254 q 231 -244 231 -249 q 219 -162 231 -229 q 194 -3 208 -96 q 169 195 181 89 q 158 396 158 301 q 160 412 158 403 q 161 428 161 421 q 120 415 147 426 q 67 388 93 404 q 20 355 40 372 q 0 324 0 338 l -10 324 q -20 329 -14 324 q -31 342 -26 335 q -40 356 -36 349 q -44 365 -44 363 q -10 420 -44 394 q 77 466 25 446 q 192 498 129 486 q 310 510 254 510 q 401 497 364 510 q 460 467 438 485 q 492 432 482 450 q 501 401 501 414 m 433 406 q 399 434 433 419 q 317 449 364 449 q 256 446 275 449 q 229 440 236 443 q 225 388 226 418 q 224 325 224 357 q 226 260 224 292 q 231 208 228 229 q 284 242 250 221 q 351 291 318 264 q 409 348 385 318 q 433 406 433 378 z "},"q":{"ha":410,"x_min":47,"x_max":383,"o":"m 383 -129 q 382 -143 383 -133 q 377 -162 381 -153 q 367 -178 374 -171 q 349 -186 360 -186 q 307 -167 317 -186 q 297 -124 297 -147 q 294 -106 297 -118 q 289 -78 292 -93 q 283 -47 286 -62 q 281 -21 281 -32 q 278 26 281 0 q 273 80 276 53 q 266 132 269 107 q 260 176 263 157 l 256 181 q 228 157 240 171 q 205 131 217 143 q 180 110 193 118 q 149 101 167 101 q 104 119 124 101 q 72 160 85 136 q 53 208 60 183 q 47 246 47 232 q 60 315 47 276 q 97 388 74 354 q 153 446 121 422 q 226 469 186 469 q 254 461 242 469 q 277 441 267 453 q 295 417 288 429 q 308 397 303 404 q 332 366 324 379 q 340 333 340 353 q 336 308 340 329 q 332 274 332 288 q 335 158 332 217 q 344 48 339 99 q 356 -40 350 -3 q 364 -92 361 -78 q 375 -106 367 -103 q 383 -129 383 -110 m 263 338 q 252 372 261 351 q 215 393 243 393 q 172 373 192 393 q 139 326 153 353 q 118 273 125 299 q 111 235 111 247 q 113 222 111 232 q 119 201 115 213 q 128 182 122 190 q 140 174 133 174 q 178 197 157 174 q 217 249 199 219 q 249 304 236 278 q 263 338 263 331 z "},"r":{"ha":439,"x_min":85,"x_max":383,"o":"m 383 424 q 375 408 383 414 q 356 397 367 401 q 333 391 344 393 q 315 389 322 389 q 288 392 294 389 q 276 394 281 394 q 221 389 242 394 q 188 371 200 383 q 173 340 176 358 q 169 294 169 321 q 173 224 169 250 q 180 181 176 197 q 187 155 183 164 q 190 138 190 146 q 178 114 190 126 q 157 101 167 101 q 127 131 140 101 q 105 202 114 161 q 90 283 96 243 q 85 344 85 324 q 89 390 85 368 q 100 427 93 411 q 115 453 107 443 q 132 463 124 463 q 143 458 139 463 q 150 447 147 453 q 156 435 153 440 q 165 431 160 431 q 206 443 178 431 q 274 456 233 456 q 330 453 311 456 q 367 444 349 451 q 377 438 371 443 q 383 424 383 433 z "},"s":{"ha":432,"x_min":67,"x_max":368,"o":"m 368 183 q 352 142 368 160 q 312 113 336 125 q 258 94 288 101 q 203 84 229 88 q 156 80 176 81 q 131 79 136 79 q 83 89 100 79 q 67 124 67 99 q 68 138 67 132 q 79 144 69 144 q 93 142 83 144 q 108 140 103 140 q 144 142 114 140 q 208 150 174 144 q 269 166 242 156 q 296 193 296 176 q 267 210 296 196 q 182 260 239 225 q 119 316 138 288 q 101 393 101 344 q 115 443 101 424 q 151 474 128 463 q 203 490 174 485 q 267 494 233 494 q 284 492 269 494 q 315 483 299 489 q 345 467 332 476 q 358 447 358 458 q 353 439 358 444 q 338 418 349 433 q 323 422 333 419 q 299 428 313 425 q 272 434 286 432 q 250 436 258 436 q 192 423 214 436 q 169 372 169 410 q 184 339 169 354 q 221 310 199 324 q 269 284 243 297 q 317 256 294 271 q 353 223 339 240 q 368 183 368 206 z "},"t":{"ha":443,"x_min":-156,"x_max":424,"o":"m 424 628 q 372 587 406 607 q 306 550 339 567 q 247 522 272 533 q 222 506 222 510 q 228 481 222 501 q 241 431 233 460 q 257 372 249 403 q 271 318 265 342 q 278 282 274 304 q 285 238 282 260 q 292 198 289 215 q 294 179 294 181 q 288 136 294 158 q 265 114 281 114 q 250 121 257 114 q 238 137 243 128 q 229 154 232 146 q 226 167 226 163 q 227 175 226 169 q 228 188 228 181 q 219 264 228 214 q 208 311 217 279 q 192 376 200 343 q 169 461 182 415 q 163 481 164 481 q 130 469 153 481 q 78 440 107 457 q 17 402 49 422 q -43 365 -15 382 q -91 335 -71 347 q -115 324 -111 324 q -144 336 -133 324 q -156 364 -156 349 q -133 388 -156 372 q -76 424 -110 404 q -2 464 -42 443 q 72 501 38 485 q 128 529 106 518 q 151 540 151 540 q 131 654 139 604 q 117 733 124 697 q 111 772 111 769 q 119 799 111 790 q 136 808 126 808 q 156 788 151 808 q 184 654 171 713 q 210 560 197 596 q 253 576 222 563 q 317 604 283 589 q 377 631 350 619 q 408 643 404 643 q 419 638 417 643 q 424 628 421 632 z "},"u":{"ha":513,"x_min":61,"x_max":513,"o":"m 513 231 q 496 204 513 218 q 457 178 479 190 q 412 158 435 167 q 378 150 389 150 q 351 157 365 150 q 323 174 336 164 q 300 192 310 183 q 288 203 290 200 q 275 186 283 199 q 255 159 267 174 q 230 133 243 144 q 203 122 217 122 q 140 161 167 122 q 97 250 114 200 q 70 347 79 300 q 61 410 61 393 q 72 426 61 419 q 88 432 82 432 q 114 419 107 432 q 121 390 121 406 q 128 346 121 378 q 147 281 136 314 q 171 222 158 247 q 193 196 183 196 q 224 219 211 196 q 246 272 238 242 q 258 328 254 301 q 263 364 263 356 q 263 373 263 365 q 265 389 264 381 q 267 404 267 397 q 268 414 268 411 q 264 427 268 424 q 260 442 260 431 q 268 458 260 450 q 304 465 276 465 q 322 459 315 465 q 331 444 328 453 q 334 428 333 436 q 335 418 335 421 q 333 399 335 417 q 331 359 332 381 q 329 318 331 338 q 328 294 328 299 q 332 278 328 290 q 342 252 336 265 q 357 228 349 239 q 375 218 365 218 q 406 223 392 218 q 434 234 421 228 q 458 245 447 240 q 479 250 469 250 q 502 244 492 250 q 513 231 513 239 z "},"v":{"ha":392,"x_min":61,"x_max":325,"o":"m 325 489 q 318 453 325 485 q 304 381 311 421 q 291 310 300 357 q 282 169 282 264 q 281 155 282 167 q 277 131 281 143 q 267 108 274 118 q 246 97 260 97 q 218 108 233 97 q 154 167 183 133 q 104 240 125 200 q 72 322 83 279 q 61 410 61 365 q 69 420 61 415 q 81 425 76 425 q 113 401 101 425 q 137 344 125 378 q 165 274 149 311 q 213 211 181 238 q 219 232 217 217 q 224 258 222 247 q 228 297 225 268 q 234 357 231 325 q 240 418 238 389 q 242 458 242 447 q 243 478 242 467 q 249 499 244 489 q 263 515 254 508 q 285 522 271 522 q 308 513 292 522 q 325 489 325 504 z "},"w":{"ha":538,"x_min":56,"x_max":481,"o":"m 475 611 q 481 603 481 610 q 471 583 481 593 q 461 560 461 572 q 460 539 461 557 q 460 499 460 521 q 459 457 460 476 q 458 435 458 438 l 458 297 q 457 278 458 296 q 452 235 456 260 q 445 183 449 210 q 438 136 442 156 q 430 128 436 131 q 416 123 424 125 q 401 120 408 121 q 393 119 394 119 q 360 138 378 119 q 328 178 343 156 q 301 219 313 200 q 289 242 290 239 q 276 202 283 222 q 261 165 269 182 q 242 138 253 149 q 219 126 232 126 q 185 143 203 126 q 148 186 167 160 q 113 245 129 213 q 83 308 96 278 q 63 365 71 339 q 56 407 56 392 q 61 421 56 413 q 76 429 67 429 q 104 417 96 429 q 113 392 106 415 q 135 336 121 368 q 167 270 149 304 q 210 213 186 236 q 226 253 219 231 q 236 296 232 275 q 242 334 240 317 q 243 363 243 351 q 239 385 240 374 q 237 404 238 394 q 236 421 236 414 q 264 456 236 456 q 296 442 285 456 q 313 412 307 429 q 320 378 318 394 q 325 354 322 361 q 345 294 336 322 q 376 238 354 267 q 385 252 382 242 q 390 274 389 263 q 392 294 392 285 q 392 307 392 303 l 392 583 q 399 599 392 592 q 415 611 406 606 q 434 620 425 617 q 447 624 443 624 q 460 619 454 624 q 475 611 467 615 z "},"x":{"ha":510,"x_min":58,"x_max":461,"o":"m 461 129 q 445 93 461 103 q 411 83 429 83 q 339 112 379 83 q 254 176 299 140 q 247 147 253 174 q 230 88 240 119 q 204 29 219 56 q 169 3 189 3 q 147 13 156 3 q 139 28 139 24 q 149 65 139 38 q 169 123 158 92 q 190 182 181 154 q 200 222 200 210 q 178 257 200 228 q 129 326 156 286 q 81 410 103 365 q 58 492 58 454 q 67 511 58 501 q 82 521 75 521 q 105 515 90 521 q 122 497 119 508 q 158 399 136 451 q 225 299 181 347 q 235 340 229 314 q 247 397 240 367 q 262 458 254 428 q 277 514 269 489 q 292 554 285 539 q 306 569 299 569 q 327 565 313 569 q 342 544 342 560 q 338 522 342 544 q 326 467 333 499 q 311 398 319 435 q 294 332 303 361 q 290 317 293 328 q 283 293 286 306 q 276 270 279 281 q 274 257 274 260 q 294 227 274 244 q 339 194 314 210 q 387 167 364 178 q 415 156 410 156 q 426 157 419 156 q 438 158 433 158 q 455 146 449 158 q 461 129 461 133 z "},"y":{"ha":392,"x_min":24,"x_max":346,"o":"m 346 650 q 313 465 328 554 q 299 387 306 428 q 285 306 292 346 q 274 231 279 267 q 267 167 269 196 q 258 65 261 122 q 253 -43 256 8 q 250 -164 250 -103 q 247 -192 250 -176 q 244 -222 244 -207 q 238 -246 244 -236 q 219 -256 232 -256 q 202 -238 208 -256 q 192 -198 196 -221 q 186 -152 188 -175 q 185 -119 185 -129 q 185 -92 185 -108 q 187 -45 185 -76 q 193 37 189 -14 q 206 169 197 88 q 187 183 206 171 q 141 215 168 196 q 85 256 114 233 q 38 299 57 278 q 29 311 35 301 q 24 335 24 321 q 31 349 24 342 q 46 357 38 357 q 57 351 51 357 q 131 290 89 324 q 213 228 172 256 q 224 304 215 253 q 243 415 233 356 q 262 529 253 474 q 275 618 271 585 q 278 636 275 624 q 286 661 281 649 q 299 683 292 674 q 314 692 306 692 q 332 684 318 692 q 346 650 346 676 z "},"z":{"ha":563,"x_min":43,"x_max":564,"o":"m 564 285 q 562 263 564 274 q 553 249 560 251 q 481 227 525 236 q 399 203 436 218 q 340 176 375 193 q 268 143 306 160 q 196 115 231 126 q 139 103 161 103 q 104 117 121 103 q 88 146 88 131 q 113 213 88 174 q 173 294 139 253 q 240 374 207 336 q 286 436 272 413 q 282 438 285 436 q 274 440 279 440 q 193 415 231 426 q 127 398 161 406 q 72 390 93 390 q 51 403 58 390 q 43 431 43 415 q 45 439 43 435 q 54 443 47 443 q 109 457 72 447 q 188 477 146 467 q 267 495 229 488 q 326 503 306 503 q 359 491 342 503 q 386 461 376 479 l 179 196 l 171 179 q 175 174 171 174 q 206 183 186 174 q 262 211 226 193 q 353 254 297 229 q 493 308 410 279 q 519 313 507 313 q 552 303 540 313 q 564 285 564 293 z "},"~":{"ha":781,"x_min":67,"x_max":717,"o":"m 717 326 q 707 271 717 301 q 677 215 697 240 q 626 172 657 189 q 554 154 596 154 q 488 172 521 154 q 425 214 456 189 q 368 269 394 239 q 321 325 342 300 q 287 367 300 350 q 269 385 274 385 q 231 365 257 385 q 177 321 204 344 q 130 276 150 297 q 108 256 110 256 q 81 243 93 243 q 70 249 74 243 q 67 261 67 254 q 94 308 67 278 q 157 369 121 339 q 228 423 193 400 q 278 446 263 446 q 333 408 301 446 q 399 326 364 371 q 473 243 435 281 q 550 206 511 206 q 596 216 576 206 q 628 243 615 226 q 648 279 642 260 q 654 317 654 299 q 653 326 654 321 q 651 336 651 332 q 672 344 657 339 q 689 350 688 350 q 709 342 701 350 q 717 326 717 333 z "},"":{"ha":486,"x_min":61,"x_max":442,"o":"m 442 306 q 435 289 442 299 q 421 278 429 279 q 374 272 417 276 q 267 268 332 268 q 217 270 247 268 q 150 272 188 272 q 121 268 143 272 q 88 264 99 264 q 61 285 61 264 q 72 308 61 300 q 97 321 83 317 q 123 326 110 325 q 140 326 136 326 q 210 323 186 326 q 253 319 233 319 q 294 321 272 319 q 339 324 317 322 q 381 328 361 326 q 414 331 400 331 q 435 322 429 331 q 442 306 442 313 z "},"":{"ha":619,"x_min":56,"x_max":560,"o":"m 560 292 q 553 275 560 285 q 539 264 547 265 q 492 258 535 263 q 385 254 450 254 q 343 255 375 254 q 274 257 311 256 q 199 259 236 258 q 144 260 163 260 q 115 256 138 260 q 82 251 93 251 q 56 272 56 251 q 67 296 56 288 q 91 308 78 304 q 117 313 104 313 q 135 314 131 314 q 194 313 157 314 q 267 310 231 311 q 332 307 303 308 q 371 306 361 306 q 413 307 390 306 q 457 310 435 308 q 499 315 479 313 q 532 317 518 317 q 553 308 547 317 q 560 292 560 299 z "},"":{"ha":208,"x_min":33,"x_max":156,"o":"m 156 589 q 146 569 156 582 q 124 538 136 557 q 103 492 113 519 q 93 429 93 465 q 102 362 93 392 q 149 303 111 332 q 140 286 149 292 q 122 281 132 281 q 82 297 99 281 q 54 338 65 314 q 38 387 43 361 q 33 432 33 413 q 44 488 33 458 q 72 543 56 518 q 106 585 88 568 q 140 601 125 601 q 150 597 144 601 q 156 589 156 592 z "},"":{"ha":213,"x_min":67,"x_max":163,"o":"m 163 417 q 152 371 163 392 q 128 335 142 350 q 101 313 114 321 q 83 304 89 304 q 73 310 79 304 q 67 325 67 317 q 72 335 67 326 q 85 355 78 343 q 99 383 93 367 q 104 417 104 399 q 97 481 104 453 q 79 538 90 510 q 76 547 78 542 q 74 556 74 553 q 80 568 74 565 q 93 571 86 571 q 115 553 103 571 q 138 513 128 536 q 156 462 149 489 q 163 417 163 435 z "},"":{"ha":331,"x_min":65,"x_max":294,"o":"m 151 571 q 147 536 151 557 q 138 492 143 515 q 128 446 132 469 q 124 403 124 422 q 122 351 124 376 q 110 326 119 326 q 88 337 96 326 q 74 362 79 347 q 67 393 69 376 q 65 422 65 410 q 67 447 65 438 q 68 460 68 457 q 73 491 68 468 q 85 539 78 514 q 103 583 93 564 q 124 603 113 603 q 145 592 139 603 q 151 571 151 582 m 293 553 q 287 538 292 553 q 276 504 282 524 q 265 465 269 485 q 260 438 260 446 q 263 416 260 429 q 278 381 267 403 q 265 368 272 375 q 253 361 258 361 q 233 370 242 361 q 217 392 224 379 q 206 419 210 406 q 201 443 201 433 q 203 469 201 453 q 208 501 206 485 q 216 529 211 517 q 225 546 221 542 q 247 563 236 556 q 274 571 258 571 q 288 569 281 571 q 294 558 294 567 q 294 556 294 557 q 293 553 293 554 z "},"":{"ha":286,"x_min":6,"x_max":236,"o":"m 236 442 q 233 422 236 435 q 224 397 229 410 q 211 375 218 385 q 197 365 204 365 q 181 372 185 365 q 178 390 178 379 q 178 400 178 392 q 181 419 179 408 q 183 442 182 431 q 183 458 183 453 q 176 477 183 465 q 162 501 169 489 q 147 526 154 514 q 140 547 140 539 q 146 561 140 558 q 161 564 151 564 q 198 547 183 564 q 221 509 213 531 q 233 467 229 488 q 236 442 236 447 m 117 453 q 112 415 117 433 q 99 381 107 396 q 83 358 92 367 q 65 349 74 349 q 50 367 50 349 q 58 403 50 386 q 65 435 65 419 q 56 467 65 449 q 35 502 47 485 q 15 533 24 519 q 6 551 6 547 q 35 582 6 582 q 60 566 46 582 q 88 528 75 550 q 108 485 100 507 q 117 453 117 464 z "},"":{"ha":682,"x_min":64,"x_max":622,"o":"m 622 279 q 613 234 622 256 q 588 194 603 213 q 555 159 572 175 q 522 132 538 143 q 497 113 517 128 q 453 83 478 99 q 405 56 429 68 q 365 44 381 44 q 349 55 354 44 q 343 72 343 65 q 353 99 343 81 q 378 128 363 117 q 388 132 382 131 q 400 135 393 133 q 414 136 406 136 q 485 181 453 157 q 535 224 513 200 q 557 275 557 249 q 544 283 557 279 q 503 288 531 288 q 446 278 475 288 q 390 258 417 269 q 343 238 364 247 q 310 229 322 229 q 276 242 286 229 q 267 269 267 256 q 272 301 267 285 q 293 328 278 318 q 341 368 311 339 q 401 432 371 397 q 455 500 431 467 q 486 554 479 533 q 507 544 497 554 q 517 517 517 535 q 501 454 517 483 q 460 399 485 425 q 409 351 436 374 q 360 307 382 328 q 428 336 389 321 q 494 351 468 351 q 522 350 501 351 q 565 342 543 349 q 605 321 588 336 q 622 279 622 306 m 443 751 q 446 741 444 749 q 447 725 447 733 q 440 715 447 715 q 433 717 438 715 q 426 719 429 718 q 399 734 414 725 q 365 752 383 743 q 326 767 347 761 q 283 774 306 774 q 203 736 233 774 q 156 649 172 699 q 135 553 140 600 q 131 485 131 506 q 139 401 131 440 q 160 328 147 363 q 186 263 172 293 q 211 204 200 232 q 238 150 219 185 q 273 74 256 115 q 304 -10 290 33 q 318 -89 318 -53 q 315 -115 318 -96 q 305 -153 311 -133 q 288 -187 299 -172 q 263 -203 276 -203 q 238 -197 251 -203 q 225 -175 225 -190 q 236 -133 225 -153 q 247 -92 247 -114 q 233 -25 247 -68 q 200 63 218 18 q 166 142 182 107 q 146 183 150 176 q 116 249 131 211 q 90 331 101 288 q 71 422 78 375 q 64 515 64 469 q 76 621 64 565 q 113 723 88 676 q 178 799 139 769 q 271 829 217 829 q 324 823 296 829 q 377 806 353 817 q 419 782 401 796 q 443 751 438 768 z "},"":{"ha":372,"x_min":86,"x_max":306,"o":"m 306 700 q 289 668 306 689 q 249 625 272 647 q 202 584 226 603 q 164 558 178 565 q 144 551 153 553 q 131 550 136 550 q 103 563 119 550 q 86 586 86 575 q 99 594 86 589 q 126 607 111 599 q 163 634 140 615 q 209 672 186 653 q 251 704 232 690 q 276 718 269 718 q 296 713 286 718 q 306 700 306 707 z "},"":{"ha":676,"x_min":76,"x_max":715,"o":"m 715 289 q 692 227 715 264 q 631 156 669 190 q 540 97 592 121 q 433 72 489 72 q 381 81 408 72 q 326 105 353 89 q 279 144 300 121 q 249 196 258 167 q 228 168 240 188 q 203 128 217 149 q 172 94 189 108 q 138 79 156 79 q 108 98 119 79 q 89 140 96 117 q 79 183 82 163 q 76 207 76 204 q 86 270 76 224 q 115 367 96 317 q 165 456 135 417 q 235 494 194 494 q 255 481 250 494 q 260 456 260 468 l 260 414 q 274 406 267 408 q 288 401 282 404 q 298 390 294 397 q 301 368 301 383 q 300 351 301 358 q 299 336 299 343 q 304 265 299 300 q 326 203 310 231 q 372 159 343 176 q 450 142 401 142 q 553 167 511 142 q 624 224 596 193 q 669 281 653 256 q 697 307 686 307 q 715 289 715 307 m 228 350 q 225 360 228 356 q 222 369 222 365 q 225 379 222 375 q 228 390 228 383 q 225 397 228 394 q 222 401 222 399 q 197 378 210 399 q 172 329 183 357 q 153 273 160 301 q 146 226 146 244 q 151 194 146 217 q 164 165 157 172 q 208 260 188 214 q 228 350 228 306 m 401 700 q 385 668 401 689 q 345 625 368 647 q 298 584 322 603 q 260 558 274 565 q 240 551 249 553 q 226 550 232 550 q 199 563 215 550 q 182 586 182 575 q 194 594 182 589 q 222 607 207 599 q 259 634 236 615 q 305 672 282 653 q 347 704 328 690 q 372 718 365 718 q 392 713 382 718 q 401 700 401 707 z "},"":{"ha":485,"x_min":67,"x_max":443,"o":"m 442 146 q 443 138 443 143 q 431 113 443 129 q 413 94 426 107 q 375 69 399 82 q 317 47 351 57 q 238 38 283 38 q 175 52 206 38 q 121 95 144 67 q 82 166 97 124 q 67 265 67 208 q 81 367 67 319 q 116 450 94 414 q 164 507 138 486 q 215 528 190 528 q 260 519 238 528 q 302 496 283 510 q 332 465 321 482 q 343 429 343 447 q 324 386 343 408 q 279 345 306 364 q 226 315 253 326 q 185 303 200 303 q 170 310 176 303 q 164 329 164 318 q 181 360 164 349 q 219 380 199 371 q 258 401 240 389 q 275 436 275 414 q 268 450 275 439 q 231 461 261 461 q 199 445 217 461 q 164 402 181 429 q 136 338 147 375 q 125 258 125 301 q 138 193 125 222 q 172 144 151 164 q 221 113 193 124 q 278 101 249 101 q 323 110 299 101 q 369 130 347 119 q 406 149 390 140 q 426 158 422 158 q 435 154 431 158 q 442 146 440 150 m 363 733 q 346 701 363 722 q 306 658 329 681 q 259 617 283 636 q 221 592 235 599 q 201 585 210 586 q 188 583 193 583 q 160 596 176 583 q 143 619 143 608 q 156 627 143 622 q 183 640 168 632 q 220 667 197 649 q 266 705 243 686 q 308 738 289 724 q 333 751 326 751 q 353 746 343 751 q 363 733 363 740 z "},"":{"ha":389,"x_min":86,"x_max":350,"o":"m 304 300 q 296 242 304 269 q 274 193 288 214 q 241 160 260 172 q 200 149 222 149 q 139 171 161 149 q 105 222 117 193 q 90 281 93 251 q 86 326 86 311 q 94 383 86 351 q 115 440 101 414 q 144 485 128 467 q 179 503 161 503 q 192 500 183 503 q 211 492 201 497 q 228 478 221 486 q 239 458 236 469 q 269 447 254 457 q 286 432 285 438 q 301 360 297 396 q 304 300 304 324 m 242 325 q 238 369 242 346 q 221 415 233 392 q 214 414 218 414 q 205 415 208 414 q 199 417 201 417 q 172 408 182 417 q 158 384 163 399 q 151 353 153 369 q 150 321 150 336 q 151 287 150 306 q 158 251 153 268 q 171 223 163 235 q 193 211 179 211 q 217 226 207 211 q 232 260 226 240 q 240 298 238 279 q 242 325 242 317 m 350 706 q 333 674 350 694 q 294 631 317 653 q 247 590 271 608 q 208 564 222 571 q 189 557 197 558 q 175 556 181 556 q 147 568 164 556 q 131 592 131 581 q 143 599 131 594 q 171 613 156 604 q 208 640 185 621 q 253 677 231 658 q 295 710 276 696 q 321 724 314 724 q 340 718 331 724 q 350 706 350 713 z "},"":{"ha":513,"x_min":61,"x_max":513,"o":"m 513 231 q 496 204 513 218 q 457 178 479 190 q 412 158 435 167 q 378 150 389 150 q 351 157 365 150 q 323 174 336 164 q 300 192 310 183 q 288 203 290 200 q 275 186 283 199 q 255 159 267 174 q 230 133 243 144 q 203 122 217 122 q 140 161 167 122 q 97 250 114 200 q 70 347 79 300 q 61 410 61 393 q 72 426 61 419 q 88 432 82 432 q 114 419 107 432 q 121 390 121 406 q 128 346 121 378 q 147 281 136 314 q 171 222 158 247 q 193 196 183 196 q 224 219 211 196 q 246 272 238 242 q 258 328 254 301 q 263 364 263 356 q 263 373 263 365 q 265 389 264 381 q 267 404 267 397 q 268 414 268 411 q 264 427 268 424 q 260 442 260 431 q 268 458 260 450 q 304 465 276 465 q 322 459 315 465 q 331 444 328 453 q 334 428 333 436 q 335 418 335 421 q 333 399 335 417 q 331 359 332 381 q 329 318 331 338 q 328 294 328 299 q 332 278 328 290 q 342 252 336 265 q 357 228 349 239 q 375 218 365 218 q 406 223 392 218 q 434 234 421 228 q 458 245 447 240 q 479 250 469 250 q 502 244 492 250 q 513 231 513 239 m 335 676 q 318 644 335 665 q 278 601 301 624 q 231 560 256 579 q 193 535 207 542 q 174 528 182 529 q 160 526 165 526 q 132 539 149 526 q 115 563 115 551 q 128 570 115 565 q 156 583 140 575 q 192 610 169 592 q 238 648 215 629 q 280 681 261 667 q 306 694 299 694 q 325 689 315 694 q 335 676 335 683 z "},"":{"ha":564,"x_min":76,"x_max":493,"o":"m 492 -61 q 493 -72 493 -67 q 493 -79 493 -76 q 487 -99 493 -93 q 463 -104 481 -104 q 440 -99 446 -104 q 418 -56 432 -90 q 389 26 404 -21 q 359 128 374 74 q 333 231 344 182 q 292 216 318 224 q 238 201 265 208 q 171 186 206 194 q 152 84 158 126 q 141 15 146 42 q 128 -26 136 -12 q 104 -39 121 -39 q 85 -26 93 -39 q 76 11 76 -14 q 83 69 76 24 q 99 172 90 115 q 115 283 107 228 q 126 371 124 339 q 135 425 128 388 q 151 502 143 463 q 168 574 160 542 q 179 610 176 606 q 208 715 201 661 q 217 815 214 769 q 229 888 221 860 q 264 917 238 917 q 278 906 271 917 q 293 879 286 894 q 304 849 300 864 q 310 826 308 835 q 313 793 311 818 q 317 738 315 768 q 322 680 319 708 q 325 636 324 651 q 338 533 329 590 q 357 426 347 476 q 375 342 367 376 q 388 308 383 308 q 402 311 393 308 q 419 314 411 314 q 431 303 431 314 q 425 285 431 292 q 413 272 419 278 q 402 263 407 267 q 397 253 397 258 q 410 196 397 242 l 432 114 q 444 76 435 103 q 465 22 454 50 q 483 -31 475 -7 q 492 -61 492 -56 m 183 257 q 214 262 192 257 q 260 274 236 267 q 301 288 283 281 q 319 299 319 294 q 315 320 319 303 q 303 365 310 338 q 290 426 297 392 q 278 500 283 461 q 271 568 275 525 q 263 653 267 611 q 256 726 258 696 q 253 757 253 757 q 249 737 253 757 q 240 692 244 717 q 231 647 235 668 q 228 622 228 625 l 228 583 q 224 559 228 581 q 215 505 221 538 q 203 434 210 472 q 192 361 197 396 q 183 299 186 326 q 179 263 179 272 q 183 257 179 257 m 403 1133 q 386 1101 403 1122 q 347 1058 369 1081 q 299 1017 324 1036 q 261 992 275 999 q 242 985 250 986 q 228 983 233 983 q 200 996 217 983 q 183 1019 183 1008 q 196 1027 183 1022 q 224 1040 208 1032 q 260 1067 238 1049 q 306 1105 283 1086 q 348 1138 329 1124 q 374 1151 367 1151 q 393 1146 383 1151 q 403 1133 403 1140 z "},"":{"ha":554,"x_min":67,"x_max":611,"o":"m 611 -64 q 603 -85 611 -81 q 583 -90 594 -90 q 561 -87 575 -90 q 541 -74 554 -86 q 513 -47 528 -62 q 476 -10 496 -31 l 407 69 q 394 52 404 65 q 370 24 385 39 q 336 -1 356 10 q 294 -12 317 -12 q 258 -3 279 -12 q 214 22 236 6 q 170 63 192 39 q 133 115 149 86 q 101 194 114 153 q 80 276 88 235 q 69 359 72 318 q 67 436 67 400 q 72 510 67 488 q 104 532 76 532 q 122 524 115 532 q 128 508 128 517 q 139 351 128 431 q 171 205 150 271 q 223 97 192 139 q 296 56 254 56 q 328 69 314 56 q 351 100 342 82 q 364 135 360 118 q 369 160 368 151 q 352 212 361 179 q 336 283 343 244 q 325 364 329 322 q 321 444 321 406 q 322 542 321 504 q 326 602 322 581 q 339 631 331 624 q 363 639 347 639 q 378 634 371 639 q 391 624 386 629 q 399 613 396 618 q 401 606 401 607 q 399 597 401 600 q 396 588 396 593 q 399 556 396 576 q 407 513 403 535 q 423 411 415 468 q 431 279 431 354 l 431 221 q 442 176 431 210 q 496 76 454 142 q 548 6 524 32 q 588 -36 572 -21 q 604 -52 597 -44 q 611 -64 611 -60 m 399 400 q 394 421 397 408 q 388 446 392 433 q 383 467 385 458 q 381 475 381 475 q 381 438 381 460 q 384 395 382 417 q 389 353 386 374 q 396 319 392 333 q 397 339 396 329 q 398 358 397 347 q 399 379 399 368 l 399 400 m 364 807 q 347 775 364 796 q 308 732 331 754 q 260 691 285 710 q 222 665 236 672 q 203 658 211 660 q 189 657 194 657 q 161 669 178 657 q 144 693 144 682 q 157 701 144 696 q 185 714 169 706 q 222 741 199 722 q 267 778 244 760 q 309 811 290 797 q 335 825 328 825 q 354 819 344 825 q 364 807 364 814 z "},"^":{"ha":800,"x_min":144,"x_max":679,"o":"m 303 608 q 316 658 311 649 q 336 668 321 668 q 358 658 350 668 q 378 630 367 649 q 409 583 390 611 q 464 517 428 554 q 508 478 474 504 q 581 426 543 453 q 649 373 619 399 q 679 335 679 347 q 674 318 679 328 q 658 308 668 308 q 624 322 646 308 q 573 358 601 336 q 512 408 544 381 q 449 464 479 436 q 392 517 419 492 q 349 560 365 542 q 297 392 328 476 q 233 228 265 307 l 189 114 q 179 108 183 111 q 169 106 175 106 q 153 111 163 106 q 144 125 144 117 q 153 165 144 136 q 175 227 163 193 q 201 294 188 261 q 222 347 214 326 q 242 403 231 369 q 265 473 253 436 q 286 545 276 510 q 303 608 296 581 z "},"":{"ha":547,"x_min":76,"x_max":474,"o":"m 421 -47 q 405 -21 413 -39 q 386 36 397 -3 q 356 24 371 29 q 326 14 342 19 q 278 -1 308 8 q 215 -18 247 -10 q 151 -33 182 -26 q 104 -39 121 -39 q 85 -26 93 -39 q 76 11 76 -14 q 83 69 76 24 q 99 172 90 115 q 115 283 107 228 q 126 371 124 339 q 135 425 128 388 q 151 502 143 463 q 168 574 160 542 q 179 610 176 606 q 201 715 193 661 q 217 815 208 769 q 235 888 225 860 q 264 917 246 917 q 278 906 271 917 q 293 879 286 894 q 304 849 300 864 q 310 826 308 835 q 313 793 311 818 q 317 738 315 768 q 322 680 319 708 q 325 636 324 651 q 342 509 331 574 q 365 385 353 444 q 389 277 376 326 q 410 196 401 228 l 432 114 l 458 117 q 474 100 474 117 q 463 85 474 93 q 446 71 453 78 q 460 33 454 46 q 468 10 465 19 q 472 -8 471 0 q 474 -28 474 -15 q 467 -47 474 -42 q 443 -53 461 -53 q 421 -47 426 -53 m 171 186 q 160 104 164 142 q 151 42 156 67 q 203 51 179 46 q 253 65 228 57 q 307 81 279 72 q 368 97 335 89 q 343 194 356 143 q 319 299 331 244 q 315 320 319 303 q 303 365 310 338 q 290 426 297 392 q 278 500 283 461 q 271 568 275 525 q 263 653 267 611 q 256 726 258 696 q 253 757 253 757 q 249 736 253 757 q 240 688 244 715 q 231 631 235 660 q 228 583 228 601 l 171 186 z "},"":{"ha":576,"x_min":33,"x_max":488,"o":"m 436 422 q 447 417 443 422 q 450 406 450 411 q 446 399 450 400 q 393 379 426 392 q 319 352 360 367 q 235 322 278 338 q 158 294 193 307 l 156 278 q 154 266 154 271 q 154 258 154 261 l 154 235 q 209 248 181 240 q 264 261 238 256 q 310 271 290 267 q 338 275 329 275 q 367 272 353 275 q 382 258 382 269 q 360 242 382 251 q 304 221 338 232 q 232 199 271 210 q 160 181 193 189 q 213 91 174 129 q 315 53 251 53 q 357 59 332 53 q 406 78 382 65 q 447 107 429 90 q 469 144 465 124 q 485 136 482 143 q 488 126 488 129 q 470 65 488 90 q 428 23 453 39 q 375 0 403 7 q 325 -7 347 -7 q 171 40 224 -7 q 104 167 118 86 q 76 163 81 163 q 43 171 53 163 q 33 200 33 179 q 40 221 33 215 q 53 226 47 226 q 65 222 60 226 q 75 218 69 218 q 99 222 79 218 l 99 233 q 101 257 99 239 q 103 282 103 275 q 95 288 103 286 q 78 293 88 290 q 62 301 69 296 q 54 317 54 307 q 61 329 54 324 q 78 340 68 335 q 98 349 88 344 q 114 357 108 353 q 158 470 128 419 q 231 556 189 521 q 323 610 272 592 q 428 629 374 629 q 444 622 439 629 q 450 606 450 614 q 433 592 450 597 q 408 585 417 586 q 335 564 369 578 q 269 524 300 550 q 214 459 239 499 q 169 364 189 419 q 256 392 213 381 q 335 410 299 403 q 398 419 371 417 q 436 422 425 422 z "},"":{"ha":351,"x_min":61,"x_max":324,"o":"m 317 746 q 324 726 324 739 q 316 704 324 715 q 301 683 308 693 q 260 637 282 661 q 215 592 239 613 q 168 559 192 572 q 121 546 144 546 q 93 564 104 546 q 74 608 82 582 q 64 663 67 635 q 61 713 61 692 q 65 734 61 725 q 83 743 68 743 q 99 732 96 743 q 120 665 108 692 q 144 618 132 638 q 170 637 156 625 q 199 663 185 649 q 227 693 214 678 q 250 722 240 708 q 264 747 260 735 q 286 758 268 758 q 304 753 294 758 q 317 746 314 749 z "},"":{"ha":563,"x_min":43,"x_max":564,"o":"m 564 285 q 562 263 564 274 q 553 249 560 251 q 481 227 525 236 q 399 203 436 218 q 340 176 375 193 q 268 143 306 160 q 196 115 231 126 q 139 103 161 103 q 104 117 121 103 q 88 146 88 131 q 113 213 88 174 q 173 294 139 253 q 240 374 207 336 q 286 436 272 413 q 282 438 285 436 q 274 440 279 440 q 193 415 231 426 q 127 398 161 406 q 72 390 93 390 q 51 403 58 390 q 43 431 43 415 q 45 439 43 435 q 54 443 47 443 q 109 457 72 447 q 188 477 146 467 q 267 495 229 488 q 326 503 306 503 q 359 491 342 503 q 386 461 376 479 l 179 196 l 171 179 q 175 174 171 174 q 206 183 186 174 q 262 211 226 193 q 353 254 297 229 q 493 308 410 279 q 519 313 507 313 q 552 303 540 313 q 564 285 564 293 m 379 758 q 386 739 386 751 q 378 717 386 728 q 364 696 371 706 q 323 649 344 674 q 278 605 301 625 q 231 572 254 585 q 183 558 207 558 q 156 576 167 558 q 137 621 144 594 q 126 676 129 647 q 124 725 124 704 q 127 747 124 738 q 146 756 131 756 q 161 744 158 756 q 183 677 171 704 q 207 631 194 650 q 233 649 218 638 q 262 676 247 661 q 290 706 276 690 q 313 735 303 721 q 326 759 322 747 q 349 771 331 771 q 367 766 357 771 q 379 758 376 761 z "},"":{"ha":417,"x_min":56,"x_max":400,"o":"m 386 558 q 376 553 383 557 q 361 550 368 550 q 332 556 346 550 q 307 568 318 561 q 266 599 283 581 q 235 638 249 618 q 210 675 221 657 q 190 703 199 693 q 147 658 171 679 q 90 617 124 638 q 75 611 79 611 q 60 619 65 611 q 56 632 56 626 q 63 647 56 640 q 96 686 79 664 q 129 729 113 708 q 161 764 146 750 q 189 778 176 778 q 233 758 214 778 q 270 709 251 738 q 310 651 289 681 q 361 600 331 621 q 388 594 375 600 q 400 579 400 589 q 394 567 400 572 q 386 558 389 561 z "},"":{"ha":485,"x_min":67,"x_max":443,"o":"m 442 146 q 443 138 443 143 q 431 113 443 129 q 413 94 426 107 q 375 69 399 82 q 317 47 351 57 q 238 38 283 38 q 175 52 206 38 q 121 95 144 67 q 82 166 97 124 q 67 265 67 208 q 81 367 67 319 q 116 450 94 414 q 164 507 138 486 q 215 528 190 528 q 260 519 238 528 q 302 496 283 510 q 332 465 321 482 q 343 429 343 447 q 324 386 343 408 q 279 345 306 364 q 226 315 253 326 q 185 303 200 303 q 170 310 176 303 q 164 329 164 318 q 181 360 164 349 q 219 380 199 371 q 258 401 240 389 q 275 436 275 414 q 268 450 275 439 q 231 461 261 461 q 199 445 217 461 q 164 402 181 429 q 136 338 147 375 q 125 258 125 301 q 138 193 125 222 q 172 144 151 164 q 221 113 193 124 q 278 101 249 101 q 323 110 299 101 q 369 130 347 119 q 406 149 390 140 q 426 158 422 158 q 435 154 431 158 q 442 146 440 150 m 428 558 q 417 553 425 557 q 403 550 410 550 q 374 556 388 550 q 349 568 360 561 q 308 599 325 581 q 276 638 290 618 q 251 675 263 657 q 232 703 240 693 q 189 658 213 679 q 132 617 165 638 q 117 611 121 611 q 102 619 107 611 q 97 632 97 626 q 104 647 97 640 q 138 686 121 664 q 171 729 154 708 q 203 764 188 750 q 231 778 218 778 q 274 758 256 778 q 312 709 293 738 q 351 651 331 681 q 403 600 372 621 q 429 594 417 600 q 442 579 442 589 q 436 567 442 572 q 428 558 431 561 z "},"":{"ha":464,"x_min":69,"x_max":401,"o":"m 383 831 q 357 785 383 815 q 294 722 331 754 q 329 628 313 678 q 357 531 346 579 q 375 439 368 483 q 382 358 382 394 l 382 268 q 383 255 382 263 q 388 240 385 247 q 396 217 390 233 q 401 199 401 200 q 398 183 401 193 q 389 165 394 174 q 378 149 383 156 q 367 142 372 142 q 353 149 361 142 q 336 157 344 157 q 319 142 329 157 q 278 100 306 117 q 226 83 250 83 q 178 106 206 83 q 126 164 150 129 q 86 239 103 199 q 69 314 69 279 q 74 363 69 339 q 90 407 78 388 q 124 438 103 426 q 181 450 146 450 q 216 442 196 450 q 256 421 236 433 q 292 392 275 408 q 317 361 308 376 q 297 517 315 432 q 244 678 278 601 q 200 644 221 658 q 168 624 179 631 q 144 615 156 617 q 128 614 133 614 q 96 627 114 614 q 76 653 78 640 q 90 657 76 653 l 125 675 q 162 701 136 682 q 213 740 188 721 q 169 804 193 775 q 119 853 146 833 q 103 865 111 860 q 96 878 96 871 q 108 896 96 885 q 149 907 121 907 q 208 872 176 907 q 267 783 239 838 q 321 826 296 807 q 353 844 346 844 q 374 840 364 844 q 383 831 383 836 m 132 324 q 142 276 132 304 q 167 222 151 249 q 202 178 182 196 q 242 160 222 160 q 263 170 250 160 q 285 195 275 181 q 303 225 296 210 q 311 250 311 240 q 297 283 311 261 q 263 327 283 306 q 218 365 242 349 q 174 382 194 382 q 141 367 150 382 q 132 324 132 353 z "},"":{"ha":392,"x_min":24,"x_max":350,"o":"m 346 650 q 313 465 328 554 q 299 387 306 428 q 285 306 292 346 q 274 231 279 267 q 267 167 269 196 q 258 65 261 122 q 253 -43 256 8 q 250 -164 250 -103 q 247 -192 250 -176 q 244 -222 244 -207 q 238 -246 244 -236 q 219 -256 232 -256 q 202 -238 208 -256 q 192 -198 196 -221 q 186 -152 188 -175 q 185 -119 185 -129 q 185 -92 185 -108 q 187 -45 185 -76 q 193 37 189 -14 q 206 169 197 88 q 187 183 206 171 q 141 215 168 196 q 85 256 114 233 q 38 299 57 278 q 29 311 35 301 q 24 335 24 321 q 31 349 24 342 q 46 357 38 357 q 57 351 51 357 q 131 290 89 324 q 213 228 172 256 q 224 304 215 253 q 243 415 233 356 q 262 529 253 474 q 275 618 271 585 q 278 636 275 624 q 286 661 281 649 q 299 683 292 674 q 314 692 306 692 q 332 684 318 692 q 346 650 346 676 m 350 840 q 333 808 350 829 q 294 765 317 788 q 247 724 271 743 q 208 699 222 706 q 189 692 197 693 q 175 690 181 690 q 147 703 164 690 q 131 726 131 715 q 143 734 131 729 q 171 747 156 739 q 208 774 185 756 q 253 812 231 793 q 295 844 276 831 q 321 858 314 858 q 340 853 331 858 q 350 840 350 847 z "},"":{"ha":478,"x_min":50,"x_max":411,"o":"m 257 -275 q 249 -300 257 -292 q 228 -308 240 -308 q 206 -272 218 -308 q 179 -183 193 -236 q 153 -65 165 -129 q 130 53 140 -1 q 113 147 119 108 q 107 188 107 185 q 103 227 107 193 q 92 314 99 261 q 78 433 86 367 q 65 569 71 499 q 54 707 58 639 q 50 832 50 775 q 53 867 50 846 q 76 888 57 888 q 98 883 92 888 q 110 854 104 879 q 119 784 115 825 q 124 700 122 743 q 128 615 126 657 q 133 539 129 572 q 144 441 140 486 q 154 354 147 396 q 175 402 163 376 q 203 449 188 428 q 239 485 219 471 q 281 500 258 500 q 315 489 293 500 q 358 451 338 478 q 395 382 379 425 q 411 276 411 339 q 399 188 411 226 q 368 123 386 149 q 330 84 350 97 q 296 71 310 71 q 257 85 276 71 q 238 114 238 99 q 256 136 238 136 q 271 135 263 136 q 285 131 279 133 q 326 185 308 150 q 343 276 343 221 q 335 337 343 310 q 315 383 326 364 q 292 413 303 403 q 276 424 281 424 q 245 398 263 424 q 213 339 228 372 q 185 273 197 306 q 172 225 174 240 q 184 153 176 190 q 199 71 192 115 l 257 -275 l 257 -275 z "},"":{"ha":758,"x_min":32,"x_max":726,"o":"m 510 996 q 511 986 511 993 q 511 971 511 979 q 504 961 511 961 q 497 963 501 961 q 490 965 493 964 q 430 994 465 976 q 350 1011 394 1011 q 269 974 300 1011 q 223 887 239 936 q 202 790 207 838 q 197 722 197 743 q 202 674 197 707 q 215 607 207 642 q 235 544 224 572 q 257 508 246 515 q 287 510 265 508 q 322 511 308 511 q 367 507 346 511 q 410 503 388 503 q 426 503 415 503 q 449 501 438 503 q 469 497 461 500 q 478 488 478 493 q 468 475 478 481 q 446 466 458 469 q 421 461 433 463 q 401 460 408 460 q 383 460 394 460 q 359 463 372 461 q 334 465 346 464 q 314 465 322 465 q 287 460 292 465 q 282 442 282 456 q 301 385 282 421 q 342 310 319 350 q 383 226 364 269 q 401 147 401 183 q 398 122 401 140 q 388 83 394 103 q 371 49 382 64 q 346 33 360 33 q 326 40 335 33 q 317 61 317 46 q 328 103 317 83 q 340 144 340 122 q 330 182 340 156 q 304 241 319 208 q 271 310 289 274 q 237 376 253 346 q 210 425 221 406 q 197 446 199 444 q 140 426 169 436 q 88 397 111 417 q 69 388 78 388 q 44 399 56 388 q 32 424 32 410 q 41 448 32 439 q 58 461 50 457 q 97 476 71 468 q 150 490 124 485 q 168 495 160 493 q 176 504 176 497 q 165 541 172 518 q 149 596 157 564 q 136 667 142 628 q 131 753 131 707 q 142 858 131 803 q 180 960 154 914 q 244 1037 206 1007 q 338 1067 283 1067 q 393 1062 363 1067 q 449 1048 424 1057 q 492 1026 475 1039 q 510 996 510 1013 m 681 639 q 671 628 681 636 q 648 610 661 619 q 621 594 635 601 q 599 588 607 588 q 584 588 593 588 q 566 593 575 589 q 550 605 557 597 q 543 625 543 613 q 557 662 543 644 q 593 679 571 679 q 612 676 597 679 q 642 667 626 672 q 669 654 657 661 q 681 639 681 647 m 726 119 q 712 103 726 110 q 690 96 697 96 q 665 114 676 96 q 646 156 654 132 q 632 201 638 179 q 624 231 626 222 q 613 264 619 244 q 599 301 606 283 q 589 333 593 319 q 585 349 585 347 q 592 385 585 368 q 611 401 600 401 q 638 382 625 401 q 665 333 651 363 q 689 267 678 303 q 708 201 700 232 q 722 147 717 169 q 726 119 726 124 z "},"":{"ha":836,"x_min":32,"x_max":783,"o":"m 510 996 q 511 986 511 993 q 511 971 511 979 q 504 961 511 961 q 497 963 501 961 q 490 965 493 964 q 430 994 465 976 q 350 1011 394 1011 q 269 974 300 1011 q 223 887 239 936 q 202 790 207 838 q 197 722 197 743 q 202 674 197 707 q 215 607 207 642 q 235 544 224 572 q 257 508 246 515 q 287 510 265 508 q 322 511 308 511 q 367 507 346 511 q 410 503 388 503 q 426 503 415 503 q 449 501 438 503 q 469 497 461 500 q 478 488 478 493 q 468 475 478 481 q 446 466 458 469 q 421 461 433 463 q 401 460 408 460 q 383 460 394 460 q 359 463 372 461 q 334 465 346 464 q 314 465 322 465 q 287 460 292 465 q 282 442 282 456 q 301 385 282 421 q 342 310 319 350 q 383 226 364 269 q 401 147 401 183 q 398 122 401 140 q 388 83 394 103 q 371 49 382 64 q 346 33 360 33 q 326 40 335 33 q 317 61 317 46 q 328 103 317 83 q 340 144 340 122 q 330 182 340 156 q 304 241 319 208 q 271 310 289 274 q 237 376 253 346 q 210 425 221 406 q 197 446 199 444 q 140 426 169 436 q 88 397 111 417 q 69 388 78 388 q 44 399 56 388 q 32 424 32 410 q 41 448 32 439 q 58 461 50 457 q 97 476 71 468 q 150 490 124 485 q 168 495 160 493 q 176 504 176 497 q 165 541 172 518 q 149 596 157 564 q 136 667 142 628 q 131 753 131 707 q 142 858 131 803 q 180 960 154 914 q 244 1037 206 1007 q 338 1067 283 1067 q 393 1062 363 1067 q 449 1048 424 1057 q 492 1026 475 1039 q 510 996 510 1013 m 783 40 q 775 24 783 29 q 756 18 767 18 q 730 42 743 18 q 704 101 717 65 q 681 180 692 138 q 661 259 669 222 q 648 321 653 296 q 643 349 643 346 q 638 378 643 354 q 626 451 633 401 q 609 581 618 501 q 590 779 600 661 q 594 811 590 792 q 614 831 599 831 q 644 804 633 831 q 660 739 654 778 q 669 658 667 700 q 676 583 672 615 q 687 503 682 539 q 697 431 692 467 q 709 357 701 396 q 728 271 717 318 l 783 40 z "},"":{"ha":781,"x_min":76,"x_max":703,"o":"m 492 -61 q 493 -72 493 -67 q 493 -79 493 -76 q 487 -99 493 -93 q 463 -104 481 -104 q 440 -99 446 -104 q 414 -47 432 -90 l 413 -47 q 381 -37 397 -47 q 364 -11 364 -26 q 374 -1 364 -3 q 396 4 385 1 q 363 115 379 54 q 333 231 346 176 q 292 216 318 224 q 238 201 265 208 q 171 186 206 194 q 152 84 158 126 q 141 15 146 42 q 128 -26 136 -12 q 104 -39 121 -39 q 85 -26 93 -39 q 76 11 76 -14 q 83 69 76 24 q 99 172 90 115 q 115 283 107 228 q 126 371 124 339 q 135 425 128 388 q 151 502 143 463 q 168 574 160 542 q 179 610 176 606 q 208 715 201 661 q 217 815 214 769 q 229 888 221 860 q 264 917 238 917 q 278 906 271 917 q 293 879 286 894 q 304 849 300 864 q 310 826 308 835 q 313 793 311 818 q 317 738 315 768 q 322 680 319 708 q 325 636 324 651 q 328 606 326 621 q 332 575 329 590 q 395 603 361 592 q 449 621 429 615 q 481 629 460 624 q 526 640 503 635 q 572 650 550 646 q 603 654 593 654 q 619 648 614 654 q 625 633 625 642 q 591 611 625 625 q 511 581 557 597 q 417 546 465 564 q 342 510 369 528 q 353 444 347 476 q 364 385 358 413 q 374 340 369 358 q 383 313 379 321 q 481 346 439 331 q 553 373 522 361 q 609 394 585 385 q 657 408 633 403 q 665 406 660 408 q 671 399 671 404 q 664 386 671 390 q 619 358 649 375 q 553 322 590 340 q 476 284 517 303 q 397 250 435 265 q 410 196 397 238 l 432 114 q 444 76 435 103 q 465 19 454 49 q 563 53 511 32 q 651 89 615 74 q 667 99 657 92 q 686 106 676 106 q 698 99 693 106 q 703 85 703 92 q 694 68 703 74 q 667 51 686 61 q 627 30 649 40 q 585 10 606 19 q 556 -4 565 0 q 525 -17 544 -10 q 483 -32 506 -25 q 492 -61 492 -53 m 183 257 q 214 262 192 257 q 260 274 236 267 q 301 288 283 281 q 319 299 319 294 q 315 320 319 303 q 303 365 310 338 q 290 426 297 392 q 278 500 283 461 q 271 568 275 525 q 263 653 267 611 q 256 726 258 696 q 253 757 253 757 q 249 737 253 757 q 240 692 244 717 q 231 647 235 668 q 228 622 228 625 l 228 583 q 224 559 228 581 q 215 505 221 538 q 203 434 210 472 q 192 361 197 396 q 183 299 186 326 q 179 263 179 272 q 183 257 179 257 z "},"":{"ha":449,"x_min":46,"x_max":394,"o":"m 394 658 q 389 626 394 643 q 372 595 383 610 q 342 571 360 581 q 301 561 325 561 q 264 571 283 561 q 226 595 244 581 q 192 628 208 610 q 164 667 176 647 l 89 608 q 67 600 78 600 q 49 606 51 600 q 46 621 46 611 q 62 648 46 629 q 99 685 78 667 q 142 719 121 704 q 175 733 164 733 q 204 716 189 733 q 235 679 219 699 q 271 636 256 653 q 300 619 286 619 q 319 635 315 619 q 324 665 324 651 q 323 671 324 668 q 322 676 322 674 q 341 691 333 688 q 358 694 349 694 q 385 681 375 694 q 394 658 394 667 z "},"":{"ha":489,"x_min":65,"x_max":472,"o":"m 472 171 q 467 154 472 163 q 453 139 461 146 q 437 127 446 132 q 421 122 428 122 q 360 133 397 122 q 301 165 324 143 q 260 222 278 189 q 219 318 242 254 q 184 197 204 257 q 119 88 164 138 q 111 85 117 85 q 90 94 101 85 q 79 114 79 104 q 77 159 79 124 q 72 238 75 194 q 67 327 69 282 q 65 401 65 372 q 67 438 65 415 q 75 478 68 461 q 85 489 76 481 q 106 497 94 497 q 117 485 115 497 q 118 457 118 472 l 118 238 q 120 218 118 231 q 126 200 122 206 q 155 278 142 233 q 181 365 168 324 q 206 434 193 406 q 231 463 218 463 q 253 457 244 463 q 267 435 261 451 q 278 363 274 394 q 288 307 282 332 q 306 260 294 282 q 339 221 318 239 q 383 194 358 203 q 425 186 407 186 q 443 190 433 186 q 457 193 453 193 q 467 183 463 193 q 472 171 472 174 m 418 658 q 413 626 418 643 q 395 595 407 610 q 366 571 383 581 q 325 561 349 561 q 288 571 307 561 q 250 595 268 581 q 216 628 232 610 q 188 667 200 647 l 113 608 q 90 600 101 600 q 72 606 75 600 q 69 621 69 611 q 85 648 69 629 q 123 685 101 667 q 166 719 144 704 q 199 733 188 733 q 228 716 213 733 q 258 679 243 699 q 294 636 279 653 q 324 619 310 619 q 343 635 339 619 q 347 665 347 651 q 347 671 347 668 q 346 676 346 674 q 365 691 357 688 q 382 694 372 694 q 408 681 399 694 q 418 658 418 667 z "},"":{"ha":676,"x_min":76,"x_max":715,"o":"m 715 289 q 692 227 715 264 q 631 156 669 190 q 540 97 592 121 q 433 72 489 72 q 381 81 408 72 q 326 105 353 89 q 279 144 300 121 q 249 196 258 167 q 228 168 240 188 q 203 128 217 149 q 172 94 189 108 q 138 79 156 79 q 108 98 119 79 q 89 140 96 117 q 79 183 82 163 q 76 207 76 204 q 86 270 76 224 q 115 367 96 317 q 165 456 135 417 q 235 494 194 494 q 255 481 250 494 q 260 456 260 468 l 260 414 q 274 406 267 408 q 288 401 282 404 q 298 390 294 397 q 301 368 301 383 q 300 351 301 358 q 299 336 299 343 q 304 265 299 300 q 326 203 310 231 q 372 159 343 176 q 450 142 401 142 q 553 167 511 142 q 624 224 596 193 q 669 281 653 256 q 697 307 686 307 q 715 289 715 307 m 228 350 q 225 360 228 356 q 222 369 222 365 q 225 379 222 375 q 228 390 228 383 q 225 397 228 394 q 222 401 222 399 q 197 378 210 399 q 172 329 183 357 q 153 273 160 301 q 146 226 146 244 q 151 194 146 217 q 164 165 157 172 q 208 260 188 214 q 228 350 228 306 m 456 658 q 450 626 456 643 q 433 595 444 610 q 403 571 421 581 q 363 561 386 561 q 325 571 344 561 q 288 595 306 581 q 253 628 269 610 q 225 667 238 647 l 150 608 q 128 600 139 600 q 110 606 113 600 q 107 621 107 611 q 123 648 107 629 q 160 685 139 667 q 203 719 182 704 q 236 733 225 733 q 265 716 250 733 q 296 679 281 699 q 332 636 317 653 q 361 619 347 619 q 381 635 376 619 q 385 665 385 651 q 384 671 385 668 q 383 676 383 674 q 402 691 394 688 q 419 694 410 694 q 446 681 436 694 q 456 658 456 667 z "},"":{"ha":871,"x_min":69,"x_max":842,"o":"m 836 490 q 839 487 838 488 q 840 483 840 486 q 806 452 840 475 q 719 401 771 429 q 611 344 668 372 q 510 297 554 315 q 507 279 510 294 q 504 260 504 264 l 504 233 q 514 170 504 201 q 544 114 524 139 q 593 74 564 89 q 661 58 622 58 q 702 65 678 58 q 749 83 726 71 q 790 111 772 94 q 813 149 808 128 q 833 139 829 147 q 836 128 836 131 q 819 66 836 92 q 776 24 801 40 q 722 1 750 8 q 671 -7 693 -7 q 532 28 583 -7 q 460 125 481 63 q 403 60 438 86 q 318 33 368 33 q 224 62 268 33 q 144 135 179 90 q 90 237 110 181 q 69 349 69 293 q 80 487 69 429 q 110 588 90 544 q 105 596 110 592 q 100 607 100 600 q 113 625 100 614 q 145 647 126 636 q 183 665 164 657 q 211 672 201 672 q 230 667 217 672 q 264 661 243 661 q 278 663 271 661 q 293 664 285 664 q 344 646 317 664 q 397 598 371 628 q 444 528 422 568 q 481 444 465 488 q 531 561 499 503 q 507 564 519 561 q 494 583 494 567 q 517 626 494 603 q 570 671 540 650 q 629 706 600 692 q 671 721 658 721 q 678 719 676 721 q 686 717 681 717 q 715 721 697 717 q 751 731 732 725 q 788 740 771 736 q 817 744 806 744 q 835 736 829 744 q 842 718 842 728 q 828 702 842 707 q 803 694 814 697 q 722 670 764 688 q 643 632 679 653 q 610 588 629 617 q 572 524 590 560 q 540 449 554 488 q 521 375 525 410 l 544 386 q 719 467 651 438 q 824 496 786 496 q 836 490 831 496 m 322 96 q 380 116 357 96 q 417 166 403 136 q 437 229 431 196 q 444 289 443 263 q 426 297 438 292 q 415 321 415 303 q 439 350 415 338 q 419 428 432 385 q 385 508 406 471 q 337 572 364 546 q 276 597 310 597 q 266 598 274 597 q 249 599 258 599 q 231 601 239 600 q 221 601 222 601 q 183 581 199 601 q 156 526 167 560 q 140 450 146 493 q 135 364 135 407 q 143 305 135 349 q 173 215 151 261 q 231 132 194 168 q 322 96 267 96 z "},"":{"ha":640,"x_min":67,"x_max":604,"o":"m 603 146 q 604 138 604 143 q 592 113 604 129 q 574 94 588 107 q 536 69 560 82 q 478 47 513 57 q 399 38 444 38 q 305 72 350 38 q 240 175 260 107 q 181 149 214 149 q 119 171 142 149 q 85 222 97 193 q 70 281 74 251 q 67 326 67 311 q 74 383 67 351 q 95 440 82 414 q 125 485 108 467 q 160 503 142 503 q 173 500 164 503 q 192 492 182 497 q 209 478 201 486 q 219 458 217 469 q 250 447 235 457 q 267 432 265 438 q 319 502 289 476 q 376 528 349 528 q 422 519 399 528 q 463 496 444 510 q 493 465 482 482 q 504 429 504 447 q 485 386 504 408 q 440 345 467 364 q 388 315 414 326 q 346 303 361 303 q 331 310 338 303 q 325 329 325 318 q 342 360 325 349 q 381 380 360 371 q 419 401 401 389 q 436 436 436 414 q 429 450 436 439 q 392 461 422 461 q 360 445 378 461 q 325 402 342 429 q 297 338 308 375 q 286 258 286 301 q 299 193 286 222 q 333 144 313 164 q 382 113 354 124 q 439 101 410 101 q 484 110 460 101 q 530 130 508 119 q 567 149 551 140 q 588 158 583 158 q 597 154 592 158 q 603 146 601 150 m 222 325 q 218 369 222 346 q 201 415 214 392 q 194 414 199 414 q 185 415 189 414 q 179 417 182 417 q 153 408 163 417 q 138 384 143 399 q 132 353 133 369 q 131 321 131 336 q 132 287 131 306 q 138 251 133 268 q 151 223 143 235 q 174 211 160 211 q 197 226 188 211 q 213 260 207 240 q 220 298 218 279 q 222 325 222 317 z "},"":{"ha":533,"x_min":0,"x_max":514,"o":"m 514 106 q 506 90 514 96 q 463 67 493 82 q 395 35 432 51 q 318 0 358 18 q 244 -32 278 -18 q 188 -55 211 -46 q 164 -64 165 -64 q 140 -42 153 -64 q 116 19 128 -19 q 93 108 104 57 q 74 215 82 158 q 60 213 67 213 q 51 213 54 213 q 19 226 38 213 q 0 251 1 239 q 14 256 0 251 l 49 274 q 65 285 53 275 q 55 392 58 338 q 51 497 51 446 q 60 636 51 586 q 81 711 69 686 q 103 742 93 736 q 114 749 113 749 q 132 739 125 749 q 139 719 139 729 q 133 700 139 714 q 122 661 128 686 q 110 597 115 636 q 106 503 106 558 q 109 415 106 461 q 119 325 113 369 q 149 349 135 338 q 174 368 163 360 q 207 395 190 382 q 238 419 224 408 q 263 436 253 429 q 276 443 272 443 q 297 439 288 443 q 307 429 307 435 q 289 394 307 417 q 244 345 271 371 q 187 293 218 319 q 131 249 156 267 q 149 163 139 203 q 168 93 158 122 q 187 47 178 64 q 203 29 196 29 q 221 36 204 29 q 263 53 238 43 q 317 74 288 64 q 378 93 347 85 q 410 102 392 97 q 446 111 429 107 q 476 118 463 115 q 492 121 489 121 q 514 106 514 121 z "},"":{"ha":293,"x_min":47,"x_max":276,"o":"m 276 401 q 267 380 276 393 q 244 351 258 367 q 213 320 231 336 q 179 292 196 304 q 185 271 182 278 l 240 40 q 232 24 240 29 q 213 18 224 18 q 187 41 200 18 q 161 99 174 64 q 138 175 149 133 q 118 253 126 217 q 101 251 111 251 q 74 264 90 251 q 57 288 57 276 q 69 295 57 290 q 97 308 82 300 l 106 314 q 101 338 103 329 q 100 349 100 347 q 95 378 100 354 q 83 451 90 401 q 66 581 75 501 q 47 779 57 661 q 51 811 47 792 q 71 831 56 831 q 101 804 90 831 q 117 739 111 778 q 126 658 124 700 q 133 583 129 615 q 148 467 142 518 q 165 361 154 417 q 215 401 192 383 q 247 419 239 419 q 267 414 257 419 q 276 401 276 408 z "},"":{"ha":633,"x_min":64,"x_max":613,"o":"m 613 201 q 590 103 613 139 q 525 38 568 68 q 494 21 514 31 q 451 3 475 11 q 401 -11 428 -6 q 353 -17 375 -17 q 258 -3 290 -17 q 226 28 226 10 q 238 60 226 47 q 257 74 249 72 l 272 63 q 292 48 279 56 q 332 40 304 40 q 396 49 358 40 q 467 77 433 58 q 526 124 501 96 q 550 188 550 151 q 502 247 550 219 q 351 283 454 274 q 247 297 299 288 q 155 322 196 306 q 89 362 114 338 q 64 422 64 386 q 83 489 64 457 q 131 548 103 521 q 190 596 160 575 q 242 631 221 617 q 288 656 258 640 q 352 687 318 672 q 420 712 386 701 q 478 722 454 722 q 515 707 506 722 q 525 664 525 692 q 519 614 525 640 q 507 563 514 588 q 494 519 500 538 q 485 494 488 500 q 472 478 479 482 q 463 474 465 474 q 457 481 457 474 q 459 497 457 485 q 465 525 461 508 q 470 561 468 542 q 472 600 472 581 q 469 644 472 631 q 447 658 467 658 q 394 648 428 658 q 326 622 361 638 q 253 579 289 606 q 190 525 218 553 q 145 472 163 497 q 128 431 128 446 q 151 399 128 414 q 209 374 174 385 q 288 354 244 363 q 372 342 331 346 q 449 331 407 338 q 526 308 490 324 q 588 267 563 293 q 613 201 613 242 m 481 1024 q 488 1004 488 1017 q 480 982 488 993 q 465 961 472 971 q 424 915 446 939 q 379 870 403 890 q 332 837 356 850 q 285 824 308 824 q 257 842 268 824 q 238 886 246 860 q 228 941 231 913 q 225 990 225 969 q 228 1012 225 1003 q 247 1021 232 1021 q 263 1010 260 1021 q 284 942 272 969 q 308 896 296 915 q 334 915 319 903 q 363 941 349 926 q 391 971 378 956 q 414 1000 404 986 q 428 1024 424 1013 q 450 1036 432 1036 q 468 1031 458 1036 q 481 1024 478 1026 z "},"":{"ha":432,"x_min":67,"x_max":422,"o":"m 368 183 q 352 142 368 160 q 312 113 336 125 q 258 94 288 101 q 203 84 229 88 q 156 80 176 81 q 131 79 136 79 q 83 89 100 79 q 67 124 67 99 q 68 138 67 132 q 79 144 69 144 q 93 142 83 144 q 108 140 103 140 q 144 142 114 140 q 208 150 174 144 q 269 166 242 156 q 296 193 296 176 q 267 210 296 196 q 182 260 239 225 q 119 316 138 288 q 101 393 101 344 q 115 443 101 424 q 151 474 128 463 q 203 490 174 485 q 267 494 233 494 q 284 492 269 494 q 315 483 299 489 q 345 467 332 476 q 358 447 358 458 q 353 439 358 444 q 338 418 349 433 q 323 422 333 419 q 299 428 313 425 q 272 434 286 432 q 250 436 258 436 q 192 423 214 436 q 169 372 169 410 q 184 339 169 354 q 221 310 199 324 q 269 284 243 297 q 317 256 294 271 q 353 223 339 240 q 368 183 368 206 m 415 751 q 422 732 422 744 q 415 710 422 721 q 400 689 407 699 q 359 642 381 667 q 314 598 338 618 q 267 565 290 578 q 219 551 243 551 q 192 569 203 551 q 173 614 181 588 q 163 669 165 640 q 160 718 160 697 q 163 740 160 731 q 182 749 167 749 q 197 738 194 749 q 219 670 207 697 q 243 624 231 643 q 269 642 254 631 q 298 669 283 654 q 326 699 313 683 q 349 728 339 714 q 363 752 358 740 q 385 764 367 764 q 403 759 393 764 q 415 751 413 754 z "},"":{"ha":436,"x_min":-12,"x_max":440,"o":"m 440 465 q 431 438 440 446 q 411 429 422 429 q 387 433 399 429 q 357 444 375 438 l 336 453 q 333 435 333 446 q 332 418 332 425 q 336 313 332 369 q 346 199 340 256 q 359 88 351 142 q 372 -10 367 33 q 382 -84 378 -54 q 386 -122 386 -114 l 386 -157 q 383 -185 386 -172 q 368 -197 379 -197 q 333 -163 347 -197 q 309 -85 318 -129 q 296 -1 300 -42 q 292 54 292 40 q 288 101 292 64 q 281 185 285 139 q 273 280 276 232 q 269 361 269 328 q 269 392 269 375 q 268 425 268 410 l 268 468 q 237 514 268 490 q 161 566 206 538 q 69 631 117 594 q -8 719 22 668 q -12 732 -12 721 q -4 767 -12 751 q 18 782 4 782 q 31 772 22 782 q 51 746 39 761 q 81 712 64 731 q 118 676 97 693 q 157 645 132 664 q 206 608 182 626 q 249 577 231 590 q 268 564 267 564 q 275 575 274 564 q 276 589 276 586 l 283 672 q 301 801 290 743 q 311 901 311 858 q 308 918 311 906 q 306 935 306 931 q 311 948 306 943 q 324 956 317 953 q 343 961 332 960 q 371 947 363 961 q 379 919 379 932 q 373 822 379 869 q 359 728 367 775 q 345 631 351 681 q 339 528 339 582 q 349 510 339 519 q 373 494 358 501 q 406 478 388 486 q 440 465 424 471 m 335 1072 q 318 1040 335 1061 q 278 997 301 1019 q 231 956 256 975 q 193 931 207 938 q 174 924 182 925 q 160 922 165 922 q 132 935 149 922 q 115 958 115 947 q 128 966 115 961 q 156 979 140 971 q 192 1006 169 988 q 238 1044 215 1025 q 280 1076 261 1063 q 306 1090 299 1090 q 325 1085 315 1090 q 335 1072 335 1079 z "},"":{"ha":622,"x_min":-139,"x_max":561,"o":"m 233 382 q 223 366 233 374 q 197 351 213 358 q 204 319 203 331 q 206 300 206 308 q 208 283 207 292 q 213 256 208 274 q 222 192 219 224 q 225 142 225 160 q 221 117 225 131 q 210 103 217 103 q 191 115 197 103 q 181 148 185 128 q 174 194 178 168 q 164 249 171 221 l 143 331 q 94 319 115 324 q 67 314 72 314 q 38 317 46 314 q 24 332 29 319 q 17 344 21 338 q 13 354 13 350 q 24 361 13 361 q 67 368 38 361 q 129 383 97 375 q 117 435 122 411 q 108 469 111 458 q 102 513 106 485 q 96 572 99 542 q 88 647 92 607 q 81 649 88 647 q 63 651 74 650 q 38 654 51 653 q 14 656 25 656 q -28 647 -10 656 q -62 626 -47 638 q -85 605 -76 614 q -97 596 -94 596 q -122 601 -106 596 q -139 618 -139 606 q -122 654 -139 636 q -81 686 -106 672 q -26 709 -56 700 q 28 718 3 718 q 124 707 68 718 q 239 676 179 696 q 356 629 299 657 q 460 568 414 601 q 533 497 506 535 q 561 417 561 458 q 499 244 561 322 q 336 90 436 165 q 226 19 285 51 q 108 -37 167 -14 q -2 -72 50 -60 q -93 -85 -54 -85 q -128 -78 -117 -85 q -139 -53 -139 -72 q -128 -19 -139 -39 q -108 1 -118 1 q -94 -5 -99 1 q -90 -18 -90 -11 q -91 -25 -90 -22 q -92 -31 -92 -28 l -92 -35 q -83 -34 -87 -35 q -75 -33 -79 -33 q -26 -29 -50 -32 q 30 -17 -1 -26 q 103 12 61 -7 q 208 65 146 31 q 315 135 263 94 q 408 221 367 175 q 474 316 449 267 q 500 415 500 365 q 465 485 500 449 q 376 553 429 521 q 261 608 324 585 q 144 640 199 632 q 147 610 144 635 q 155 550 150 585 q 167 475 160 515 q 183 399 174 435 q 213 406 207 406 q 226 397 218 406 q 233 382 233 388 z "},"":{"ha":782,"x_min":15,"x_max":781,"o":"m 781 110 q 764 86 781 94 q 726 78 747 78 q 714 78 722 78 q 696 81 706 79 q 679 83 686 82 q 672 85 672 85 q 560 69 625 85 q 426 34 494 53 q 290 -1 357 15 q 172 -17 224 -17 q 79 -1 108 -17 q 50 67 50 15 q 74 149 50 101 q 132 247 97 196 q 208 352 167 299 q 285 453 250 406 q 343 538 319 500 q 367 599 367 576 q 340 626 367 617 q 282 636 313 636 q 255 634 265 636 q 226 630 244 632 q 172 626 207 628 q 71 625 138 625 q 33 635 50 625 q 15 660 15 646 q 28 684 15 669 q 49 700 40 699 q 71 694 53 700 q 101 689 89 689 q 200 688 161 689 q 268 683 239 686 q 311 683 282 682 q 370 678 340 683 q 422 658 400 672 q 444 613 444 643 q 428 553 444 588 q 387 479 413 518 q 330 399 361 440 q 268 318 299 357 q 210 244 236 276 q 167 184 185 213 q 140 131 150 156 q 131 79 131 106 q 136 70 131 74 q 150 65 142 67 q 167 63 158 64 q 181 63 175 63 q 267 75 203 63 q 413 103 331 88 q 584 132 496 119 q 743 144 672 144 q 769 138 758 144 q 781 110 781 132 m 433 958 q 440 939 440 951 q 433 917 440 928 q 418 896 425 906 q 377 849 399 874 q 332 805 356 825 q 285 772 308 785 q 238 758 261 758 q 210 776 221 758 q 191 821 199 794 q 181 876 183 847 q 178 925 178 904 q 181 947 178 938 q 200 956 185 956 q 215 944 213 956 q 237 877 225 904 q 261 831 249 850 q 287 849 272 838 q 316 876 301 861 q 344 906 331 890 q 367 935 357 921 q 381 959 376 947 q 403 971 385 971 q 421 966 411 971 q 433 958 431 961 z "},"":{"ha":382,"x_min":42,"x_max":335,"o":"m 164 613 q 157 601 164 610 q 140 584 150 593 q 117 568 129 575 q 97 561 106 561 q 83 562 92 561 q 65 567 74 563 q 49 578 56 571 q 42 599 42 586 q 56 635 42 618 q 92 653 69 653 q 108 649 96 653 q 132 640 119 646 q 154 628 144 635 q 164 613 164 621 m 335 617 q 326 601 335 608 q 308 587 318 593 q 288 577 297 581 q 276 574 278 574 q 258 580 264 574 q 248 594 251 586 q 244 608 244 601 q 243 618 243 615 q 246 633 243 624 q 254 650 249 642 q 267 665 260 658 q 285 671 275 671 q 319 656 303 671 q 335 617 335 640 z "},"":{"ha":485,"x_min":67,"x_max":443,"o":"m 442 146 q 443 138 443 143 q 431 113 443 129 q 413 94 426 107 q 375 69 399 82 q 317 47 351 57 q 238 38 283 38 q 175 52 206 38 q 121 95 144 67 q 82 166 97 124 q 67 265 67 208 q 81 367 67 319 q 116 450 94 414 q 164 507 138 486 q 215 528 190 528 q 260 519 238 528 q 302 496 283 510 q 332 465 321 482 q 343 429 343 447 q 324 386 343 408 q 279 345 306 364 q 226 315 253 326 q 185 303 200 303 q 170 310 176 303 q 164 329 164 318 q 181 360 164 349 q 219 380 199 371 q 258 401 240 389 q 275 436 275 414 q 268 450 275 439 q 231 461 261 461 q 199 445 217 461 q 164 402 181 429 q 136 338 147 375 q 125 258 125 301 q 138 193 125 222 q 172 144 151 164 q 221 113 193 124 q 278 101 249 101 q 323 110 299 101 q 369 130 347 119 q 406 149 390 140 q 426 158 422 158 q 435 154 431 158 q 442 146 440 150 m 213 642 q 206 631 213 639 q 188 613 199 622 q 166 597 178 604 q 146 590 154 590 q 131 591 140 590 q 113 596 122 592 q 97 608 104 600 q 90 628 90 615 q 104 665 90 647 q 140 682 118 682 q 156 678 144 682 q 181 669 168 675 q 203 657 193 664 q 213 642 213 650 m 383 646 q 375 630 383 638 q 356 616 367 622 q 336 606 346 610 q 325 603 326 603 q 306 609 313 603 q 297 623 300 615 q 292 638 293 631 q 292 647 292 644 q 294 662 292 653 q 303 679 297 671 q 316 694 308 688 q 333 700 324 700 q 367 685 351 700 q 383 646 383 669 z "},"":{"ha":428,"x_min":39,"x_max":393,"o":"m 393 644 q 370 631 392 638 q 316 619 349 625 q 244 610 283 614 q 170 602 206 606 q 108 597 135 599 q 74 596 82 596 q 47 606 56 596 q 39 629 39 617 q 44 653 39 636 q 61 669 50 669 q 72 664 68 669 q 82 657 76 658 q 205 663 144 657 q 331 668 265 668 q 349 667 339 668 q 369 663 360 665 q 385 656 378 660 q 393 644 392 651 z "},"":{"ha":456,"x_min":81,"x_max":357,"o":"m 204 97 q 206 89 206 94 q 195 62 206 75 q 174 38 185 49 q 156 19 167 31 q 142 -6 144 8 q 151 -12 144 -11 q 164 -14 157 -14 q 188 -12 168 -14 q 217 -11 208 -11 q 249 -15 226 -11 q 297 -28 272 -18 q 339 -58 321 -39 q 357 -107 357 -76 q 338 -149 357 -132 q 293 -178 318 -167 q 245 -196 268 -190 q 215 -201 222 -201 q 174 -183 192 -201 q 157 -142 157 -165 q 164 -137 157 -137 q 181 -140 171 -137 q 201 -143 192 -143 q 218 -140 204 -143 q 248 -130 232 -136 q 277 -115 264 -124 q 290 -96 290 -107 q 283 -83 290 -89 q 264 -72 275 -76 q 241 -65 253 -68 q 219 -62 229 -62 q 192 -64 201 -62 q 167 -65 183 -65 q 142 -64 157 -65 q 114 -56 128 -62 q 90 -40 100 -50 q 81 -10 81 -29 q 94 19 81 -1 q 125 59 107 39 q 163 94 143 79 q 194 110 182 110 q 201 106 199 110 q 204 97 203 101 z "},"":{"ha":511,"x_min":63,"x_max":456,"o":"m 456 253 q 451 224 456 239 q 443 200 447 210 q 420 174 440 196 q 369 128 400 153 q 299 81 338 103 q 222 53 260 58 l 208 38 q 190 19 201 31 q 176 -6 179 8 q 185 -12 179 -11 q 199 -14 192 -14 q 223 -12 203 -14 q 251 -11 243 -11 q 284 -15 261 -11 q 331 -28 307 -18 q 374 -58 356 -39 q 392 -107 392 -76 q 372 -149 392 -132 q 328 -178 353 -167 q 280 -196 303 -190 q 250 -201 257 -201 q 209 -183 226 -201 q 192 -142 192 -165 q 199 -137 192 -137 q 216 -140 206 -137 q 236 -143 226 -143 q 253 -140 239 -143 q 283 -130 267 -136 q 312 -115 299 -124 q 325 -96 325 -107 q 317 -83 325 -89 q 299 -72 310 -76 q 276 -65 288 -68 q 254 -62 264 -62 q 227 -64 236 -62 q 201 -65 218 -65 q 177 -64 192 -65 q 149 -56 163 -62 q 125 -40 135 -50 q 115 -10 115 -29 q 128 19 115 -1 q 158 58 140 39 q 92 105 122 71 q 63 201 63 139 q 85 322 63 268 q 129 408 107 376 q 155 440 139 424 q 186 469 171 456 q 215 490 201 482 q 233 499 228 499 q 256 492 246 499 q 267 478 267 485 q 260 459 267 467 q 243 442 254 451 q 217 419 232 433 q 185 381 201 404 q 135 287 151 335 q 119 203 119 239 q 147 145 119 167 q 203 124 174 124 q 297 147 256 124 q 367 200 338 171 q 414 253 396 229 q 440 276 432 276 q 456 253 456 276 z "},"":{"ha":356,"x_min":133,"x_max":225,"o":"m 225 625 q 217 609 225 617 q 198 595 208 601 q 178 585 188 589 q 167 582 168 582 q 148 588 154 582 q 138 602 142 594 q 134 617 135 610 q 133 626 133 624 q 136 641 133 632 q 144 658 139 650 q 158 673 150 667 q 175 679 165 679 q 209 664 193 679 q 225 625 225 649 z "},"":{"ha":372,"x_min":97,"x_max":278,"o":"m 258 692 q 269 661 269 681 q 263 633 269 651 q 242 596 256 614 q 210 565 229 578 q 165 551 190 551 q 113 568 129 551 q 97 604 97 585 q 109 652 97 626 q 140 699 121 678 q 181 735 158 721 q 228 749 204 749 q 259 738 240 749 q 278 715 278 726 q 272 706 278 714 q 258 692 267 699 m 214 683 q 212 684 213 683 q 210 685 211 685 q 195 678 204 685 q 178 663 186 672 q 164 642 169 653 q 158 622 158 631 q 168 607 158 607 q 188 615 179 607 q 204 633 197 622 q 215 655 211 643 q 218 675 218 667 q 214 683 218 681 z "},"":{"ha":676,"x_min":76,"x_max":715,"o":"m 715 289 q 692 227 715 264 q 631 156 669 190 q 540 97 592 121 q 433 72 489 72 q 381 81 408 72 q 326 105 353 89 q 279 144 300 121 q 249 196 258 167 q 228 168 240 188 q 203 128 217 149 q 172 94 189 108 q 138 79 156 79 q 108 98 119 79 q 89 140 96 117 q 79 183 82 163 q 76 207 76 204 q 86 270 76 224 q 115 367 96 317 q 165 456 135 417 q 235 494 194 494 q 255 481 250 494 q 260 456 260 468 l 260 414 q 274 406 267 408 q 288 401 282 404 q 298 390 294 397 q 301 368 301 383 q 300 351 301 358 q 299 336 299 343 q 304 265 299 300 q 326 203 310 231 q 372 159 343 176 q 450 142 401 142 q 553 167 511 142 q 624 224 596 193 q 669 281 653 256 q 697 307 686 307 q 715 289 715 307 m 228 350 q 225 360 228 356 q 222 369 222 365 q 225 379 222 375 q 228 390 228 383 q 225 397 228 394 q 222 401 222 399 q 197 378 210 399 q 172 329 183 357 q 153 273 160 301 q 146 226 146 244 q 151 194 146 217 q 164 165 157 172 q 208 260 188 214 q 228 350 228 306 m 324 692 q 335 661 335 681 q 328 633 335 651 q 308 596 321 614 q 275 565 294 578 q 231 551 256 551 q 178 568 194 551 q 163 604 163 585 q 174 652 163 626 q 205 699 186 678 q 247 735 224 721 q 293 749 269 749 q 324 738 306 749 q 343 715 343 726 q 338 706 343 714 q 324 692 332 699 m 279 683 q 277 684 278 683 q 275 685 276 685 q 260 678 269 685 q 243 663 251 672 q 229 642 235 653 q 224 622 224 631 q 233 607 224 607 q 253 615 244 607 q 269 633 263 622 q 280 655 276 643 q 283 675 283 667 q 279 683 283 681 z "},"":{"ha":433,"x_min":86,"x_max":351,"o":"m 351 551 q 342 490 351 529 q 315 411 333 450 q 267 343 296 372 q 199 314 238 314 q 160 317 181 314 q 124 330 140 321 q 97 354 107 339 q 86 393 86 369 q 94 426 86 407 q 113 462 101 444 q 140 491 125 479 q 172 503 156 503 q 194 495 182 503 q 206 478 206 488 q 199 457 206 467 q 185 438 193 447 q 170 417 176 428 q 164 393 164 406 q 168 382 164 386 q 175 378 172 378 q 217 395 197 378 q 253 437 238 413 q 277 485 268 461 q 286 522 286 510 q 278 531 286 531 q 262 525 274 531 q 239 519 250 519 q 219 531 226 519 q 213 546 213 543 q 219 561 213 551 q 233 579 225 571 q 251 594 242 588 q 267 600 260 600 q 291 599 276 600 q 319 592 306 597 q 342 577 332 586 q 351 551 351 568 z "},"":{"ha":511,"x_min":121,"x_max":533,"o":"m 521 242 q 503 219 514 229 q 485 201 492 208 q 465 194 482 199 q 424 183 449 189 q 369 172 400 176 q 308 168 339 168 q 243 176 275 168 q 187 202 211 185 q 147 247 163 219 q 132 313 132 274 q 137 351 132 332 q 154 392 142 371 q 223 480 185 446 q 300 533 261 514 q 374 560 339 553 q 435 568 410 568 q 462 557 453 568 q 471 536 471 546 q 461 520 471 525 q 435 512 451 515 q 397 503 419 508 q 350 488 375 499 q 238 410 282 456 q 194 329 194 365 q 210 281 194 300 q 247 251 225 263 q 295 234 269 239 q 340 229 321 229 q 399 235 371 229 q 449 249 426 242 q 489 263 472 257 q 514 269 506 269 q 524 265 521 269 q 526 256 526 260 q 521 242 526 249 m 533 817 q 526 796 533 814 q 506 753 518 778 q 481 699 494 728 q 453 647 467 671 q 428 606 439 622 q 411 590 417 590 q 393 601 397 590 q 389 625 389 613 q 392 649 389 638 q 407 688 393 658 q 439 751 421 718 q 476 809 457 783 q 511 835 496 835 q 527 829 521 835 q 533 817 533 824 m 257 79 q 240 17 253 54 q 213 -57 226 -21 q 176 -144 196 -99 q 165 -154 174 -150 q 144 -158 156 -158 q 125 -150 129 -158 q 121 -131 121 -142 q 130 -81 121 -108 q 152 -24 139 -54 q 180 40 165 7 q 204 106 194 72 q 217 139 208 121 q 240 157 225 157 q 258 148 253 157 q 263 125 263 139 q 261 103 263 115 q 257 79 260 92 z "},"":{"ha":606,"x_min":63,"x_max":531,"o":"m 378 272 q 359 255 378 265 q 312 234 340 244 q 249 213 283 224 q 185 193 215 201 q 213 118 196 153 q 233 42 229 83 q 299 56 263 49 q 370 70 335 64 q 438 80 406 76 q 493 83 471 83 q 515 82 500 83 q 531 69 531 81 q 513 41 531 50 q 460 24 496 32 q 367 5 424 15 q 233 -28 311 -6 q 214 -91 229 -67 q 167 -115 199 -115 q 131 -106 144 -115 q 118 -69 118 -96 q 127 -19 118 -43 q 164 21 136 6 q 146 85 161 51 q 118 176 131 118 q 107 174 111 174 q 101 174 103 174 q 69 183 76 174 q 63 217 63 193 q 67 240 63 235 q 76 244 71 244 q 88 240 83 244 q 100 235 93 235 q 108 236 104 235 q 106 268 107 251 q 106 304 106 285 q 117 406 106 354 q 155 501 129 458 q 219 570 181 543 q 313 597 258 597 q 378 589 346 597 q 435 567 410 581 q 474 533 460 553 q 489 493 489 514 q 482 483 489 483 q 454 492 471 483 q 418 513 438 501 q 375 533 399 524 q 325 542 351 542 q 267 526 292 542 q 226 484 243 510 q 198 428 208 458 q 182 367 188 397 q 174 313 176 338 q 172 274 172 288 l 172 251 q 219 264 194 257 q 267 277 244 271 q 306 287 289 283 q 332 290 324 290 q 363 287 349 290 q 378 272 378 283 z "},"`":{"ha":374,"x_min":78,"x_max":290,"o":"m 79 761 q 89 765 83 765 q 106 760 96 765 q 126 749 117 756 q 156 722 136 742 q 194 678 175 701 q 231 636 214 656 q 253 613 247 617 q 260 610 254 611 q 272 606 265 608 q 285 601 279 604 q 290 594 290 599 q 276 568 290 583 q 251 553 261 553 q 225 563 243 553 q 181 599 206 572 q 133 657 156 626 q 94 716 110 688 q 78 757 78 744 q 78 759 78 758 q 79 761 79 760 z "},"":{"ha":676,"x_min":76,"x_max":715,"o":"m 715 289 q 692 227 715 264 q 631 156 669 190 q 540 97 592 121 q 433 72 489 72 q 381 81 408 72 q 326 105 353 89 q 279 144 300 121 q 249 196 258 167 q 228 168 240 188 q 203 128 217 149 q 172 94 189 108 q 138 79 156 79 q 108 98 119 79 q 89 140 96 117 q 79 183 82 163 q 76 207 76 204 q 86 270 76 224 q 115 367 96 317 q 165 456 135 417 q 235 494 194 494 q 255 481 250 494 q 260 456 260 468 l 260 414 q 274 406 267 408 q 288 401 282 404 q 298 390 294 397 q 301 368 301 383 q 300 351 301 358 q 299 336 299 343 q 304 265 299 300 q 326 203 310 231 q 372 159 343 176 q 450 142 401 142 q 553 167 511 142 q 624 224 596 193 q 669 281 653 256 q 697 307 686 307 q 715 289 715 307 m 228 350 q 225 360 228 356 q 222 369 222 365 q 225 379 222 375 q 228 390 228 383 q 225 397 228 394 q 222 401 222 399 q 197 378 210 399 q 172 329 183 357 q 153 273 160 301 q 146 226 146 244 q 151 194 146 217 q 164 165 157 172 q 208 260 188 214 q 228 350 228 306 m 78 761 q 88 765 82 765 q 105 760 94 765 q 125 749 115 756 q 154 722 135 742 q 193 678 174 701 q 229 636 213 656 q 251 613 246 617 q 258 610 253 611 q 271 606 264 608 q 283 601 278 604 q 289 594 289 599 q 274 568 289 583 q 250 553 260 553 q 224 563 242 553 q 179 599 204 572 q 131 657 154 626 q 92 716 108 688 q 76 757 76 744 q 77 759 76 758 q 78 761 78 760 z "},"":{"ha":485,"x_min":67,"x_max":443,"o":"m 442 146 q 443 138 443 143 q 431 113 443 129 q 413 94 426 107 q 375 69 399 82 q 317 47 351 57 q 238 38 283 38 q 175 52 206 38 q 121 95 144 67 q 82 166 97 124 q 67 265 67 208 q 81 367 67 319 q 116 450 94 414 q 164 507 138 486 q 215 528 190 528 q 260 519 238 528 q 302 496 283 510 q 332 465 321 482 q 343 429 343 447 q 324 386 343 408 q 279 345 306 364 q 226 315 253 326 q 185 303 200 303 q 170 310 176 303 q 164 329 164 318 q 181 360 164 349 q 219 380 199 371 q 258 401 240 389 q 275 436 275 414 q 268 450 275 439 q 231 461 261 461 q 199 445 217 461 q 164 402 181 429 q 136 338 147 375 q 125 258 125 301 q 138 193 125 222 q 172 144 151 164 q 221 113 193 124 q 278 101 249 101 q 323 110 299 101 q 369 130 347 119 q 406 149 390 140 q 426 158 422 158 q 435 154 431 158 q 442 146 440 150 m 69 781 q 79 785 74 785 q 97 780 86 785 q 117 768 107 775 q 146 741 126 761 q 185 698 165 721 q 221 656 204 675 q 243 632 238 636 q 250 629 244 631 q 263 626 256 628 q 275 621 269 624 q 281 614 281 618 q 266 588 281 603 q 242 572 251 572 q 215 582 233 572 q 171 619 196 592 q 123 676 146 646 q 84 735 100 707 q 68 776 68 764 q 69 778 68 778 q 69 781 69 779 z "},"":{"ha":389,"x_min":42,"x_max":304,"o":"m 304 300 q 296 242 304 269 q 274 193 288 214 q 241 160 260 172 q 200 149 222 149 q 139 171 161 149 q 105 222 117 193 q 90 281 93 251 q 86 326 86 311 q 94 383 86 351 q 115 440 101 414 q 144 485 128 467 q 179 503 161 503 q 192 500 183 503 q 211 492 201 497 q 228 478 221 486 q 239 458 236 469 q 269 447 254 457 q 286 432 285 438 q 301 360 297 396 q 304 300 304 324 m 242 325 q 238 369 242 346 q 221 415 233 392 q 214 414 218 414 q 205 415 208 414 q 199 417 201 417 q 172 408 182 417 q 158 384 163 399 q 151 353 153 369 q 150 321 150 336 q 151 287 150 306 q 158 251 153 268 q 171 223 163 235 q 193 211 179 211 q 217 226 207 211 q 232 260 226 240 q 240 298 238 279 q 242 325 242 317 m 43 765 q 53 769 47 769 q 70 765 60 769 q 90 753 81 760 q 119 726 100 746 q 158 683 139 706 q 194 640 178 660 q 217 617 211 621 q 224 614 218 615 q 236 610 229 613 q 249 606 243 608 q 254 599 254 603 q 240 572 254 588 q 215 557 225 557 q 189 567 207 557 q 144 603 169 576 q 97 661 119 631 q 58 720 74 692 q 42 761 42 749 q 42 763 42 763 q 43 765 43 764 z "},"":{"ha":389,"x_min":47,"x_max":340,"o":"m 304 300 q 296 242 304 269 q 274 193 288 214 q 241 160 260 172 q 200 149 222 149 q 139 171 161 149 q 105 222 117 193 q 90 281 93 251 q 86 326 86 311 q 94 383 86 351 q 115 440 101 414 q 144 485 128 467 q 179 503 161 503 q 192 500 183 503 q 211 492 201 497 q 228 478 221 486 q 239 458 236 469 q 269 447 254 457 q 286 432 285 438 q 301 360 297 396 q 304 300 304 324 m 242 325 q 238 369 242 346 q 221 415 233 392 q 214 414 218 414 q 205 415 208 414 q 199 417 201 417 q 172 408 182 417 q 158 384 163 399 q 151 353 153 369 q 150 321 150 336 q 151 287 150 306 q 158 251 153 268 q 171 223 163 235 q 193 211 179 211 q 217 226 207 211 q 232 260 226 240 q 240 298 238 279 q 242 325 242 317 m 169 613 q 163 601 169 610 q 145 584 156 593 q 123 568 135 575 q 103 561 111 561 q 88 562 97 561 q 70 567 79 563 q 54 578 61 571 q 47 599 47 586 q 61 635 47 618 q 97 653 75 653 q 113 649 101 653 q 138 640 125 646 q 160 628 150 635 q 169 613 169 621 m 340 617 q 332 601 340 608 q 313 587 324 593 q 293 577 303 581 q 282 574 283 574 q 263 580 269 574 q 253 594 257 586 q 249 608 250 601 q 249 618 249 615 q 251 633 249 624 q 260 650 254 642 q 273 665 265 658 q 290 671 281 671 q 324 656 308 671 q 340 617 340 640 z "},"":{"ha":389,"x_min":21,"x_max":369,"o":"m 304 300 q 296 242 304 269 q 274 193 288 214 q 241 160 260 172 q 200 149 222 149 q 139 171 161 149 q 105 222 117 193 q 90 281 93 251 q 86 326 86 311 q 94 383 86 351 q 115 440 101 414 q 144 485 128 467 q 179 503 161 503 q 192 500 183 503 q 211 492 201 497 q 228 478 221 486 q 239 458 236 469 q 269 447 254 457 q 286 432 285 438 q 301 360 297 396 q 304 300 304 324 m 242 325 q 238 369 242 346 q 221 415 233 392 q 214 414 218 414 q 205 415 208 414 q 199 417 201 417 q 172 408 182 417 q 158 384 163 399 q 151 353 153 369 q 150 321 150 336 q 151 287 150 306 q 158 251 153 268 q 171 223 163 235 q 193 211 179 211 q 217 226 207 211 q 232 260 226 240 q 240 298 238 279 q 242 325 242 317 m 369 658 q 364 626 369 643 q 347 595 358 610 q 317 571 335 581 q 276 561 300 561 q 239 571 258 561 q 201 595 219 581 q 167 628 183 610 q 139 667 151 647 l 64 608 q 42 600 53 600 q 24 606 26 600 q 21 621 21 611 q 37 648 21 629 q 74 685 53 667 q 117 719 96 704 q 150 733 139 733 q 179 716 164 733 q 210 679 194 699 q 246 636 231 653 q 275 619 261 619 q 294 635 290 619 q 299 665 299 651 q 298 671 299 668 q 297 676 297 674 q 316 691 308 688 q 333 694 324 694 q 360 681 350 694 q 369 658 369 667 z "},"":{"ha":513,"x_min":19,"x_max":513,"o":"m 513 231 q 496 204 513 218 q 457 178 479 190 q 412 158 435 167 q 378 150 389 150 q 351 157 365 150 q 323 174 336 164 q 300 192 310 183 q 288 203 290 200 q 275 186 283 199 q 255 159 267 174 q 230 133 243 144 q 203 122 217 122 q 140 161 167 122 q 97 250 114 200 q 70 347 79 300 q 61 410 61 393 q 72 426 61 419 q 88 432 82 432 q 114 419 107 432 q 121 390 121 406 q 128 346 121 378 q 147 281 136 314 q 171 222 158 247 q 193 196 183 196 q 224 219 211 196 q 246 272 238 242 q 258 328 254 301 q 263 364 263 356 q 263 373 263 365 q 265 389 264 381 q 267 404 267 397 q 268 414 268 411 q 264 427 268 424 q 260 442 260 431 q 268 458 260 450 q 304 465 276 465 q 322 459 315 465 q 331 444 328 453 q 334 428 333 436 q 335 418 335 421 q 333 399 335 417 q 331 359 332 381 q 329 318 331 338 q 328 294 328 299 q 332 278 328 290 q 342 252 336 265 q 357 228 349 239 q 375 218 365 218 q 406 223 392 218 q 434 234 421 228 q 458 245 447 240 q 479 250 469 250 q 502 244 492 250 q 513 231 513 239 m 21 761 q 31 765 25 765 q 48 760 38 765 q 68 749 58 756 q 97 722 78 742 q 136 678 117 701 q 172 636 156 656 q 194 613 189 617 q 201 610 196 611 q 214 606 207 608 q 226 601 221 604 q 232 594 232 599 q 217 568 232 583 q 193 553 203 553 q 167 563 185 553 q 122 599 147 572 q 74 657 97 626 q 35 716 51 688 q 19 757 19 744 q 20 759 19 758 q 21 761 21 760 z "},"":{"ha":513,"x_min":36,"x_max":513,"o":"m 513 231 q 496 204 513 218 q 457 178 479 190 q 412 158 435 167 q 378 150 389 150 q 351 157 365 150 q 323 174 336 164 q 300 192 310 183 q 288 203 290 200 q 275 186 283 199 q 255 159 267 174 q 230 133 243 144 q 203 122 217 122 q 140 161 167 122 q 97 250 114 200 q 70 347 79 300 q 61 410 61 393 q 72 426 61 419 q 88 432 82 432 q 114 419 107 432 q 121 390 121 406 q 128 346 121 378 q 147 281 136 314 q 171 222 158 247 q 193 196 183 196 q 224 219 211 196 q 246 272 238 242 q 258 328 254 301 q 263 364 263 356 q 263 373 263 365 q 265 389 264 381 q 267 404 267 397 q 268 414 268 411 q 264 427 268 424 q 260 442 260 431 q 268 458 260 450 q 304 465 276 465 q 322 459 315 465 q 331 444 328 453 q 334 428 333 436 q 335 418 335 421 q 333 399 335 417 q 331 359 332 381 q 329 318 331 338 q 328 294 328 299 q 332 278 328 290 q 342 252 336 265 q 357 228 349 239 q 375 218 365 218 q 406 223 392 218 q 434 234 421 228 q 458 245 447 240 q 479 250 469 250 q 502 244 492 250 q 513 231 513 239 m 367 558 q 356 553 364 557 q 342 550 349 550 q 313 556 326 550 q 288 568 299 561 q 247 599 264 581 q 215 638 229 618 q 190 675 201 657 q 171 703 179 693 q 128 658 151 679 q 71 617 104 638 q 56 611 60 611 q 41 619 46 611 q 36 632 36 626 q 43 647 36 640 q 76 686 60 664 q 110 729 93 708 q 142 764 126 750 q 169 778 157 778 q 213 758 194 778 q 251 709 232 738 q 290 651 269 681 q 342 600 311 621 q 368 594 356 600 q 381 579 381 589 q 375 567 381 572 q 367 558 369 561 z "},"":{"ha":513,"x_min":56,"x_max":513,"o":"m 513 231 q 496 204 513 218 q 457 178 479 190 q 412 158 435 167 q 378 150 389 150 q 351 157 365 150 q 323 174 336 164 q 300 192 310 183 q 288 203 290 200 q 275 186 283 199 q 255 159 267 174 q 230 133 243 144 q 203 122 217 122 q 140 161 167 122 q 97 250 114 200 q 70 347 79 300 q 61 410 61 393 q 72 426 61 419 q 88 432 82 432 q 114 419 107 432 q 121 390 121 406 q 128 346 121 378 q 147 281 136 314 q 171 222 158 247 q 193 196 183 196 q 224 219 211 196 q 246 272 238 242 q 258 328 254 301 q 263 364 263 356 q 263 373 263 365 q 265 389 264 381 q 267 404 267 397 q 268 414 268 411 q 264 427 268 424 q 260 442 260 431 q 268 458 260 450 q 304 465 276 465 q 322 459 315 465 q 331 444 328 453 q 334 428 333 436 q 335 418 335 421 q 333 399 335 417 q 331 359 332 381 q 329 318 331 338 q 328 294 328 299 q 332 278 328 290 q 342 252 336 265 q 357 228 349 239 q 375 218 365 218 q 406 223 392 218 q 434 234 421 228 q 458 245 447 240 q 479 250 469 250 q 502 244 492 250 q 513 231 513 239 m 178 613 q 171 601 178 610 q 153 584 164 593 q 131 568 143 575 q 111 561 119 561 q 97 562 106 561 q 78 567 88 563 q 63 578 69 571 q 56 599 56 586 q 69 635 56 618 q 106 653 83 653 q 122 649 110 653 q 146 640 133 646 q 168 628 158 635 q 178 613 178 621 m 349 617 q 340 601 349 608 q 322 587 332 593 q 301 577 311 581 q 290 574 292 574 q 272 580 278 574 q 262 594 265 586 q 258 608 258 601 q 257 618 257 615 q 260 633 257 624 q 268 650 263 642 q 281 665 274 658 q 299 671 289 671 q 333 656 317 671 q 349 617 349 640 z "},"":{"ha":676,"x_min":76,"x_max":715,"o":"m 715 289 q 692 227 715 264 q 631 156 669 190 q 540 97 592 121 q 433 72 489 72 q 381 81 408 72 q 326 105 353 89 q 279 144 300 121 q 249 196 258 167 q 228 168 240 188 q 203 128 217 149 q 172 94 189 108 q 138 79 156 79 q 108 98 119 79 q 89 140 96 117 q 79 183 82 163 q 76 207 76 204 q 86 270 76 224 q 115 367 96 317 q 165 456 135 417 q 235 494 194 494 q 255 481 250 494 q 260 456 260 468 l 260 414 q 274 406 267 408 q 288 401 282 404 q 298 390 294 397 q 301 368 301 383 q 300 351 301 358 q 299 336 299 343 q 304 265 299 300 q 326 203 310 231 q 372 159 343 176 q 450 142 401 142 q 553 167 511 142 q 624 224 596 193 q 669 281 653 256 q 697 307 686 307 q 715 289 715 307 m 228 350 q 225 360 228 356 q 222 369 222 365 q 225 379 222 375 q 228 390 228 383 q 225 397 228 394 q 222 401 222 399 q 197 378 210 399 q 172 329 183 357 q 153 273 160 301 q 146 226 146 244 q 151 194 146 217 q 164 165 157 172 q 208 260 188 214 q 228 350 228 306 m 417 558 q 406 553 414 557 q 392 550 399 550 q 363 556 376 550 q 338 568 349 561 q 297 599 314 581 q 265 638 279 618 q 240 675 251 657 q 221 703 229 693 q 178 658 201 679 q 121 617 154 638 q 106 611 110 611 q 91 619 96 611 q 86 632 86 626 q 93 647 86 640 q 126 686 110 664 q 160 729 143 708 q 192 764 176 750 q 219 778 207 778 q 263 758 244 778 q 301 709 282 738 q 340 651 319 681 q 392 600 361 621 q 418 594 406 600 q 431 579 431 589 q 425 567 431 572 q 417 558 419 561 z "},"":{"ha":676,"x_min":57,"x_max":715,"o":"m 715 289 q 692 227 715 264 q 631 156 669 190 q 540 97 592 121 q 433 72 489 72 q 381 81 408 72 q 326 105 353 89 q 279 144 300 121 q 249 196 258 167 q 228 168 240 188 q 203 128 217 149 q 172 94 189 108 q 138 79 156 79 q 108 98 119 79 q 89 140 96 117 q 79 183 82 163 q 76 207 76 204 q 86 270 76 224 q 115 367 96 317 q 165 456 135 417 q 235 494 194 494 q 255 481 250 494 q 260 456 260 468 l 260 414 q 274 406 267 408 q 288 401 282 404 q 298 390 294 397 q 301 368 301 383 q 300 351 301 358 q 299 336 299 343 q 304 265 299 300 q 326 203 310 231 q 372 159 343 176 q 450 142 401 142 q 553 167 511 142 q 624 224 596 193 q 669 281 653 256 q 697 307 686 307 q 715 289 715 307 m 228 350 q 225 360 228 356 q 222 369 222 365 q 225 379 222 375 q 228 390 228 383 q 225 397 228 394 q 222 401 222 399 q 197 378 210 399 q 172 329 183 357 q 153 273 160 301 q 146 226 146 244 q 151 194 146 217 q 164 165 157 172 q 208 260 188 214 q 228 350 228 306 m 179 613 q 172 601 179 610 q 155 584 165 593 q 133 568 144 575 q 113 561 121 561 q 98 562 107 561 q 80 567 89 563 q 64 578 71 571 q 57 599 57 586 q 71 635 57 618 q 107 653 85 653 q 123 649 111 653 q 147 640 135 646 q 169 628 160 635 q 179 613 179 621 m 350 617 q 342 601 350 608 q 323 587 333 593 q 303 577 313 581 q 292 574 293 574 q 273 580 279 574 q 263 594 267 586 q 259 608 260 601 q 258 618 258 615 q 261 633 258 624 q 269 650 264 642 q 283 665 275 658 q 300 671 290 671 q 334 656 318 671 q 350 617 350 640 z "},"":{"ha":389,"x_min":60,"x_max":404,"o":"m 304 300 q 296 242 304 269 q 274 193 288 214 q 241 160 260 172 q 200 149 222 149 q 139 171 161 149 q 105 222 117 193 q 90 281 93 251 q 86 326 86 311 q 94 383 86 351 q 115 440 101 414 q 144 485 128 467 q 179 503 161 503 q 192 500 183 503 q 211 492 201 497 q 228 478 221 486 q 239 458 236 469 q 269 447 254 457 q 286 432 285 438 q 301 360 297 396 q 304 300 304 324 m 242 325 q 238 369 242 346 q 221 415 233 392 q 214 414 218 414 q 205 415 208 414 q 199 417 201 417 q 172 408 182 417 q 158 384 163 399 q 151 353 153 369 q 150 321 150 336 q 151 287 150 306 q 158 251 153 268 q 171 223 163 235 q 193 211 179 211 q 217 226 207 211 q 232 260 226 240 q 240 298 238 279 q 242 325 242 317 m 390 558 q 380 553 388 557 q 365 550 372 550 q 336 556 350 550 q 311 568 322 561 q 270 599 288 581 q 239 638 253 618 q 214 675 225 657 q 194 703 203 693 q 151 658 175 679 q 94 617 128 638 q 79 611 83 611 q 65 619 69 611 q 60 632 60 626 q 67 647 60 640 q 100 686 83 664 q 133 729 117 708 q 165 764 150 750 q 193 778 181 778 q 237 758 218 778 q 274 709 256 738 q 314 651 293 681 q 365 600 335 621 q 392 594 379 600 q 404 579 404 589 q 399 567 404 572 q 390 558 393 561 z "},"":{"ha":564,"x_min":76,"x_max":493,"o":"m 492 -61 q 493 -72 493 -67 q 493 -79 493 -76 q 487 -99 493 -93 q 463 -104 481 -104 q 440 -99 446 -104 q 418 -56 432 -90 q 389 26 404 -21 q 359 128 374 74 q 333 231 344 182 q 292 216 318 224 q 238 201 265 208 q 171 186 206 194 q 152 84 158 126 q 141 15 146 42 q 128 -26 136 -12 q 104 -39 121 -39 q 85 -26 93 -39 q 76 11 76 -14 q 83 69 76 24 q 99 172 90 115 q 115 283 107 228 q 126 371 124 339 q 135 425 128 388 q 151 502 143 463 q 168 574 160 542 q 179 610 176 606 q 208 715 201 661 q 217 815 214 769 q 229 888 221 860 q 264 917 238 917 q 278 906 271 917 q 293 879 286 894 q 304 849 300 864 q 310 826 308 835 q 313 793 311 818 q 317 738 315 768 q 322 680 319 708 q 325 636 324 651 q 338 533 329 590 q 357 426 347 476 q 375 342 367 376 q 388 308 383 308 q 402 311 393 308 q 419 314 411 314 q 431 303 431 314 q 425 285 431 292 q 413 272 419 278 q 402 263 407 267 q 397 253 397 258 q 410 196 397 242 l 432 114 q 444 76 435 103 q 465 22 454 50 q 483 -31 475 -7 q 492 -61 492 -56 m 183 257 q 214 262 192 257 q 260 274 236 267 q 301 288 283 281 q 319 299 319 294 q 315 320 319 303 q 303 365 310 338 q 290 426 297 392 q 278 500 283 461 q 271 568 275 525 q 263 653 267 611 q 256 726 258 696 q 253 757 253 757 q 249 737 253 757 q 240 692 244 717 q 231 647 235 668 q 228 622 228 625 l 228 583 q 224 559 228 581 q 215 505 221 538 q 203 434 210 472 q 192 361 197 396 q 183 299 186 326 q 179 263 179 272 q 183 257 179 257 m 235 997 q 228 986 235 994 q 210 969 221 978 q 188 953 200 960 q 168 946 176 946 q 153 947 163 946 q 135 951 144 947 q 119 963 126 956 q 113 983 113 971 q 126 1020 113 1003 q 163 1038 140 1038 q 178 1034 167 1038 q 203 1025 190 1031 q 225 1013 215 1019 q 235 997 235 1006 m 406 1001 q 397 985 406 993 q 378 972 389 978 q 358 962 368 965 q 347 958 349 958 q 328 965 335 958 q 319 978 322 971 q 315 993 315 986 q 314 1003 314 1000 q 317 1017 314 1008 q 325 1035 319 1026 q 338 1049 331 1043 q 356 1056 346 1056 q 390 1040 374 1056 q 406 1001 406 1025 z "},"":{"ha":564,"x_min":76,"x_max":493,"o":"m 344 1036 q 356 1006 356 1025 q 351 983 356 997 q 336 952 346 968 q 313 922 326 936 q 281 901 299 908 q 299 862 292 886 q 310 826 307 838 q 313 793 311 818 q 317 738 315 768 q 322 680 319 708 q 325 636 324 651 q 338 533 329 590 q 357 426 347 476 q 375 342 367 376 q 388 308 383 308 q 402 311 393 308 q 419 314 411 314 q 431 303 431 314 q 425 285 431 292 q 413 272 419 278 q 402 263 407 267 q 397 253 397 258 q 410 196 397 242 l 432 114 q 444 76 435 103 q 465 22 454 50 q 483 -31 475 -7 q 492 -61 492 -56 q 493 -72 493 -67 q 493 -79 493 -76 q 487 -99 493 -93 q 463 -104 481 -104 q 440 -99 446 -104 q 418 -56 432 -90 q 389 26 404 -21 q 359 128 374 74 q 333 231 344 182 q 292 216 318 224 q 238 201 265 208 q 171 186 206 194 q 152 84 158 126 q 141 15 146 42 q 128 -26 136 -12 q 104 -39 121 -39 q 85 -26 93 -39 q 76 11 76 -14 q 83 69 76 24 q 99 172 90 115 q 115 283 107 228 q 126 371 124 339 q 135 425 128 388 q 151 502 143 463 q 168 574 160 542 q 179 610 176 606 q 204 694 197 651 q 214 776 211 738 q 220 847 217 815 q 233 897 224 879 q 195 917 207 901 q 183 949 183 932 q 195 997 183 971 q 226 1044 207 1022 q 267 1079 244 1065 q 314 1093 290 1093 q 345 1082 326 1093 q 364 1060 364 1071 q 358 1051 364 1058 q 344 1036 353 1043 m 183 257 q 214 262 192 257 q 260 274 236 267 q 301 288 283 281 q 319 299 319 294 q 315 320 319 303 q 303 365 310 338 q 290 426 297 392 q 278 500 283 461 q 271 568 275 525 q 263 653 267 611 q 256 726 258 696 q 253 757 253 757 q 249 737 253 757 q 240 692 244 717 q 231 647 235 668 q 228 622 228 625 l 228 583 q 224 559 228 581 q 215 505 221 538 q 203 434 210 472 q 192 361 197 396 q 183 299 186 326 q 179 263 179 272 q 183 257 179 257 m 300 1028 q 298 1028 299 1028 q 296 1029 297 1029 q 281 1023 290 1029 q 264 1007 272 1017 q 250 986 256 997 q 244 967 244 975 q 254 951 244 951 q 274 959 265 951 q 290 977 283 967 q 301 999 297 988 q 304 1019 304 1011 q 300 1028 304 1025 z "},"":{"ha":725,"x_min":65,"x_max":663,"o":"m 663 318 q 652 278 663 299 q 626 236 642 257 q 593 197 611 215 q 560 164 575 178 q 419 58 493 106 q 260 -1 346 10 q 248 -17 254 -10 q 235 -31 242 -24 q 217 -49 228 -37 q 203 -74 206 -60 q 212 -81 206 -79 q 225 -82 218 -82 q 249 -81 229 -82 q 278 -79 269 -79 q 310 -83 288 -79 q 358 -97 333 -86 q 400 -126 382 -107 q 418 -175 418 -144 q 399 -217 418 -200 q 354 -247 379 -235 q 306 -264 329 -258 q 276 -269 283 -269 q 235 -251 253 -269 q 218 -210 218 -233 q 225 -206 218 -206 q 242 -208 232 -206 q 263 -211 253 -211 q 279 -208 265 -211 q 309 -198 293 -204 q 338 -183 325 -192 q 351 -164 351 -175 q 344 -151 351 -157 q 325 -140 336 -144 q 302 -133 314 -136 q 281 -131 290 -131 q 253 -132 263 -131 q 228 -133 244 -133 q 203 -132 218 -133 q 175 -124 189 -131 q 151 -108 161 -118 q 142 -78 142 -97 q 156 -47 142 -68 q 190 -3 171 -25 q 65 151 65 7 q 78 211 65 167 q 110 313 90 256 q 156 432 129 369 q 210 547 182 494 q 265 632 238 599 q 315 665 292 665 q 338 656 331 665 q 346 635 346 646 q 326 599 344 626 q 289 544 308 572 q 279 531 286 540 q 265 511 272 521 q 249 488 257 500 q 224 438 243 478 q 185 347 206 399 q 147 238 164 294 q 131 140 131 182 q 141 103 131 117 q 166 82 151 89 q 197 73 181 75 q 225 71 213 71 q 334 94 276 71 q 444 154 392 117 q 542 241 497 192 q 611 343 586 290 q 623 356 617 353 q 635 358 629 358 q 654 343 646 358 q 663 318 663 328 z "},"":{"ha":513,"x_min":39,"x_max":465,"o":"m 460 490 q 463 487 461 488 q 464 483 464 486 q 429 452 464 475 q 343 401 394 429 q 235 344 292 372 q 133 297 178 315 q 131 279 133 294 q 128 260 128 264 l 128 233 q 138 170 128 201 q 167 114 147 139 q 217 74 188 89 q 285 58 246 58 q 326 65 301 58 q 373 83 350 71 q 414 111 396 94 q 436 149 432 128 q 456 139 453 147 q 460 128 460 131 q 442 66 460 92 q 399 24 425 40 q 345 1 374 8 q 294 -7 317 -7 q 121 60 175 -7 q 67 235 67 126 q 69 260 67 240 q 72 286 72 279 q 67 290 72 288 q 55 294 61 292 q 44 303 49 297 q 39 321 39 310 q 47 339 39 332 q 67 351 56 346 l 81 360 q 110 462 93 413 q 154 561 128 511 q 131 564 143 561 q 118 583 118 567 q 141 626 118 603 q 194 671 164 650 q 253 706 224 692 q 294 721 282 721 q 302 719 300 721 q 310 717 304 717 q 338 721 321 717 q 375 731 356 725 q 412 740 394 736 q 440 744 429 744 q 459 736 453 744 q 465 718 465 728 q 451 702 465 707 q 426 694 438 697 q 345 670 388 688 q 267 632 303 653 q 233 588 253 617 q 196 524 214 560 q 163 449 178 488 q 144 375 149 410 l 168 386 q 342 467 275 438 q 447 496 410 496 q 460 490 454 496 m 447 929 q 431 897 447 918 q 391 854 414 876 q 344 813 368 832 q 306 788 319 794 q 286 781 294 782 q 272 779 278 779 q 244 792 261 779 q 228 815 228 804 q 240 823 228 818 q 268 836 253 828 q 305 863 282 844 q 351 901 328 882 q 392 933 374 919 q 418 947 411 947 q 438 942 428 947 q 447 929 447 936 z "},"":{"ha":657,"x_min":-75,"x_max":657,"o":"m 657 54 q 644 29 657 40 q 617 18 632 18 q 608 22 614 18 q 600 28 603 25 q 476 138 542 83 q 344 249 411 192 q 213 368 278 306 q 92 504 149 431 q 140 345 110 429 q 199 188 171 261 q 249 60 228 114 q 269 -7 269 7 q 256 -34 269 -24 q 229 -44 243 -44 q 211 -27 221 -44 q 190 18 201 -10 q 166 80 178 46 q 143 148 154 114 q 122 212 132 182 q 107 261 113 242 l 69 374 q 44 448 57 410 q 22 519 32 486 q 5 578 11 553 q -1 611 -1 603 q 3 642 -1 626 q 18 658 7 658 q 28 655 25 658 q 33 651 31 651 l 50 658 q 74 641 57 658 q 115 596 92 624 q 164 533 138 568 q 217 465 190 499 q 269 403 244 432 q 313 357 293 374 q 374 304 343 329 q 435 253 404 279 q 501 199 467 228 q 578 132 536 169 q 585 131 579 131 q 588 138 588 131 q 588 154 588 144 q 576 224 588 174 q 545 342 565 275 q 499 487 525 410 q 442 635 472 564 q 380 765 413 707 q 317 856 347 824 q 305 881 308 864 q 301 908 301 897 q 315 930 301 918 q 339 942 328 942 q 376 908 356 942 q 421 822 397 875 q 469 701 444 768 q 517 567 493 635 q 569 408 544 486 q 612 261 593 329 q 642 139 631 193 q 657 54 654 85 m 274 824 q 268 792 274 808 q 251 760 263 775 q 222 736 239 746 q 181 726 204 726 q 143 736 163 726 q 106 760 124 746 q 72 794 88 775 q 43 832 56 813 l -32 774 q -54 765 -43 765 q -72 771 -69 765 q -75 786 -75 776 q -59 813 -75 794 q -22 851 -43 832 q 22 884 0 869 q 54 899 43 899 q 83 881 68 899 q 114 844 99 864 q 150 801 135 818 q 179 785 165 785 q 199 801 194 785 q 203 831 203 817 q 202 836 203 833 q 201 842 201 839 q 220 856 213 853 q 238 860 228 860 q 264 846 254 860 q 274 824 274 832 z "},"":{"ha":560,"x_min":69,"x_max":504,"o":"m 500 358 q 503 329 503 340 q 504 307 504 318 q 495 225 504 272 q 465 135 486 178 q 408 63 443 93 q 318 33 372 33 q 224 62 268 33 q 144 135 179 90 q 90 237 110 181 q 69 349 69 293 q 80 487 69 429 q 110 588 90 544 q 105 596 110 592 q 100 607 100 600 q 113 625 100 614 q 145 647 126 636 q 183 665 164 657 q 211 672 201 672 q 230 667 217 672 q 264 661 243 661 q 278 663 271 661 q 293 664 285 664 q 356 637 322 664 q 420 567 390 610 q 472 469 450 524 q 500 358 493 414 m 444 304 q 433 380 444 331 q 400 477 422 429 q 347 561 378 525 q 276 597 315 597 q 266 598 274 597 q 249 599 258 599 q 231 601 239 600 q 221 601 222 601 q 183 581 199 601 q 156 526 167 560 q 140 450 146 493 q 135 364 135 407 q 143 305 135 349 q 173 215 151 261 q 231 132 194 168 q 322 96 267 96 q 383 119 360 96 q 420 175 407 142 q 439 244 433 208 q 444 304 444 279 m 222 785 q 215 774 222 782 q 198 756 208 765 q 176 740 188 747 q 156 733 164 733 q 141 734 150 733 q 123 739 132 735 q 107 751 114 743 q 100 771 100 758 q 114 808 100 790 q 150 825 128 825 q 166 822 154 825 q 190 813 178 818 q 213 800 203 807 q 222 785 222 793 m 393 789 q 385 773 393 781 q 366 759 376 765 q 346 749 356 753 q 335 746 336 746 q 316 752 322 746 q 306 766 310 758 q 302 781 303 774 q 301 790 301 788 q 304 805 301 796 q 313 822 307 814 q 326 837 318 831 q 343 843 333 843 q 377 828 361 843 q 393 789 393 813 z "},"":{"ha":554,"x_min":60,"x_max":611,"o":"m 611 -64 q 603 -85 611 -81 q 583 -90 594 -90 q 561 -87 575 -90 q 541 -74 554 -86 q 513 -47 528 -62 q 476 -10 496 -31 l 407 69 q 394 52 404 65 q 370 24 385 39 q 336 -1 356 10 q 294 -12 317 -12 q 258 -3 279 -12 q 214 22 236 6 q 170 63 192 39 q 133 115 149 86 q 101 194 114 153 q 80 276 88 235 q 69 359 72 318 q 67 436 67 400 q 72 510 67 488 q 104 532 76 532 q 122 524 115 532 q 128 508 128 517 q 139 351 128 431 q 171 205 150 271 q 223 97 192 139 q 296 56 254 56 q 328 69 314 56 q 351 100 342 82 q 364 135 360 118 q 369 160 368 151 q 352 212 361 179 q 336 283 343 244 q 325 364 329 322 q 321 444 321 406 q 322 542 321 504 q 326 602 322 581 q 339 631 331 624 q 363 639 347 639 q 378 634 371 639 q 391 624 386 629 q 399 613 396 618 q 401 606 401 607 q 399 597 401 600 q 396 588 396 593 q 399 556 396 576 q 407 513 403 535 q 423 411 415 468 q 431 279 431 354 l 431 221 q 442 176 431 210 q 496 76 454 142 q 548 6 524 32 q 588 -36 572 -21 q 604 -52 597 -44 q 611 -64 611 -60 m 399 400 q 394 421 397 408 q 388 446 392 433 q 383 467 385 458 q 381 475 381 475 q 381 438 381 460 q 384 395 382 417 q 389 353 386 374 q 396 319 392 333 q 397 339 396 329 q 398 358 397 347 q 399 379 399 368 l 399 400 m 182 733 q 175 722 182 731 q 158 705 168 714 q 135 689 147 696 q 115 682 124 682 q 101 683 110 682 q 83 688 92 683 q 67 699 74 692 q 60 719 60 707 q 74 756 60 739 q 110 774 88 774 q 126 770 114 774 q 150 761 138 767 q 172 749 163 756 q 182 733 182 742 m 353 738 q 344 722 353 729 q 326 708 336 714 q 306 698 315 701 q 294 694 296 694 q 276 701 282 694 q 266 715 269 707 q 262 729 263 722 q 261 739 261 736 q 264 753 261 744 q 272 771 267 763 q 285 785 278 779 q 303 792 293 792 q 337 776 321 792 q 353 738 353 761 z "},"":{"ha":564,"x_min":76,"x_max":493,"o":"m 492 -61 q 493 -72 493 -67 q 493 -79 493 -76 q 487 -99 493 -93 q 463 -104 481 -104 q 440 -99 446 -104 q 418 -56 432 -90 q 389 26 404 -21 q 359 128 374 74 q 333 231 344 182 q 292 216 318 224 q 238 201 265 208 q 171 186 206 194 q 152 84 158 126 q 141 15 146 42 q 128 -26 136 -12 q 104 -39 121 -39 q 85 -26 93 -39 q 76 11 76 -14 q 83 69 76 24 q 99 172 90 115 q 115 283 107 228 q 126 371 124 339 q 135 425 128 388 q 151 502 143 463 q 168 574 160 542 q 179 610 176 606 q 208 715 201 661 q 217 815 214 769 q 229 888 221 860 q 264 917 238 917 q 278 906 271 917 q 293 879 286 894 q 304 849 300 864 q 310 826 308 835 q 313 793 311 818 q 317 738 315 768 q 322 680 319 708 q 325 636 324 651 q 338 533 329 590 q 357 426 347 476 q 375 342 367 376 q 388 308 383 308 q 402 311 393 308 q 419 314 411 314 q 431 303 431 314 q 425 285 431 292 q 413 272 419 278 q 402 263 407 267 q 397 253 397 258 q 410 196 397 242 l 432 114 q 444 76 435 103 q 465 22 454 50 q 483 -31 475 -7 q 492 -61 492 -56 m 183 257 q 214 262 192 257 q 260 274 236 267 q 301 288 283 281 q 319 299 319 294 q 315 320 319 303 q 303 365 310 338 q 290 426 297 392 q 278 500 283 461 q 271 568 275 525 q 263 653 267 611 q 256 726 258 696 q 253 757 253 757 q 249 737 253 757 q 240 692 244 717 q 231 647 235 668 q 228 622 228 625 l 228 583 q 224 559 228 581 q 215 505 221 538 q 203 434 210 472 q 192 361 197 396 q 183 299 186 326 q 179 263 179 272 q 183 257 179 257 m 168 1153 q 178 1157 172 1157 q 195 1152 185 1157 q 215 1140 206 1147 q 244 1113 225 1133 q 283 1070 264 1093 q 319 1028 303 1047 q 342 1004 336 1008 q 349 1001 343 1003 q 361 998 354 1000 q 374 993 368 996 q 379 986 379 990 q 365 960 379 975 q 340 944 350 944 q 314 954 332 944 q 269 991 294 964 q 222 1049 244 1018 q 183 1108 199 1079 q 167 1149 167 1136 q 167 1151 167 1150 q 168 1153 168 1151 z "},"":{"ha":564,"x_min":76,"x_max":493,"o":"m 492 -61 q 493 -72 493 -67 q 493 -79 493 -76 q 487 -99 493 -93 q 463 -104 481 -104 q 440 -99 446 -104 q 418 -56 432 -90 q 389 26 404 -21 q 359 128 374 74 q 333 231 344 182 q 292 216 318 224 q 238 201 265 208 q 171 186 206 194 q 152 84 158 126 q 141 15 146 42 q 128 -26 136 -12 q 104 -39 121 -39 q 85 -26 93 -39 q 76 11 76 -14 q 83 69 76 24 q 99 172 90 115 q 115 283 107 228 q 126 371 124 339 q 135 425 128 388 q 151 502 143 463 q 168 574 160 542 q 179 610 176 606 q 208 715 201 661 q 217 815 214 769 q 229 888 221 860 q 264 917 238 917 q 278 906 271 917 q 293 879 286 894 q 304 849 300 864 q 310 826 308 835 q 313 793 311 818 q 317 738 315 768 q 322 680 319 708 q 325 636 324 651 q 338 533 329 590 q 357 426 347 476 q 375 342 367 376 q 388 308 383 308 q 402 311 393 308 q 419 314 411 314 q 431 303 431 314 q 425 285 431 292 q 413 272 419 278 q 402 263 407 267 q 397 253 397 258 q 410 196 397 242 l 432 114 q 444 76 435 103 q 465 22 454 50 q 483 -31 475 -7 q 492 -61 492 -56 m 183 257 q 214 262 192 257 q 260 274 236 267 q 301 288 283 281 q 319 299 319 294 q 315 320 319 303 q 303 365 310 338 q 290 426 297 392 q 278 500 283 461 q 271 568 275 525 q 263 653 267 611 q 256 726 258 696 q 253 757 253 757 q 249 737 253 757 q 240 692 244 717 q 231 647 235 668 q 228 622 228 625 l 228 583 q 224 559 228 581 q 215 505 221 538 q 203 434 210 472 q 192 361 197 396 q 183 299 186 326 q 179 263 179 272 q 183 257 179 257 m 446 1038 q 440 1006 446 1022 q 423 974 435 989 q 394 950 411 960 q 353 940 376 940 q 315 950 335 940 q 278 974 296 960 q 244 1008 260 989 q 215 1046 228 1026 l 140 988 q 118 979 129 979 q 100 985 103 979 q 97 1000 97 990 q 113 1027 97 1008 q 151 1065 129 1046 q 194 1098 172 1083 q 226 1113 215 1113 q 256 1095 240 1113 q 286 1058 271 1078 q 322 1015 307 1032 q 351 999 338 999 q 371 1015 367 999 q 375 1044 375 1031 q 374 1050 375 1047 q 374 1056 374 1053 q 392 1070 385 1067 q 410 1074 400 1074 q 436 1060 426 1074 q 446 1038 446 1046 z "},"":{"ha":560,"x_min":69,"x_max":504,"o":"m 500 358 q 503 329 503 340 q 504 307 504 318 q 495 225 504 272 q 465 135 486 178 q 408 63 443 93 q 318 33 372 33 q 224 62 268 33 q 144 135 179 90 q 90 237 110 181 q 69 349 69 293 q 80 487 69 429 q 110 588 90 544 q 105 596 110 592 q 100 607 100 600 q 113 625 100 614 q 145 647 126 636 q 183 665 164 657 q 211 672 201 672 q 230 667 217 672 q 264 661 243 661 q 278 663 271 661 q 293 664 285 664 q 356 637 322 664 q 420 567 390 610 q 472 469 450 524 q 500 358 493 414 m 444 304 q 433 380 444 331 q 400 477 422 429 q 347 561 378 525 q 276 597 315 597 q 266 598 274 597 q 249 599 258 599 q 231 601 239 600 q 221 601 222 601 q 183 581 199 601 q 156 526 167 560 q 140 450 146 493 q 135 364 135 407 q 143 305 135 349 q 173 215 151 261 q 231 132 194 168 q 322 96 267 96 q 383 119 360 96 q 420 175 407 142 q 439 244 433 208 q 444 304 444 279 m 429 824 q 424 792 429 808 q 406 760 418 775 q 377 736 394 746 q 336 726 360 726 q 299 736 318 726 q 261 760 279 746 q 227 794 243 775 q 199 832 211 813 l 124 774 q 101 765 113 765 q 83 771 86 765 q 81 786 81 776 q 97 813 81 794 q 134 851 113 832 q 177 884 156 869 q 210 899 199 899 q 239 881 224 899 q 269 844 254 864 q 306 801 290 818 q 335 785 321 785 q 354 801 350 785 q 358 831 358 817 q 358 836 358 833 q 357 842 357 839 q 376 856 368 853 q 393 860 383 860 q 419 846 410 860 q 429 824 429 832 z "},"":{"ha":564,"x_min":76,"x_max":493,"o":"m 492 -61 q 493 -72 493 -67 q 493 -79 493 -76 q 487 -99 493 -93 q 463 -104 481 -104 q 440 -99 446 -104 q 418 -56 432 -90 q 389 26 404 -21 q 359 128 374 74 q 333 231 344 182 q 292 216 318 224 q 238 201 265 208 q 171 186 206 194 q 152 84 158 126 q 141 15 146 42 q 128 -26 136 -12 q 104 -39 121 -39 q 85 -26 93 -39 q 76 11 76 -14 q 83 69 76 24 q 99 172 90 115 q 115 283 107 228 q 126 371 124 339 q 135 425 128 388 q 151 502 143 463 q 168 574 160 542 q 179 610 176 606 q 208 715 201 661 q 217 815 214 769 q 229 888 221 860 q 264 917 238 917 q 278 906 271 917 q 293 879 286 894 q 304 849 300 864 q 310 826 308 835 q 313 793 311 818 q 317 738 315 768 q 322 680 319 708 q 325 636 324 651 q 338 533 329 590 q 357 426 347 476 q 375 342 367 376 q 388 308 383 308 q 402 311 393 308 q 419 314 411 314 q 431 303 431 314 q 425 285 431 292 q 413 272 419 278 q 402 263 407 267 q 397 253 397 258 q 410 196 397 242 l 432 114 q 444 76 435 103 q 465 22 454 50 q 483 -31 475 -7 q 492 -61 492 -56 m 183 257 q 214 262 192 257 q 260 274 236 267 q 301 288 283 281 q 319 299 319 294 q 315 320 319 303 q 303 365 310 338 q 290 426 297 392 q 278 500 283 461 q 271 568 275 525 q 263 653 267 611 q 256 726 258 696 q 253 757 253 757 q 249 737 253 757 q 240 692 244 717 q 231 647 235 668 q 228 622 228 625 l 228 583 q 224 559 228 581 q 215 505 221 538 q 203 434 210 472 q 192 361 197 396 q 183 299 186 326 q 179 263 179 272 q 183 257 179 257 m 456 904 q 445 899 453 903 q 431 896 438 896 q 401 901 415 896 q 376 914 388 907 q 335 945 353 926 q 304 983 318 964 q 279 1021 290 1003 q 260 1049 268 1039 q 217 1004 240 1025 q 160 963 193 983 q 144 957 149 957 q 130 965 135 957 q 125 978 125 972 q 132 993 125 986 q 165 1032 149 1010 q 199 1075 182 1054 q 231 1110 215 1096 q 258 1124 246 1124 q 302 1103 283 1124 q 340 1055 321 1083 q 379 997 358 1026 q 431 946 400 967 q 457 940 444 946 q 469 925 469 935 q 464 913 469 918 q 456 904 458 907 z "},"":{"ha":513,"x_min":39,"x_max":494,"o":"m 460 490 q 463 487 461 488 q 464 483 464 486 q 429 452 464 475 q 343 401 394 429 q 235 344 292 372 q 133 297 178 315 q 131 279 133 294 q 128 260 128 264 l 128 233 q 138 170 128 201 q 167 114 147 139 q 217 74 188 89 q 285 58 246 58 q 326 65 301 58 q 373 83 350 71 q 414 111 396 94 q 436 149 432 128 q 456 139 453 147 q 460 128 460 131 q 442 66 460 92 q 399 24 425 40 q 345 1 374 8 q 294 -7 317 -7 q 121 60 175 -7 q 67 235 67 126 q 69 260 67 240 q 72 286 72 279 q 67 290 72 288 q 55 294 61 292 q 44 303 49 297 q 39 321 39 310 q 47 339 39 332 q 67 351 56 346 l 81 360 q 110 462 93 413 q 154 561 128 511 q 131 564 143 561 q 118 583 118 567 q 141 626 118 603 q 194 671 164 650 q 253 706 224 692 q 294 721 282 721 q 302 719 300 721 q 310 717 304 717 q 338 721 321 717 q 375 731 356 725 q 412 740 394 736 q 440 744 429 744 q 459 736 453 744 q 465 718 465 728 q 451 702 465 707 q 426 694 438 697 q 345 670 388 688 q 267 632 303 653 q 233 588 253 617 q 196 524 214 560 q 163 449 178 488 q 144 375 149 410 l 168 386 q 342 467 275 438 q 447 496 410 496 q 460 490 454 496 m 481 779 q 470 774 478 778 q 456 771 463 771 q 426 776 440 771 q 401 789 413 782 q 360 820 378 801 q 329 858 343 839 q 304 896 315 878 q 285 924 293 914 q 242 879 265 900 q 185 838 218 858 q 169 832 174 832 q 155 840 160 832 q 150 853 150 847 q 157 868 150 861 q 190 907 174 885 q 224 950 207 929 q 256 985 240 971 q 283 999 271 999 q 327 978 308 999 q 365 930 346 958 q 404 872 383 901 q 456 821 425 842 q 482 815 469 821 q 494 800 494 810 q 489 788 494 793 q 481 779 483 782 z "},"":{"ha":513,"x_min":39,"x_max":465,"o":"m 460 490 q 463 487 461 488 q 464 483 464 486 q 429 452 464 475 q 343 401 394 429 q 235 344 292 372 q 133 297 178 315 q 131 279 133 294 q 128 260 128 264 l 128 233 q 138 170 128 201 q 167 114 147 139 q 217 74 188 89 q 285 58 246 58 q 326 65 301 58 q 373 83 350 71 q 414 111 396 94 q 436 149 432 128 q 456 139 453 147 q 460 128 460 131 q 442 66 460 92 q 399 24 425 40 q 345 1 374 8 q 294 -7 317 -7 q 121 60 175 -7 q 67 235 67 126 q 69 260 67 240 q 72 286 72 279 q 67 290 72 288 q 55 294 61 292 q 44 303 49 297 q 39 321 39 310 q 47 339 39 332 q 67 351 56 346 l 81 360 q 110 462 93 413 q 154 561 128 511 q 131 564 143 561 q 118 583 118 567 q 141 626 118 603 q 194 671 164 650 q 253 706 224 692 q 294 721 282 721 q 302 719 300 721 q 310 717 304 717 q 338 721 321 717 q 375 731 356 725 q 412 740 394 736 q 440 744 429 744 q 459 736 453 744 q 465 718 465 728 q 451 702 465 707 q 426 694 438 697 q 345 670 388 688 q 267 632 303 653 q 233 588 253 617 q 196 524 214 560 q 163 449 178 488 q 144 375 149 410 l 168 386 q 342 467 275 438 q 447 496 410 496 q 460 490 454 496 m 250 835 q 243 824 250 832 q 226 806 236 815 q 203 790 215 797 q 183 783 192 783 q 169 784 178 783 q 151 789 160 785 q 135 801 142 793 q 128 821 128 808 q 142 858 128 840 q 178 875 156 875 q 194 872 182 875 q 218 863 206 868 q 240 850 231 857 q 250 835 250 843 m 421 839 q 413 823 421 831 q 394 809 404 815 q 374 799 383 803 q 363 796 364 796 q 344 802 350 796 q 334 816 338 808 q 330 831 331 824 q 329 840 329 838 q 332 855 329 846 q 340 872 335 864 q 353 887 346 881 q 371 893 361 893 q 405 878 389 893 q 421 839 421 863 z "},"":{"ha":513,"x_min":39,"x_max":465,"o":"m 460 490 q 463 487 461 488 q 464 483 464 486 q 429 452 464 475 q 343 401 394 429 q 235 344 292 372 q 133 297 178 315 q 131 279 133 294 q 128 260 128 264 l 128 233 q 138 170 128 201 q 167 114 147 139 q 217 74 188 89 q 285 58 246 58 q 326 65 301 58 q 373 83 350 71 q 414 111 396 94 q 436 149 432 128 q 456 139 453 147 q 460 128 460 131 q 442 66 460 92 q 399 24 425 40 q 345 1 374 8 q 294 -7 317 -7 q 121 60 175 -7 q 67 235 67 126 q 69 260 67 240 q 72 286 72 279 q 67 290 72 288 q 55 294 61 292 q 44 303 49 297 q 39 321 39 310 q 47 339 39 332 q 67 351 56 346 l 81 360 q 110 462 93 413 q 154 561 128 511 q 131 564 143 561 q 118 583 118 567 q 141 626 118 603 q 194 671 164 650 q 253 706 224 692 q 294 721 282 721 q 302 719 300 721 q 310 717 304 717 q 338 721 321 717 q 375 731 356 725 q 412 740 394 736 q 440 744 429 744 q 459 736 453 744 q 465 718 465 728 q 451 702 465 707 q 426 694 438 697 q 345 670 388 688 q 267 632 303 653 q 233 588 253 617 q 196 524 214 560 q 163 449 178 488 q 144 375 149 410 l 168 386 q 342 467 275 438 q 447 496 410 496 q 460 490 454 496 m 131 981 q 140 985 135 985 q 158 980 147 985 q 178 968 168 975 q 207 941 188 961 q 246 898 226 921 q 282 856 265 875 q 304 832 299 836 q 311 829 306 831 q 324 826 317 828 q 336 821 331 824 q 342 814 342 818 q 327 788 342 803 q 303 772 313 772 q 276 782 294 772 q 232 819 257 792 q 184 876 207 846 q 145 935 161 907 q 129 976 129 964 q 130 978 129 978 q 131 981 131 979 z "},"":{"ha":721,"x_min":7,"x_max":711,"o":"m 711 199 q 679 160 711 172 q 605 134 647 147 q 524 110 563 121 q 455 91 485 100 q 418 78 425 82 q 418 71 418 75 q 419 63 418 67 l 424 29 q 420 10 424 17 q 406 3 417 3 q 388 10 393 3 q 380 28 383 18 q 374 50 376 39 q 367 67 372 61 q 344 61 364 67 q 295 47 325 56 q 228 28 265 39 q 157 10 192 18 q 92 -4 122 1 q 44 -10 61 -10 q 7 14 7 -10 q 17 40 7 32 q 42 53 28 49 q 69 60 44 54 q 128 73 93 65 q 202 90 163 81 q 276 108 242 100 q 331 124 310 117 q 353 133 353 131 q 347 164 353 142 q 335 206 340 186 l 326 233 q 296 413 307 322 q 278 590 285 503 q 271 593 275 593 q 235 579 264 593 q 172 549 206 565 q 110 519 139 533 q 76 506 82 506 q 58 514 67 506 q 49 531 49 522 q 67 556 49 542 q 112 587 85 571 q 172 617 139 603 q 234 644 204 632 q 285 663 264 656 q 314 669 307 669 q 343 674 325 669 q 382 683 361 678 q 424 693 403 689 q 463 697 446 697 q 481 685 481 697 q 475 674 481 678 l 435 663 q 402 653 419 658 q 370 642 385 649 q 347 628 356 636 q 338 613 338 621 q 345 522 338 578 q 363 401 353 465 q 386 269 374 336 q 407 144 399 203 l 656 208 q 672 213 664 210 q 686 217 679 215 q 699 218 693 218 q 711 199 711 218 m 410 882 q 393 850 410 871 q 353 807 376 829 q 306 766 331 785 q 268 740 282 747 q 249 733 257 735 q 235 732 240 732 q 207 744 224 732 q 190 768 190 757 q 203 776 190 771 q 231 789 215 781 q 267 816 244 797 q 313 853 290 835 q 355 886 336 872 q 381 900 374 900 q 400 894 390 900 q 410 882 410 889 z "},"":{"ha":721,"x_min":7,"x_max":711,"o":"m 711 199 q 679 160 711 172 q 605 134 647 147 q 524 110 563 121 q 455 91 485 100 q 418 78 425 82 q 418 71 418 75 q 419 63 418 67 l 424 29 q 420 10 424 17 q 406 3 417 3 q 388 10 393 3 q 380 28 383 18 q 374 50 376 39 q 367 67 372 61 q 344 61 364 67 q 295 47 325 56 q 228 28 265 39 q 157 10 192 18 q 92 -4 122 1 q 44 -10 61 -10 q 7 14 7 -10 q 17 40 7 32 q 42 53 28 49 q 69 60 44 54 q 128 73 93 65 q 202 90 163 81 q 276 108 242 100 q 331 124 310 117 q 353 133 353 131 q 347 164 353 142 q 335 206 340 186 l 326 233 q 296 413 307 322 q 278 590 285 503 q 271 593 275 593 q 235 579 264 593 q 172 549 206 565 q 110 519 139 533 q 76 506 82 506 q 58 514 67 506 q 49 531 49 522 q 67 556 49 542 q 112 587 85 571 q 172 617 139 603 q 234 644 204 632 q 285 663 264 656 q 314 669 307 669 q 343 674 325 669 q 382 683 361 678 q 424 693 403 689 q 463 697 446 697 q 481 685 481 697 q 475 674 481 678 l 435 663 q 402 653 419 658 q 370 642 385 649 q 347 628 356 636 q 338 613 338 621 q 345 522 338 578 q 363 401 353 465 q 386 269 374 336 q 407 144 399 203 l 656 208 q 672 213 664 210 q 686 217 679 215 q 699 218 693 218 q 711 199 711 218 m 432 751 q 422 747 429 750 q 407 743 414 743 q 378 749 392 743 q 353 761 364 754 q 312 792 329 774 q 281 831 294 811 q 256 868 267 850 q 236 896 244 886 q 193 851 217 872 q 136 810 169 831 q 121 804 125 804 q 106 812 111 804 q 101 825 101 819 q 108 840 101 833 q 142 879 125 857 q 175 922 158 901 q 207 957 192 943 q 235 971 222 971 q 278 951 260 971 q 316 902 297 931 q 356 844 335 874 q 407 793 376 814 q 433 788 421 793 q 446 772 446 782 q 440 760 446 765 q 432 751 435 754 z "},"":{"ha":721,"x_min":7,"x_max":711,"o":"m 711 199 q 679 160 711 172 q 605 134 647 147 q 524 110 563 121 q 455 91 485 100 q 418 78 425 82 q 418 71 418 75 q 419 63 418 67 l 424 29 q 420 10 424 17 q 406 3 417 3 q 388 10 393 3 q 380 28 383 18 q 374 50 376 39 q 367 67 372 61 q 344 61 364 67 q 295 47 325 56 q 228 28 265 39 q 157 10 192 18 q 92 -4 122 1 q 44 -10 61 -10 q 7 14 7 -10 q 17 40 7 32 q 42 53 28 49 q 69 60 44 54 q 128 73 93 65 q 202 90 163 81 q 276 108 242 100 q 331 124 310 117 q 353 133 353 131 q 347 164 353 142 q 335 206 340 186 l 326 233 q 296 413 307 322 q 278 590 285 503 q 271 593 275 593 q 235 579 264 593 q 172 549 206 565 q 110 519 139 533 q 76 506 82 506 q 58 514 67 506 q 49 531 49 522 q 67 556 49 542 q 112 587 85 571 q 172 617 139 603 q 234 644 204 632 q 285 663 264 656 q 314 669 307 669 q 343 674 325 669 q 382 683 361 678 q 424 693 403 689 q 463 697 446 697 q 481 685 481 697 q 475 674 481 678 l 435 663 q 402 653 419 658 q 370 642 385 649 q 347 628 356 636 q 338 613 338 621 q 345 522 338 578 q 363 401 353 465 q 386 269 374 336 q 407 144 399 203 l 656 208 q 672 213 664 210 q 686 217 679 215 q 699 218 693 218 q 711 199 711 218 m 242 792 q 235 781 242 789 q 217 763 228 772 q 195 747 207 754 q 175 740 183 740 q 160 741 169 740 q 142 746 151 742 q 126 758 133 750 q 119 778 119 765 q 133 815 119 797 q 169 832 147 832 q 185 828 174 832 q 210 819 197 825 q 232 807 222 814 q 242 792 242 800 m 413 796 q 404 780 413 788 q 385 766 396 772 q 365 756 375 760 q 354 753 356 753 q 335 759 342 753 q 326 773 329 765 q 322 788 322 781 q 321 797 321 794 q 324 812 321 803 q 332 829 326 821 q 345 844 338 838 q 363 850 353 850 q 397 835 381 850 q 413 796 413 819 z "},"":{"ha":721,"x_min":7,"x_max":711,"o":"m 711 199 q 679 160 711 172 q 605 134 647 147 q 524 110 563 121 q 455 91 485 100 q 418 78 425 82 q 418 71 418 75 q 419 63 418 67 l 424 29 q 420 10 424 17 q 406 3 417 3 q 388 10 393 3 q 380 28 383 18 q 374 50 376 39 q 367 67 372 61 q 344 61 364 67 q 295 47 325 56 q 228 28 265 39 q 157 10 192 18 q 92 -4 122 1 q 44 -10 61 -10 q 7 14 7 -10 q 17 40 7 32 q 42 53 28 49 q 69 60 44 54 q 128 73 93 65 q 202 90 163 81 q 276 108 242 100 q 331 124 310 117 q 353 133 353 131 q 347 164 353 142 q 335 206 340 186 l 326 233 q 296 413 307 322 q 278 590 285 503 q 271 593 275 593 q 235 579 264 593 q 172 549 206 565 q 110 519 139 533 q 76 506 82 506 q 58 514 67 506 q 49 531 49 522 q 67 556 49 542 q 112 587 85 571 q 172 617 139 603 q 234 644 204 632 q 285 663 264 656 q 314 669 307 669 q 343 674 325 669 q 382 683 361 678 q 424 693 403 689 q 463 697 446 697 q 481 685 481 697 q 475 674 481 678 l 435 663 q 402 653 419 658 q 370 642 385 649 q 347 628 356 636 q 338 613 338 621 q 345 522 338 578 q 363 401 353 465 q 386 269 374 336 q 407 144 399 203 l 656 208 q 672 213 664 210 q 686 217 679 215 q 699 218 693 218 q 711 199 711 218 m 121 946 q 131 950 125 950 q 148 945 138 950 q 168 933 158 940 q 197 906 178 926 q 236 863 217 886 q 272 821 256 840 q 294 797 289 801 q 301 794 296 796 q 314 791 307 793 q 326 786 321 789 q 332 779 332 783 q 317 753 332 768 q 293 738 303 738 q 267 747 285 738 q 222 784 247 757 q 174 842 197 811 q 135 901 151 872 q 119 942 119 929 q 120 944 119 943 q 121 946 121 944 z "},"":{"ha":560,"x_min":69,"x_max":504,"o":"m 500 358 q 503 329 503 340 q 504 307 504 318 q 495 225 504 272 q 465 135 486 178 q 408 63 443 93 q 318 33 372 33 q 224 62 268 33 q 144 135 179 90 q 90 237 110 181 q 69 349 69 293 q 80 487 69 429 q 110 588 90 544 q 105 596 110 592 q 100 607 100 600 q 113 625 100 614 q 145 647 126 636 q 183 665 164 657 q 211 672 201 672 q 230 667 217 672 q 264 661 243 661 q 278 663 271 661 q 293 664 285 664 q 356 637 322 664 q 420 567 390 610 q 472 469 450 524 q 500 358 493 414 m 444 304 q 433 380 444 331 q 400 477 422 429 q 347 561 378 525 q 276 597 315 597 q 266 598 274 597 q 249 599 258 599 q 231 601 239 600 q 221 601 222 601 q 183 581 199 601 q 156 526 167 560 q 140 450 146 493 q 135 364 135 407 q 143 305 135 349 q 173 215 151 261 q 231 132 194 168 q 322 96 267 96 q 383 119 360 96 q 420 175 407 142 q 439 244 433 208 q 444 304 444 279 m 376 903 q 360 871 376 892 q 320 828 343 850 q 273 787 297 806 q 235 761 249 768 q 215 754 224 756 q 201 753 207 753 q 174 765 190 753 q 157 789 157 778 q 169 797 157 792 q 197 810 182 801 q 234 837 211 818 q 280 874 257 856 q 322 907 303 893 q 347 921 340 921 q 367 915 357 921 q 376 903 376 910 z "},"":{"ha":560,"x_min":69,"x_max":504,"o":"m 500 358 q 503 329 503 340 q 504 307 504 318 q 495 225 504 272 q 465 135 486 178 q 408 63 443 93 q 318 33 372 33 q 224 62 268 33 q 144 135 179 90 q 90 237 110 181 q 69 349 69 293 q 80 487 69 429 q 110 588 90 544 q 105 596 110 592 q 100 607 100 600 q 113 625 100 614 q 145 647 126 636 q 183 665 164 657 q 211 672 201 672 q 230 667 217 672 q 264 661 243 661 q 278 663 271 661 q 293 664 285 664 q 356 637 322 664 q 420 567 390 610 q 472 469 450 524 q 500 358 493 414 m 444 304 q 433 380 444 331 q 400 477 422 429 q 347 561 378 525 q 276 597 315 597 q 266 598 274 597 q 249 599 258 599 q 231 601 239 600 q 221 601 222 601 q 183 581 199 601 q 156 526 167 560 q 140 450 146 493 q 135 364 135 407 q 143 305 135 349 q 173 215 151 261 q 231 132 194 168 q 322 96 267 96 q 383 119 360 96 q 420 175 407 142 q 439 244 433 208 q 444 304 444 279 m 415 714 q 405 709 413 713 q 390 706 397 706 q 361 711 375 706 q 336 724 347 717 q 295 755 313 736 q 264 793 278 774 q 239 831 250 813 q 219 858 228 849 q 176 814 200 835 q 119 772 153 793 q 104 767 108 767 q 90 774 94 767 q 85 788 85 782 q 92 803 85 796 q 125 842 108 819 q 158 885 142 864 q 190 919 175 906 q 218 933 206 933 q 262 913 243 933 q 299 865 281 893 q 339 806 318 836 q 390 756 360 776 q 417 750 404 756 q 429 735 429 744 q 424 722 429 728 q 415 714 418 717 z "},"":{"ha":560,"x_min":69,"x_max":504,"o":"m 500 358 q 503 329 503 340 q 504 307 504 318 q 495 225 504 272 q 465 135 486 178 q 408 63 443 93 q 318 33 372 33 q 224 62 268 33 q 144 135 179 90 q 90 237 110 181 q 69 349 69 293 q 80 487 69 429 q 110 588 90 544 q 105 596 110 592 q 100 607 100 600 q 113 625 100 614 q 145 647 126 636 q 183 665 164 657 q 211 672 201 672 q 230 667 217 672 q 264 661 243 661 q 278 663 271 661 q 293 664 285 664 q 356 637 322 664 q 420 567 390 610 q 472 469 450 524 q 500 358 493 414 m 444 304 q 433 380 444 331 q 400 477 422 429 q 347 561 378 525 q 276 597 315 597 q 266 598 274 597 q 249 599 258 599 q 231 601 239 600 q 221 601 222 601 q 183 581 199 601 q 156 526 167 560 q 140 450 146 493 q 135 364 135 407 q 143 305 135 349 q 173 215 151 261 q 231 132 194 168 q 322 96 267 96 q 383 119 360 96 q 420 175 407 142 q 439 244 433 208 q 444 304 444 279 m 75 936 q 85 940 79 940 q 102 935 92 940 q 122 924 113 931 q 151 897 132 917 q 190 853 171 876 q 226 811 210 831 q 249 788 243 792 q 256 785 250 786 q 268 781 261 783 q 281 776 275 779 q 286 769 286 774 q 272 743 286 758 q 247 728 257 728 q 221 738 239 728 q 176 774 201 747 q 128 832 151 801 q 90 891 106 863 q 74 932 74 919 q 74 934 74 933 q 75 936 75 935 z "},"":{"ha":554,"x_min":65,"x_max":611,"o":"m 611 -64 q 603 -85 611 -81 q 583 -90 594 -90 q 561 -87 575 -90 q 541 -74 554 -86 q 513 -47 528 -62 q 476 -10 496 -31 l 407 69 q 394 52 404 65 q 370 24 385 39 q 336 -1 356 10 q 294 -12 317 -12 q 258 -3 279 -12 q 214 22 236 6 q 170 63 192 39 q 133 115 149 86 q 101 194 114 153 q 80 276 88 235 q 69 359 72 318 q 67 436 67 400 q 72 510 67 488 q 104 532 76 532 q 122 524 115 532 q 128 508 128 517 q 139 351 128 431 q 171 205 150 271 q 223 97 192 139 q 296 56 254 56 q 328 69 314 56 q 351 100 342 82 q 364 135 360 118 q 369 160 368 151 q 352 212 361 179 q 336 283 343 244 q 325 364 329 322 q 321 444 321 406 q 322 542 321 504 q 326 602 322 581 q 339 631 331 624 q 363 639 347 639 q 378 634 371 639 q 391 624 386 629 q 399 613 396 618 q 401 606 401 607 q 399 597 401 600 q 396 588 396 593 q 399 556 396 576 q 407 513 403 535 q 423 411 415 468 q 431 279 431 354 l 431 221 q 442 176 431 210 q 496 76 454 142 q 548 6 524 32 q 588 -36 572 -21 q 604 -52 597 -44 q 611 -64 611 -60 m 399 400 q 394 421 397 408 q 388 446 392 433 q 383 467 385 458 q 381 475 381 475 q 381 438 381 460 q 384 395 382 417 q 389 353 386 374 q 396 319 392 333 q 397 339 396 329 q 398 358 397 347 q 399 379 399 368 l 399 400 m 396 697 q 385 692 393 696 q 371 689 378 689 q 342 694 356 689 q 317 707 328 700 q 276 738 293 719 q 244 776 258 757 q 219 814 231 796 q 200 842 208 832 q 157 797 181 818 q 100 756 133 776 q 85 750 89 750 q 70 758 75 750 q 65 771 65 765 q 72 786 65 779 q 106 825 89 803 q 139 868 122 847 q 171 903 156 889 q 199 917 186 917 q 242 897 224 917 q 280 848 261 876 q 319 790 299 819 q 371 739 340 760 q 397 733 385 739 q 410 718 410 728 q 404 706 410 711 q 396 697 399 700 z "},"":{"ha":554,"x_min":31,"x_max":611,"o":"m 611 -64 q 603 -85 611 -81 q 583 -90 594 -90 q 561 -87 575 -90 q 541 -74 554 -86 q 513 -47 528 -62 q 476 -10 496 -31 l 407 69 q 394 52 404 65 q 370 24 385 39 q 336 -1 356 10 q 294 -12 317 -12 q 258 -3 279 -12 q 214 22 236 6 q 170 63 192 39 q 133 115 149 86 q 101 194 114 153 q 80 276 88 235 q 69 359 72 318 q 67 436 67 400 q 72 510 67 488 q 104 532 76 532 q 122 524 115 532 q 128 508 128 517 q 139 351 128 431 q 171 205 150 271 q 223 97 192 139 q 296 56 254 56 q 328 69 314 56 q 351 100 342 82 q 364 135 360 118 q 369 160 368 151 q 352 212 361 179 q 336 283 343 244 q 325 364 329 322 q 321 444 321 406 q 322 542 321 504 q 326 602 322 581 q 339 631 331 624 q 363 639 347 639 q 378 634 371 639 q 391 624 386 629 q 399 613 396 618 q 401 606 401 607 q 399 597 401 600 q 396 588 396 593 q 399 556 396 576 q 407 513 403 535 q 423 411 415 468 q 431 279 431 354 l 431 221 q 442 176 431 210 q 496 76 454 142 q 548 6 524 32 q 588 -36 572 -21 q 604 -52 597 -44 q 611 -64 611 -60 m 399 400 q 394 421 397 408 q 388 446 392 433 q 383 467 385 458 q 381 475 381 475 q 381 438 381 460 q 384 395 382 417 q 389 353 386 374 q 396 319 392 333 q 397 339 396 329 q 398 358 397 347 q 399 379 399 368 l 399 400 m 32 851 q 42 856 36 856 q 59 851 49 856 q 79 839 69 846 q 108 812 89 832 q 147 769 128 792 q 183 726 167 746 q 206 703 200 707 q 213 700 207 701 q 225 697 218 699 q 238 692 232 694 q 243 685 243 689 q 228 658 243 674 q 204 643 214 643 q 178 653 196 643 q 133 690 158 663 q 85 747 108 717 q 47 806 63 778 q 31 847 31 835 q 31 849 31 849 q 32 851 32 850 z "},"":{"ha":215,"x_min":42,"x_max":183,"o":"m 183 119 q 169 103 183 110 q 147 96 154 96 q 122 114 133 96 q 103 156 111 132 q 89 201 94 179 q 81 231 83 222 q 69 264 76 244 q 56 301 63 283 q 46 333 50 319 q 42 349 42 347 q 49 385 42 368 q 68 401 57 401 q 94 382 81 401 q 122 333 108 363 q 146 267 135 303 q 165 201 157 232 q 178 147 174 169 q 183 119 183 124 z "},"":{"ha":215,"x_min":-1,"x_max":218,"o":"m 183 119 q 169 103 183 110 q 147 96 154 96 q 122 114 133 96 q 103 156 111 132 q 89 201 94 179 q 81 231 83 222 q 69 264 76 244 q 56 301 63 283 q 46 333 50 319 q 42 349 42 347 q 49 385 42 368 q 68 401 57 401 q 94 382 81 401 q 122 333 108 363 q 146 267 135 303 q 165 201 157 232 q 178 147 174 169 q 183 119 183 124 m 218 700 q 201 668 218 689 q 162 625 185 647 q 115 584 139 603 q 76 558 90 565 q 57 551 65 553 q 43 550 49 550 q 15 563 32 550 q -1 586 -1 575 q 11 594 -1 589 q 39 607 24 599 q 76 634 53 615 q 122 672 99 653 q 163 704 144 690 q 189 718 182 718 q 208 713 199 718 q 218 700 218 707 z "},"":{"ha":215,"x_min":-156,"x_max":183,"o":"m 183 119 q 169 103 183 110 q 147 96 154 96 q 122 114 133 96 q 103 156 111 132 q 89 201 94 179 q 81 231 83 222 q 69 264 76 244 q 56 301 63 283 q 46 333 50 319 q 42 349 42 347 q 49 385 42 368 q 68 401 57 401 q 94 382 81 401 q 122 333 108 363 q 146 267 135 303 q 165 201 157 232 q 178 147 174 169 q 183 119 183 124 m -154 761 q -144 765 -150 765 q -127 760 -137 765 q -107 749 -117 756 q -78 722 -97 742 q -39 678 -58 701 q -3 636 -19 656 q 19 613 14 617 q 26 610 21 611 q 39 606 32 608 q 51 601 46 604 q 57 594 57 599 q 42 568 57 583 q 18 553 28 553 q -8 563 10 553 q -53 599 -28 572 q -101 657 -78 626 q -140 716 -124 688 q -156 757 -156 744 q -155 759 -156 758 q -154 761 -154 760 z "},"":{"ha":215,"x_min":-115,"x_max":229,"o":"m 183 119 q 169 103 183 110 q 147 96 154 96 q 122 114 133 96 q 103 156 111 132 q 89 201 94 179 q 81 231 83 222 q 69 264 76 244 q 56 301 63 283 q 46 333 50 319 q 42 349 42 347 q 49 385 42 368 q 68 401 57 401 q 94 382 81 401 q 122 333 108 363 q 146 267 135 303 q 165 201 157 232 q 178 147 174 169 q 183 119 183 124 m 215 558 q 205 553 213 557 q 190 550 197 550 q 161 556 175 550 q 136 568 147 561 q 95 599 113 581 q 64 638 78 618 q 39 675 50 657 q 19 703 28 693 q -24 658 0 679 q -81 617 -47 638 q -96 611 -92 611 q -110 619 -106 611 q -115 632 -115 626 q -108 647 -115 640 q -75 686 -92 664 q -42 729 -58 708 q -10 764 -25 750 q 18 778 6 778 q 62 758 43 778 q 99 709 81 738 q 139 651 118 681 q 190 600 160 621 q 217 594 204 600 q 229 579 229 589 q 224 567 229 572 q 215 558 218 561 z "},"":{"ha":215,"x_min":-121,"x_max":183,"o":"m 183 119 q 169 103 183 110 q 147 96 154 96 q 122 114 133 96 q 103 156 111 132 q 89 201 94 179 q 81 231 83 222 q 69 264 76 244 q 56 301 63 283 q 46 333 50 319 q 42 349 42 347 q 49 385 42 368 q 68 401 57 401 q 94 382 81 401 q 122 333 108 363 q 146 267 135 303 q 165 201 157 232 q 178 147 174 169 q 183 119 183 124 m 1 613 q -6 601 1 610 q -23 584 -12 593 q -45 568 -33 575 q -65 561 -57 561 q -80 562 -71 561 q -98 567 -89 563 q -114 578 -107 571 q -121 599 -121 586 q -107 635 -121 618 q -71 653 -93 653 q -55 649 -67 653 q -31 640 -43 646 q -8 628 -18 635 q 1 613 1 621 m 172 617 q 164 601 172 608 q 145 587 156 593 q 125 577 135 581 q 114 574 115 574 q 95 580 101 574 q 85 594 89 586 q 81 608 82 601 q 81 618 81 615 q 83 633 81 624 q 92 650 86 642 q 105 665 97 658 q 122 671 113 671 q 156 656 140 671 q 172 617 172 640 z "},"":{"ha":560,"x_min":69,"x_max":504,"o":"m 436 718 q 444 701 444 715 q 431 646 444 675 q 406 586 417 617 q 467 481 440 542 q 500 358 493 421 q 503 329 503 340 q 504 307 504 318 q 495 225 504 272 q 465 135 486 178 q 408 63 443 93 q 318 33 372 33 q 218 65 265 33 q 156 -36 190 11 q 142 -51 144 -51 q 133 -37 138 -51 q 128 -19 128 -22 q 167 82 128 -17 q 174 100 168 90 q 98 214 126 147 q 69 349 69 281 q 80 487 69 429 q 110 588 90 544 q 105 596 110 592 q 100 607 100 600 q 113 625 100 614 q 145 647 126 636 q 183 665 164 657 q 211 672 201 672 q 230 667 217 672 q 264 661 243 661 q 278 663 271 661 q 293 664 285 664 q 326 656 308 664 q 361 632 343 647 q 394 699 379 674 q 418 725 410 725 q 426 723 421 725 q 436 718 431 721 m 135 364 q 138 332 135 354 q 149 282 142 310 q 168 224 156 254 q 199 168 181 194 q 235 265 215 214 q 273 368 254 315 q 309 472 292 421 q 338 569 326 524 q 308 590 324 582 q 276 597 293 597 q 266 598 274 597 q 249 599 258 599 q 231 601 239 600 q 221 601 222 601 q 183 581 199 601 q 156 526 167 560 q 140 450 146 493 q 135 364 135 407 m 444 304 q 440 344 444 319 q 428 398 436 369 q 409 456 421 426 q 382 513 397 486 q 319 315 351 417 q 244 121 286 213 q 280 103 261 110 q 322 96 299 96 q 383 119 360 96 q 420 175 407 142 q 439 244 433 208 q 444 304 444 279 z "},"":{"ha":556,"x_min":76,"x_max":463,"o":"m 463 331 q 448 230 463 272 q 412 158 433 188 q 363 109 390 128 q 311 80 336 90 q 266 65 286 69 q 238 61 246 61 q 215 63 222 61 q 142 -60 181 -6 q 129 -74 131 -74 q 120 -60 125 -74 q 115 -44 115 -47 q 153 50 115 -42 l 165 82 q 101 149 126 106 q 76 247 76 192 q 85 313 76 281 q 102 374 93 346 q 119 425 111 403 q 128 461 128 447 q 127 468 128 464 q 126 476 126 472 q 142 497 126 489 q 164 506 157 506 q 192 501 174 506 q 217 496 210 496 q 233 496 224 496 q 251 497 242 496 q 274 500 263 499 q 290 499 281 500 q 311 497 300 499 q 355 605 333 561 q 388 649 376 649 q 395 647 390 649 q 406 642 400 644 q 413 626 413 638 q 406 597 413 615 q 392 556 400 578 q 376 515 385 535 q 364 482 368 494 q 432 431 401 467 q 463 331 463 396 m 188 144 q 240 292 213 214 q 292 442 268 371 q 278 443 288 443 q 229 439 250 443 q 185 435 208 435 q 174 401 181 422 q 160 358 167 381 q 148 313 153 335 q 143 275 143 292 q 151 205 143 243 q 188 144 160 167 m 244 126 q 311 142 282 126 q 360 186 340 158 q 390 251 381 214 q 400 328 400 288 q 385 388 400 364 q 346 425 369 413 q 299 274 324 350 q 244 126 274 197 z "},"":{"ha":392,"x_min":-54,"x_max":346,"o":"m 346 650 q 313 465 328 554 q 299 387 306 428 q 285 306 292 346 q 274 231 279 267 q 267 167 269 196 q 258 65 261 122 q 253 -43 256 8 q 250 -164 250 -103 q 247 -192 250 -176 q 244 -222 244 -207 q 238 -246 244 -236 q 219 -256 232 -256 q 202 -238 208 -256 q 192 -198 196 -221 q 186 -152 188 -175 q 185 -119 185 -129 q 185 -92 185 -108 q 187 -45 185 -76 q 193 37 189 -14 q 206 169 197 88 q 187 183 206 171 q 141 215 168 196 q 85 256 114 233 q 38 299 57 278 q 29 311 35 301 q 24 335 24 321 q 31 349 24 342 q 46 357 38 357 q 57 351 51 357 q 131 290 89 324 q 213 228 172 256 q 224 304 215 253 q 243 415 233 356 q 262 529 253 474 q 275 618 271 585 q 278 636 275 624 q 286 661 281 649 q 299 683 292 674 q 314 692 306 692 q 332 684 318 692 q 346 650 346 676 m 68 613 q 61 601 68 610 q 44 584 54 593 q 22 568 33 575 q 1 561 10 561 q -13 562 -4 561 q -31 567 -22 563 q -47 578 -40 571 q -54 599 -54 586 q -40 635 -54 618 q -4 653 -26 653 q 12 649 0 653 q 36 640 24 646 q 58 628 49 635 q 68 613 68 621 m 239 617 q 231 601 239 608 q 212 587 222 593 q 192 577 201 581 q 181 574 182 574 q 162 580 168 574 q 152 594 156 586 q 148 608 149 601 q 147 618 147 615 q 150 633 147 624 q 158 650 153 642 q 172 665 164 658 q 189 671 179 671 q 223 656 207 671 q 239 617 239 640 z "},"":{"ha":436,"x_min":-28,"x_max":440,"o":"m 440 465 q 431 438 440 446 q 411 429 422 429 q 387 433 399 429 q 357 444 375 438 l 336 453 q 333 435 333 446 q 332 418 332 425 q 336 313 332 369 q 346 199 340 256 q 359 88 351 142 q 372 -10 367 33 q 382 -84 378 -54 q 386 -122 386 -114 l 386 -157 q 383 -185 386 -172 q 368 -197 379 -197 q 333 -163 347 -197 q 309 -85 318 -129 q 296 -1 300 -42 q 292 54 292 40 q 288 101 292 64 q 281 185 285 139 q 273 280 276 232 q 269 361 269 328 q 269 392 269 375 q 268 425 268 410 l 268 468 q 237 514 268 490 q 161 566 206 538 q 69 631 117 594 q -8 719 22 668 q -12 732 -12 721 q -4 767 -12 751 q 18 782 4 782 q 31 772 22 782 q 51 746 39 761 q 81 712 64 731 q 118 676 97 693 q 157 645 132 664 q 206 608 182 626 q 249 577 231 590 q 268 564 267 564 q 275 575 274 564 q 276 589 276 586 l 283 672 q 301 801 290 743 q 311 901 311 858 q 308 918 311 906 q 306 935 306 931 q 311 948 306 943 q 324 956 317 953 q 343 961 332 960 q 371 947 363 961 q 379 919 379 932 q 373 822 379 869 q 359 728 367 775 q 345 631 351 681 q 339 528 339 582 q 349 510 339 519 q 373 494 358 501 q 406 478 388 486 q 440 465 424 471 m 94 949 q 88 938 94 946 q 70 920 81 929 q 48 904 60 911 q 28 897 36 897 q 13 898 22 897 q -5 903 4 899 q -21 915 -14 907 q -28 935 -28 922 q -14 972 -28 954 q 22 989 0 989 q 38 985 26 989 q 63 976 50 982 q 85 964 75 971 q 94 949 94 957 m 265 953 q 257 937 265 944 q 238 923 249 929 q 218 913 228 917 q 207 910 208 910 q 188 916 194 910 q 178 930 182 922 q 174 944 175 938 q 174 954 174 951 q 176 969 174 960 q 185 986 179 978 q 198 1001 190 994 q 215 1007 206 1007 q 249 992 233 1007 q 265 953 265 976 z "},"":{"ha":575,"x_min":129,"x_max":446,"o":"m 438 949 q 446 932 446 946 q 445 927 446 929 q 444 924 444 925 l 444 921 q 384 744 413 842 q 322 549 356 647 q 249 357 289 450 q 157 194 210 264 q 143 179 146 179 q 134 194 139 179 q 129 211 129 208 q 168 313 129 214 q 208 418 186 358 q 252 543 229 478 q 297 673 275 608 q 338 793 318 738 q 361 856 349 826 q 385 908 374 886 q 405 943 396 931 q 419 956 414 956 q 427 953 422 956 q 438 949 432 951 z "},"":{"ha":522,"x_min":58,"x_max":467,"o":"m 211 6 q 189 74 208 21 q 143 207 169 128 q 130 253 136 229 q 119 297 124 276 q 113 332 115 318 q 111 349 111 346 q 106 378 111 354 q 94 451 101 401 q 77 581 86 501 q 58 779 68 661 q 63 811 58 792 q 82 831 67 831 q 108 810 97 831 q 124 757 118 789 q 134 688 131 725 q 140 618 138 651 q 224 640 183 632 q 296 647 264 647 q 394 630 360 647 q 445 591 429 613 q 464 551 461 569 q 467 529 467 532 q 433 420 467 475 q 356 319 399 365 q 273 238 313 272 q 221 189 233 203 l 240 125 q 268 56 256 94 q 281 -1 281 17 q 274 -32 281 -17 q 247 -47 267 -47 q 222 -34 233 -47 q 210 -4 210 -21 q 210 1 210 -1 q 211 6 211 3 m 399 547 q 366 572 396 563 q 293 581 336 581 q 205 571 246 581 q 147 554 164 561 q 156 483 151 517 q 167 416 161 450 q 180 344 172 382 q 199 257 188 306 q 258 315 224 281 q 324 386 292 349 q 378 463 356 424 q 400 533 400 501 q 399 541 400 538 q 399 547 399 544 z "},"":{"ha":622,"x_min":115,"x_max":528,"o":"m 331 758 q 315 718 331 744 q 276 663 299 692 q 232 609 254 633 q 197 575 210 585 q 178 565 190 569 q 165 560 167 560 q 136 569 154 560 q 117 589 118 578 q 127 599 115 592 q 151 617 139 606 q 186 654 164 628 q 232 708 208 681 q 276 757 256 736 q 306 778 297 778 q 322 774 314 778 q 331 758 331 769 m 528 700 q 511 668 528 689 q 472 625 494 647 q 424 584 449 603 q 386 558 400 565 q 367 551 375 553 q 353 550 358 550 q 331 558 342 550 q 321 578 321 567 q 327 590 321 581 q 349 607 333 599 q 385 634 363 615 q 431 672 408 653 q 473 704 454 690 q 499 718 492 718 q 518 713 508 718 q 528 700 528 707 z "},"":{"ha":411,"x_min":93,"x_max":329,"o":"m 325 -154 q 324 -174 325 -165 q 314 -193 322 -182 q 301 -204 311 -197 q 274 -218 290 -211 q 240 -230 258 -225 q 200 -235 221 -235 q 163 -228 182 -235 q 128 -208 144 -221 q 103 -177 113 -196 q 93 -133 93 -158 q 104 -76 93 -104 q 131 -24 115 -49 q 165 22 147 1 q 197 57 183 43 q 227 83 210 69 q 261 108 244 96 q 292 126 278 119 q 310 133 306 133 q 329 118 329 133 q 321 103 326 110 q 305 88 315 96 q 279 67 294 79 q 243 35 264 54 q 178 -47 203 -3 q 153 -124 153 -92 q 172 -162 153 -149 q 214 -175 190 -175 q 250 -170 235 -175 q 277 -159 265 -165 q 298 -147 289 -153 q 314 -142 307 -142 q 325 -154 325 -142 z "}}}
